<svg width="400" height="110" viewBox="0 0 400 110" fill="none" xmlns="http://www.w3.org/2000/svg"><mask id="a" style="mask-type:luminance" maskUnits="userSpaceOnUse" x="0" y="0" width="400" height="110"><path d="M400 0H0v110h400V0Z" fill="#fff"/></mask><g mask="url(#a)"><path d="m226.323 20.976-9.579 18.44a5.02 5.02 0 0 0 2.141 6.769l136.404 70.856a5.02 5.02 0 0 0 6.769-2.14l9.579-18.44a5.02 5.02 0 0 0-2.141-6.77L233.092 18.835a5.02 5.02 0 0 0-6.769 2.14Z" fill="#30C07B"/><path d="M242.62 82.31c-.71 10.31-7 16.12-16.15 17.46-1.81.42-3.83.76-6.08 1.02-5.7.67-12.86.8-21.86.29-3.65-.2-7-.5-10.05-.88-8.78-1.08-15.18-2.82-19.81-5.06-.02 0-.04-.01-.05-.02-7.43-3.01-11.82-9.31-11.18-18.64.37-5.45 5.64-10.86 11.82-15.22 2.27-1.6 4.66-3.06 6.98-4.33 2.61-1.43 5.13-2.61 7.27-3.49l.02-.01c.68-.36 17.16-8.94 35.96 2.25.15.08.3.17.45.26 3.35 1.93 7.64 4.89 11.58 8.35 1.71 1.5 3.35 3.09 4.83 4.75 3.87 4.31 6.58 8.99 6.28 13.28l-.01-.01Z" fill="#754C2D"/><path d="M233.99 53.37v.16c.3.59.24 1.15.22 1.7-.09.35-.14.69-.19 1.03-.02.17-.05.32-.07.48-.03.2-.06.38-.1.57-.53 2.9-1.41 5.5-2.51 7.62a77.43 77.43 0 0 0-5.57-4.42c.11-1.88.07-3.7-.12-5.4-3.35-.44-6.56-1.36-9.55-2.69-1.92-.84-3.74-1.85-5.46-3-6.59-4.41-11.72-10.97-14.59-18.68-9.43 4.37-16.97 14.38-19.87 26.95a73.356 73.356 0 0 0-6.98 4.33c-1.38-4.07-2-8.47-1.68-13.03 1.03-15.12 11.96-27.21 26.03-30.37 3.1-.7 6.34-.97 9.67-.74 14.52.99 26.24 11.11 29.96 24.36a33.08 33.08 0 0 1 1.22 10.14c0 .34-.02.68-.39 1l-.02-.01Z" fill="#8B6340"/><path d="M176.47 50.59c-1.18-.3-2.42-.38-3.63-.19-1.85.29-3.71 1.3-4.49 3.01-.38.84-.48 1.78-.48 2.7.03 3.16 1.31 6.3 3.52 8.57.86.89 1.87 1.65 3.01 2.13.57.24 1.23.39 1.81.2-.77-3.29-.95-6.84-.7-10.49.14-2.01.47-4 .96-5.92v-.01Z" fill="#FFCFBC"/><path d="M170.11 54.55c1.41-2.05 4.36-2.44 5.68-.07.36.63.54 1.35.57 2.06-.42-.58-.78-1.15-1.21-1.62-1.44-1.72-3.2-1.16-5.04-.38v.01Z" fill="#FBA391"/><path d="M232.78 59.34c-.54-1.8-2.25-3.05-4.04-3.59-.91-.28-1.87-.39-2.83-.36.15 1.52.18 3.04.07 4.57-.29 4.17-1.45 8.06-3.27 11.47.09.09.19.18.3.25.57.35 1.3.27 1.95.1 1.19-.32 2.29-.94 3.27-1.7 2.49-1.95 4.2-4.88 4.65-8.01.13-.91.16-1.86-.1-2.74v.01Z" fill="#FFCFBC"/><path d="M231.67 59.23c-1.72-1.03-3.38-1.81-5.05-.31-.49.4-.92.92-1.42 1.44.12-.71.41-1.39.85-1.97 1.63-2.17 4.5-1.38 5.62.84Z" fill="#FBA391"/><path d="M225.93 55.32c-1.27-13.23-11.64-25.3-24.15-26.16-12.51-.86-22.12 9.04-25.29 21.36-.49 1.93-.83 3.91-.96 5.92-.25 3.64-.06 7.2.7 10.49.67 2.89 1.79 5.57 3.48 7.92 4.24 5.91 11.68 9.76 19.21 10.28 7.91.54 15.23-2.86 20.27-8.62 1.36-1.55 2.55-3.28 3.54-5.14A28.58 28.58 0 0 0 226 59.9c.1-1.53.07-3.06-.07-4.57v-.01Z" fill="#FAF0DA"/><path d="M178.38 49.24c2.49-8.02 15.68-15.78 16.45-15.14 7.57 7.23 16.66 19.55 28.34 19.06-.74-12.18-7.93-22.62-19.22-25.03-11.5-2.46-22.58 5.38-27.66 16.63-.02 1.85 1.24 3.19 2.08 4.48h.01Z" fill="#ECB69E"/><path d="M223.45 26.51a33.304 33.304 0 0 0-20.25-8.64 33.382 33.382 0 0 0-19.63 4.76c-5.42 4.33-9.03 10.61-9.52 17.8-.34 4.9.82 9.59 3.11 13.67 3.41-10.87 10.37-19.42 18.88-23.36 2.87 7.72 8 14.27 14.59 18.68 1.73 1.15 3.55 2.16 5.46 3 2.99 1.33 6.46 2.52 9.81 2.96.01.12 3.16-7.05 3.45-11.17.45-6.62-1.82-12.84-5.91-17.7h.01Z" fill="#8B6340"/><path d="M196.27 56.647c.091-1.339-.612-2.477-1.57-2.543-.959-.066-1.81.967-1.902 2.306-.091 1.339.612 2.477 1.57 2.543.959.065 1.81-.967 1.902-2.306Z" fill="#5B401E"/><path d="M223.219 63.4a5.55 5.55 0 1 0-10.812-2.52 5.55 5.55 0 0 0 10.812 2.52Z" fill="#ECB69E"/><path d="M215.29 61.41c-.48 0-.86-.4-.85-.88 0-.48.4-.86.88-.85.48 0 .86.4.85.88 0 .48-.4.86-.88.85Z" fill="#FFF5F2"/><path d="M188.647 61.039a5.55 5.55 0 1 0-10.809-2.522 5.55 5.55 0 1 0 10.809 2.522Z" fill="#ECB69E"/><path d="M180.72 59.05c-.48 0-.86-.4-.85-.88 0-.48.4-.86.88-.85.48 0 .86.4.85.88 0 .48-.4.86-.88.85Z" fill="#FFF5F2"/><path d="M177.22 54.13c-3.93-5-4.13-10.85-1.94-16.65-.69 7.05-.9 9.96 1.94 16.65Zm48.57-11.8c1.97 3.96 2.13 9.17.41 13.25.13-2.24.26-4.41.18-6.64-.06-2.22-.32-4.39-.59-6.61Z" fill="#7A5437"/><path fill-rule="evenodd" clip-rule="evenodd" d="M196.945 46.559a5.009 5.009 0 0 0-3.844.581.494.494 0 1 1-.522-.84 5.998 5.998 0 0 1 4.616-.7.495.495 0 0 1-.25.959Zm7.454 10.673a6.013 6.013 0 0 1 4.418-1.506.496.496 0 0 1-.074.988 5.02 5.02 0 0 0-2.579.51c.732.109 1.664.326 2.38.777a.495.495 0 1 1-.528.838c-.559-.353-1.36-.546-2.068-.646a10.422 10.422 0 0 0-1.198-.098h-.02V57.6m-.331-.368a.496.496 0 0 0-.131.545l.131-.545Zm-.131.545a.494.494 0 0 0 .462.318l-.462-.318Z" fill="#5B401E"/><path d="M182.13 33.41c-1.65.58-2.63 2.11-2.9 3.84-.07.45-.03 1 .36 1.24.17.1.38.12.58.12 2.04 0 3.84-2.01 3.6-4.04-.05-.42-.19-.85-.5-1.12-.31-.28-.84-.34-1.14-.05m24 4.64c.79 3.27 3.25 5.91 6.03 7.79.48.32.99.63 1.56.71.57.07 1.22-.16 1.47-.68.47-.99-.63-2.43.2-3.13.5-.42 1.26-.12 1.84.2.66.36 1.31.72 1.97 1.09.58.32 1.19.65 1.86.68.66.03 1.4-.33 1.57-.97.19-.71-.35-1.41-.91-1.88a8.73 8.73 0 0 0-6.54-2c-.66.07-1.33.22-1.97.04-1.13-.31-1.74-1.49-2.6-2.29a4.44 4.44 0 0 0-2.91-1.17c-.37 0-.76.04-1.07.26-.3.22-.66 1.03-.5 1.36m27.69 40.1c.86.28 1.14 1.39.5 2.04-.69-.5-.88-1.28-.5-2.04Zm1.83-2.52c1.05.75 1.7 1.98 1.98 3.22.54 2.51-.2 5.19-1.27 7.46-.57 1.13-1.4 2.21-2.55 2.79.88-.9 1.43-1.97 1.84-3.1 1.1-3.32 2.18-7.24 0-10.37Z" fill="#DAB28B"/><path d="M234.6 49.56c-.2-1.98-.58-3.91-1.12-5.79-3.86-13.26-15.95-23.4-30.91-24.42-3.42-.23-6.76.07-9.96.72-10.14 2.06-11.57 4.21-15.99 8.23 21.22-.57 44.64 4.96 57.98 21.26Z" fill="#754C2D"/><path d="M165.51 70.95c-.65 1.46-1.54 2.9-2.3 4.28-.27.46-.54.93-.85 1.4l-.06-.14s0 .02.01.02c.06.02.14-.04.14-.13.06.05.05.15.01.21-.05.09-.16.14-.26.1l-.06-.02v-.12c.11-2.19 1.46-4.54 3.39-5.62l-.02.02Zm1.37 1.92c-.31 1.13-.89 2.58-1.28 3.68-.42 1.1-.92 2.57-1.42 3.63-.38-2.53.77-5.63 2.7-7.31Z" fill="#DAB28B"/><path d="m177.93 25.27.13 1.79s.74-.13 1.68-.07 19.03-1.05 28.83 2.28c0 0-11.51-7.23-30.64-4Z" fill="#872422"/><path d="M219.55 22.81c-.96-2.07-1.98-3.85-2.97-4.99-4.38-5.08-6.81-4.27-7.02-.14-.02.36-.01.73 0 1.13 4.03 1.39 8.51 5.86 12.05 11.67a37.69 37.69 0 0 0-2.08-7.66l.02-.01Z" fill="#C81317"/><path d="M235.07 42.36c-.02.67.03.86-.08 1.51v.03c-.05.31-.11.62-.18.92-.08.23-.18.42-.31.56-.59.67-.68.06-1.6-.82-.17-.21-.35-.43-.53-.64-6.72-7.88-14.08-12.29-28.25-15.88-8.61-2.19-18.54-3.23-25.78-2.58-.68.06-1.31.08-1.46-1.07-.06-.45.16-1.07.43-1.61 1.13-2.28 10.27-9.02 20.23-9.46 5.08-.22 11.63 1.9 14.51 3.35 8.97 4.49 16.17 11.01 20.41 18.54 1.42 2.52 2.06 3.53 2.39 5.61.05.32.23 1.19.22 1.54Z" fill="#DF454D"/><path d="M235.07 42.36c.01-.36-.17-1.22-.22-1.54-.33-2.08-.76-3.13-2.39-5.61-.31-.48-.57-1.02-.9-1.51-2.5-.53-2.95.84-7.67-1.1-14.91-6.11-31.19-12.23-45.94-7.11.2.02.17 0 .38-.02 7.24-.64 17.17.4 25.78 2.58 14.17 3.59 21.53 8 28.25 15.88.18.21.36.43.53.64.92.88 1.01 1.49 1.6.82.13-.14.23-.33.31-.56.07-.3.13-.61.18-.92v-.03c.11-.64.06-.83.08-1.51l.01-.01Z" fill="#C81317"/><path d="M188.68 66.48c.13 5.52 5.8 10.39 11.78 10.28 5.98-.11 10.72-4.68 10.59-10.19-.01-.43-.05-.85-.12-1.26-4.21-.72-9-1.16-14.08-1.28-2.72-.06-5.36-.02-7.87.11-.21.74-.32 1.52-.3 2.34Z" fill="#C27970"/><path d="M192.81 64.86c.97 1.55 3.24 2.86 7.43 3.05 4.19.2 6.69-.7 7.73-2.35v-.11c-3.32-.43-6.93-.72-10.71-.85-1.5-.05-2.97-.08-4.4-.08-.03.11-.11.24-.05.34Z" fill="#FDFAF3"/><path d="M191.59 71.94c2.17 2.41 5.13 4.07 8.39 4.04 3.01-.03 5.6-1.05 7.49-3.07-2.48-1.26-6.09-2.17-9.49-2.14-2.63.02-4.85.11-6.39 1.17Z" fill="#ECB69E"/><path d="m281.81 112.7 1.65-25.34c.19-2.88-2.1-5.33-4.99-5.33H121.06a5 5 0 0 0-4.99 5.33l1.65 25.34h164.09Z" fill="#30C07B"/><mask id="b" style="mask-type:luminance" maskUnits="userSpaceOnUse" x="116" y="82" width="168" height="31"><path d="m281.81 112.7 1.65-25.34c.19-2.88-2.1-5.33-4.99-5.33H121.06a5 5 0 0 0-4.99 5.33l1.65 25.34h164.09Z" fill="#fff"/></mask><g mask="url(#b)"><path d="M199.14 79.13v36.77c0 .8 1.25.81 1.25 0V79.13c0-.8-1.25-.81-1.25 0Z" fill="#fff"/></g><path d="M239.22 82.05c.25 0 .5.01.75 0 .81 0 1.46.66 1.45 1.47-.02 1.23.25 2.48.81 3.55.45.87 1.18 1.71 2.16 1.85.97.14 2.07-.81 1.75-1.74.69.67 1.69 1.15 2.61.88.93-.27 1.5-1.56.84-2.27.65.71 1.51 1.35 2.47 1.27.96-.08 1.79-1.24 1.24-2.03.55.98 2.13.92 2.91.1.78-.82.88-2.08.7-3.19-.62-3.81-4.33-6.74-8.19-6.84-3.86-.09-7.89 2.28-9.22 5.9-.09.25-.27 1.02-.27 1.02l-.01.03Zm-75.43 0h-.02c-1.15.04-2.11.91-2.18 2.06a7.376 7.376 0 0 1-.8 2.97c-.45.87-1.18 1.71-2.16 1.85-.97.14-2.07-.81-1.75-1.74-.69.67-1.69 1.15-2.61.88-.93-.27-1.5-1.56-.84-2.27-.65.71-1.51 1.35-2.47 1.27-.96-.08-1.79-1.24-1.24-2.03-.55.98-2.13.92-2.91.1-.78-.82-.88-2.08-.7-3.19.62-3.81 4.33-6.74 8.19-6.84 3.86-.09 7.89 2.28 9.22 5.9.09.25.27 1.02.27 1.02v.02Z" fill="#FAF0DA"/><path d="M304.29 55.86c4.98-8.46 15.39-13.38 25.07-11.35 4.64.97 10.04 4.91 7.95 10.29-2.09 5.38-9.56 6.76-14.7 6.6-3.33-.1-6.62-.79-9.78-1.79-3.16-1-6.22-2.24-8.63-4.51-.31-.29-.97-.22-1.04.28-.9 6.1.59 12.36 4.62 17.1 4.46 5.24 11.23 7.46 17.96 7.26.8-.02.81-1.27 0-1.25-6.33.18-12.62-1.82-16.89-6.67-3.85-4.38-5.34-10.38-4.5-16.1l-1.04.28c2.25 2.12 5.02 3.42 7.91 4.42 3.23 1.12 6.6 1.91 10.02 2.18 5.57.43 12.86-.59 16.3-5.57 1.55-2.24 2-5.19.78-7.67-1.09-2.2-3.06-3.92-5.27-4.94-4.6-2.12-10.31-1.94-15.11-.62-5.96 1.63-11.6 6.15-14.73 11.45-.41.69.67 1.32 1.08.63v-.02Z" fill="#88E6BC"/><path d="M304.31 55.84c2.6-4.97 3.45-11.19 2.42-16.69-.95-5.06-3.86-10.42-7.93-13.64-4.07-3.22-10.33-3.97-13.48.88-3.37 5.21-.58 12.39 2.55 17.02 1.91 2.82 4.28 5.32 6.87 7.53s5.48 4.29 8.86 5.18l-.28-1.04c-4.41 3.74-10.28 5.66-16.04 4.71-6.37-1.05-11.42-5.33-14.6-10.81-.4-.69-1.49-.07-1.08.63 3.39 5.82 8.84 10.39 15.64 11.43 6.14.93 12.27-1.1 16.97-5.08.37-.31.15-.93-.28-1.04-5.21-1.38-9.77-5.66-13.15-9.7-3.38-4.04-6.68-10.06-5.46-15.59.57-2.59 2.48-5.01 5.2-5.44 2.57-.4 5.2.56 7.24 2.09 3.74 2.81 6.37 7.57 7.5 12.05 1.37 5.44.56 11.9-2.04 16.87-.37.71.71 1.34 1.08.63l.01.01Z" fill="#88E6BC"/><mask id="c" style="mask-type:luminance" maskUnits="userSpaceOnUse" x="216" y="18" width="156" height="100"><path d="m226.62 21.278-9.529 18.343a5 5 0 0 0 2.133 6.741l135.747 70.516a5 5 0 0 0 6.742-2.132l9.529-18.343a5 5 0 0 0-2.133-6.742L233.362 19.145a5 5 0 0 0-6.742 2.133Z" fill="#fff"/></mask><g mask="url(#c)"><path d="M303.21 55.22c-4.9 9.19-9.8 18.38-14.69 27.57l-2.07 3.89c-.38.71.7 1.34 1.08.63 4.9-9.19 9.8-18.38 14.69-27.57l2.07-3.89c.38-.71-.7-1.34-1.08-.63Z" fill="#88E6BC"/></g><path d="M36.85 88.73c-3.25.71-3.82 1.28-4.53 4.53-.71-3.25-1.28-3.82-4.53-4.53 3.25-.71 3.82-1.28 4.53-4.53.71 3.25 1.28 3.82 4.53 4.53Z" fill="#88E6BC"/><path fill-rule="evenodd" clip-rule="evenodd" d="M36.85 88.73c-.786-.172-1.415-.335-1.928-.53-1.093-.417-1.655-.978-2.071-2.072-.196-.513-.36-1.142-.531-1.928-.172.786-.335 1.415-.53 1.928-.417 1.094-.979 1.655-2.072 2.071-.512.196-1.142.36-1.928.531.786.172 1.416.335 1.928.53 1.093.417 1.655.978 2.072 2.072.195.513.358 1.142.53 1.928.172-.786.335-1.416.53-1.928.417-1.094.978-1.655 2.072-2.072.513-.195 1.142-.358 1.928-.53Zm-3.136 0a3.93 3.93 0 0 1-.789-.605 3.93 3.93 0 0 1-.605-.789c-.171.29-.37.553-.605.789a3.927 3.927 0 0 1-.789.605c.29.171.553.37.789.605.236.236.434.499.605.789.171-.29.37-.553.605-.789.236-.235.5-.434.789-.605Z" fill="#88E6BC"/><path d="M36.85 88.73c-3.25.71-3.82 1.28-4.53 4.53-.71-3.25-1.28-3.82-4.53-4.53 3.25-.71 3.82-1.28 4.53-4.53.71 3.25 1.28 3.82 4.53 4.53Z" fill="#88E6BC"/><path fill-rule="evenodd" clip-rule="evenodd" d="M32.32 83.795c.19 0 .355.132.396.319.357 1.634.66 2.474 1.203 3.017.543.543 1.383.846 3.017 1.203a.405.405 0 0 1 0 .792c-1.634.357-2.474.66-3.017 1.203-.543.543-.846 1.383-1.203 3.017a.405.405 0 0 1-.792 0c-.357-1.634-.66-2.474-1.203-3.017-.543-.543-1.383-.846-3.017-1.203a.405.405 0 0 1 0-.792c1.634-.357 2.474-.66 3.017-1.203.543-.543.846-1.383 1.203-3.017a.405.405 0 0 1 .396-.32Zm-2.896 4.935c.797.252 1.402.559 1.87 1.026.467.468.774 1.073 1.026 1.87.252-.797.559-1.403 1.026-1.87.468-.467 1.073-.774 1.87-1.026-.797-.252-1.402-.559-1.87-1.026-.467-.468-.774-1.073-1.026-1.87-.252.797-.559 1.402-1.026 1.87-.468.467-1.073.774-1.87 1.026Z" fill="#88E6BC"/><path d="M372.35 53.17c-3.25.71-3.82 1.28-4.53 4.53-.71-3.25-1.28-3.82-4.53-4.53 3.25-.71 3.82-1.28 4.53-4.53.71 3.25 1.28 3.82 4.53 4.53Z" fill="#88E6BC"/><path fill-rule="evenodd" clip-rule="evenodd" d="M372.35 53.17c-.786-.172-1.415-.335-1.928-.53-1.093-.417-1.655-.979-2.071-2.072-.196-.513-.359-1.142-.531-1.928-.172.786-.335 1.415-.531 1.928-.416 1.093-.977 1.655-2.071 2.071-.513.196-1.142.36-1.928.53.786.173 1.415.336 1.928.531 1.094.417 1.655.978 2.071 2.072.196.512.359 1.142.531 1.928.172-.786.335-1.416.531-1.928.416-1.094.978-1.655 2.071-2.072.513-.195 1.142-.358 1.928-.53Zm-3.136 0a3.931 3.931 0 0 1-.789-.605 3.952 3.952 0 0 1-.605-.789 3.92 3.92 0 0 1-.605.788 3.931 3.931 0 0 1-.789.606c.29.17.553.37.789.605.235.236.434.499.605.789.171-.29.37-.553.605-.789.236-.236.499-.434.789-.605Z" fill="#88E6BC"/><path d="M372.35 53.17c-3.25.71-3.82 1.28-4.53 4.53-.71-3.25-1.28-3.82-4.53-4.53 3.25-.71 3.82-1.28 4.53-4.53.71 3.25 1.28 3.82 4.53 4.53Z" fill="#88E6BC"/><path fill-rule="evenodd" clip-rule="evenodd" d="M367.82 48.235c.19 0 .355.133.396.319.357 1.634.66 2.474 1.203 3.017.543.543 1.383.846 3.017 1.203a.405.405 0 0 1 0 .792c-1.634.357-2.474.66-3.017 1.203-.543.543-.846 1.383-1.203 3.017a.406.406 0 0 1-.792 0c-.357-1.634-.66-2.474-1.203-3.017-.543-.543-1.383-.846-3.017-1.203a.405.405 0 0 1 0-.792c1.634-.357 2.474-.66 3.017-1.203.543-.543.846-1.383 1.203-3.017a.406.406 0 0 1 .396-.319Zm-2.896 4.935c.797.252 1.402.559 1.87 1.026.467.468.774 1.073 1.026 1.87.252-.797.559-1.402 1.026-1.87.468-.467 1.073-.774 1.87-1.026-.797-.252-1.402-.559-1.87-1.026-.467-.468-.774-1.073-1.026-1.87-.252.797-.559 1.402-1.026 1.87-.468.467-1.073.774-1.87 1.026Z" fill="#88E6BC"/><path d="M153.31 19.27c-3.25.71-3.82 1.28-4.53 4.53-.71-3.25-1.28-3.82-4.53-4.53 3.25-.71 3.82-1.28 4.53-4.53.71 3.25 1.28 3.82 4.53 4.53Z" fill="#88E6BC"/><path fill-rule="evenodd" clip-rule="evenodd" d="M153.31 19.27c-.786-.172-1.415-.335-1.928-.53-1.094-.417-1.655-.978-2.071-2.072-.196-.513-.359-1.142-.531-1.928-.172.786-.335 1.415-.531 1.928-.416 1.094-.977 1.655-2.071 2.071-.513.196-1.142.36-1.928.531.786.172 1.415.335 1.928.53 1.094.417 1.655.979 2.071 2.072.196.512.359 1.142.531 1.928.172-.786.335-1.416.531-1.928.416-1.093.977-1.655 2.071-2.072.513-.195 1.142-.358 1.928-.53Zm-3.136 0a3.931 3.931 0 0 1-.789-.605 3.952 3.952 0 0 1-.605-.789c-.171.29-.37.553-.605.789a3.931 3.931 0 0 1-.789.605c.29.171.553.37.789.605.235.236.434.5.605.789.171-.29.37-.553.605-.789.236-.235.499-.434.789-.605Z" fill="#88E6BC"/><path d="M153.31 19.27c-3.25.71-3.82 1.28-4.53 4.53-.71-3.25-1.28-3.82-4.53-4.53 3.25-.71 3.82-1.28 4.53-4.53.71 3.25 1.28 3.82 4.53 4.53Z" fill="#88E6BC"/><path fill-rule="evenodd" clip-rule="evenodd" d="M148.78 14.335c.19 0 .355.132.396.318.357 1.635.66 2.475 1.203 3.018.543.543 1.383.846 3.017 1.203a.405.405 0 0 1 0 .792c-1.634.357-2.474.66-3.017 1.203-.543.543-.846 1.383-1.203 3.017a.406.406 0 0 1-.792 0c-.357-1.634-.66-2.474-1.203-3.017-.543-.543-1.383-.846-3.017-1.203a.405.405 0 0 1 0-.792c1.634-.357 2.474-.66 3.017-1.203.543-.543.846-1.383 1.203-3.018a.406.406 0 0 1 .396-.318Zm-2.896 4.935c.797.252 1.402.559 1.87 1.026.467.468.774 1.073 1.026 1.87.252-.797.559-1.402 1.026-1.87.468-.467 1.073-.774 1.87-1.026-.797-.252-1.402-.559-1.87-1.026-.467-.468-.774-1.073-1.026-1.87-.252.797-.559 1.402-1.026 1.87-.468.467-1.073.774-1.87 1.026Z" fill="#88E6BC"/><path d="M78 51.5c-2.511.549-2.951.989-3.5 3.5-.549-2.511-.989-2.951-3.5-3.5 2.511-.549 2.951-.989 3.5-3.5.549 2.511.989 2.951 3.5 3.5Z" fill="#C4F2DD"/><path fill-rule="evenodd" clip-rule="evenodd" d="M74.5 47.595c.19 0 .355.133.396.319.276 1.264.506 1.887.904 2.285.399.399 1.022.629 2.286.905a.405.405 0 0 1 0 .792c-1.264.276-1.887.506-2.286.904-.398.399-.628 1.022-.904 2.286a.405.405 0 0 1-.792 0c-.276-1.264-.506-1.887-.904-2.286-.399-.398-1.022-.628-2.287-.904a.405.405 0 0 1 0-.792c1.265-.276 1.888-.506 2.287-.904.398-.399.628-1.022.904-2.287a.405.405 0 0 1 .396-.318ZM72.55 51.5c.5.182.901.407 1.222.728.321.32.546.721.728 1.223.182-.502.407-.902.728-1.223.32-.321.721-.546 1.223-.728-.502-.182-.902-.407-1.223-.728-.321-.32-.546-.721-.728-1.223-.182.502-.407.902-.728 1.223-.32.321-.722.546-1.223.728Z" fill="#C4F2DD"/><path d="M114 75.5c-2.511.549-2.951.989-3.5 3.5-.549-2.511-.989-2.951-3.5-3.5 2.511-.549 2.951-.989 3.5-3.5.549 2.511.989 2.951 3.5 3.5Z" fill="#C4F2DD"/><path fill-rule="evenodd" clip-rule="evenodd" d="M110.5 71.595c.19 0 .355.133.396.319.276 1.264.506 1.887.904 2.285.399.399 1.022.629 2.286.905a.405.405 0 0 1 0 .792c-1.264.276-1.887.506-2.286.904-.398.399-.628 1.022-.904 2.286a.406.406 0 0 1-.792 0c-.276-1.264-.506-1.887-.904-2.286-.399-.398-1.022-.628-2.286-.904a.405.405 0 0 1 0-.792c1.264-.276 1.887-.506 2.286-.904.398-.399.628-1.022.904-2.287a.406.406 0 0 1 .396-.318Zm-1.951 3.905c.502.182.902.407 1.223.728.321.32.546.721.728 1.223.182-.502.407-.902.728-1.223.321-.321.721-.546 1.223-.728-.502-.182-.902-.407-1.223-.728-.321-.32-.546-.722-.728-1.223-.182.501-.407.902-.728 1.223-.321.321-.721.546-1.223.728Z" fill="#C4F2DD"/><path d="M280 3.5c-2.511.549-2.951.989-3.5 3.5-.549-2.511-.989-2.951-3.5-3.5 2.511-.549 2.951-.989 3.5-3.5.549 2.511.989 2.951 3.5 3.5Z" fill="#C4F2DD"/><path fill-rule="evenodd" clip-rule="evenodd" d="M276.5-.405c.19 0 .355.133.396.319.276 1.264.506 1.887.904 2.286.399.398 1.022.628 2.286.904a.405.405 0 0 1 0 .792c-1.264.276-1.887.506-2.286.904-.398.399-.628 1.022-.904 2.286a.406.406 0 0 1-.792 0c-.276-1.264-.506-1.887-.904-2.286-.399-.398-1.022-.628-2.286-.904a.405.405 0 0 1 0-.792c1.264-.276 1.887-.506 2.286-.904.398-.399.628-1.022.904-2.286a.406.406 0 0 1 .396-.319ZM274.549 3.5c.502.182.902.407 1.223.728.321.32.546.721.728 1.223.182-.502.407-.902.728-1.223.321-.321.721-.546 1.223-.728-.502-.182-.902-.407-1.223-.728-.321-.32-.546-.721-.728-1.223-.182.502-.407.902-.728 1.223-.321.321-.721.546-1.223.728Z" fill="#C4F2DD"/></g></svg>