<svg viewBox="0 0 120 90" fill="none" xmlns="http://www.w3.org/2000/svg"><g clip-path="url(#a)"><path d="M92.5 55.83a45.257 45.257 0 0 0-3.44-3.66c-.75 1.71-1.96 3.22-3.46 4.32-.85.62-1.8 1.11-2.82 1.35-.55.12-1.17.17-1.65-.15-.09-.06-.18-.13-.25-.21.09-.15.17-.32.25-.48-.07.14-.15.28-.24.42-.89 1.56-1.94 2.98-3.15 4.27-4.44 4.73-10.76 7.41-17.44 6.73-.98-.1-1.95-.27-2.91-.51.08.29.12.59.09.9-.12 1.44-1.51 2.17-2.74 2.21 1.21-.08 2.27-.02 3.01 1.08.59.86.66 2.31.27 3.27-1.35 3.4-4.83 3.48-7.72 2.14-3.36-1.57-5.23-3.99-6.32-7.5-1.2-3.85-.11-6.68 2.16-8.56-.68-.73-1.3-1.5-1.84-2.32-1.37-2.04-2.24-4.34-2.73-6.81-.55-2.82-.6-5.83-.28-8.92.02-.27.05-.52.1-.79.03-.32.08-.63.13-.93.13-.79.3-1.59.5-2.36.01-.04.02-.07.03-.1-.01.02-.02.05-.03.07.07-.28.15-.55.23-.83-.72-.21-1.46-.32-2.21-.32-.29 0-.57.02-.86.05-.23.03-.45.07-.68.12-.14.03-.28.07-.41.12-.15.04-.29.09-.44.16-.1.03-.2.07-.3.12-.14.07-.28.14-.41.21-.01 0-.02 0-.03.02-.26.16-.5.33-.73.53-.07.06-.14.13-.21.2a4 4 0 0 0-.38.44c-.09.13-.17.25-.24.39-.03.04-.05.08-.07.12-.05.09-.09.18-.12.28l-.06.15c-.11.31-.18.63-.23.96l-.06.59c0 .09-.01.19-.01.29-.01.22-.01.45 0 .66.14 1.05.33 2.08.59 3.08v.03c.07.26.14.52.22.78-5.99 3.5-9.64 7.9-10.27 12.44-.64 4.57-.42 11.74 9 16.15 3.85 2.03 9.23 3.69 16.64 4.86 2.59.42 5.42.76 8.51 1.04 7.63.69 13.7.78 18.56.39h.01c1.91-.17 3.64-.39 5.19-.7 8.8-2.3 14.02-6.48 14.2-14.34.12-4.74-1.79-7.68-4.95-11.45Z" stroke="#A7A7A9" stroke-width=".75" stroke-linecap="round" stroke-linejoin="round"/><path d="m42.239 38.46-.24.86c-.2.78-.38 1.56-.5 2.35-.05.3-.11.61-.14.92-.04.28-.08.58-.11.87-.31 3.09-.26 6.11.29 8.92-.49.14-1.04 0-1.52-.23-.95-.44-1.79-1.12-2.49-1.89-.95-1.04-1.67-2.28-2.14-3.6 0 0-.01-.02-.01-.03-.34-.99-.54-2.03-.58-3.08v-.66c.02-.78.13-1.58.48-2.28.71-1.42 2.31-2.23 3.89-2.42a7.58 7.58 0 0 1 3.07.26v.01Z" stroke="#A7A7A9" stroke-width=".75" stroke-linecap="round" stroke-linejoin="round"/><path d="M41.51 41.68c-.05.3-.1.62-.13.93-.13-.17-.25-.35-.38-.5-1.18-1.49-2.68-1.08-4.26-.47 1.24-1.68 3.71-1.94 4.78.04h-.01Z" fill="#A7A7A9"/><path d="M89.899 48.75v.02c-.01.36-.06.72-.12 1.07-.14.81-.39 1.59-.72 2.34-.75 1.71-1.96 3.22-3.46 4.32-.85.62-1.8 1.11-2.82 1.34-.55.13-1.17.17-1.64-.15-.1-.06-.18-.13-.25-.21.22-.37.42-.75.61-1.14.36-.72.7-1.47.99-2.23.11-.28.22-.56.3-.85.07-.14.12-.3.16-.45.25-.77.46-1.56.63-2.37.18-.85.31-1.72.41-2.6.01-.13.03-.26.03-.39.03-.3.05-.61.05-.92.05-.86.04-1.71-.02-2.57h.03c.81 0 1.6.12 2.36.39 1.52.51 2.92 1.62 3.33 3.16.11.41.15.83.14 1.25l-.01-.01Z" stroke="#A7A7A9" stroke-width=".75" stroke-linecap="round" stroke-linejoin="round"/><path d="M88.63 48.82c-1.21-1.2-2.41-2.18-4.1-1.29-.22.11-.42.22-.63.36.1-.29.17-.58.24-.88l.03-.03c1.79-1.45 3.99-.2 4.45 1.85l.01-.01Z" fill="#A7A7A9"/><path d="M91.139 35.91s-.01 0-.01-.01a.583.583 0 0 1-.13-.11c-.01 0-.01-.01-.02-.02-.06-.06-.13-.15-.21-.25-.05-.07-.11-.14-.19-.23-.04-.05-.08-.1-.13-.15-.05-.05-.1-.1-.15-.16-.06-.08-.13-.16-.2-.25-.06-.07-.12-.14-.17-.22-.03-.03-.05-.05-.07-.08-.26-.32-.51-.64-.78-.95-.08-.11-.17-.21-.26-.31-.02-.02-.04-.05-.06-.07-.05-.07-.11-.13-.17-.2-.25-.28-.49-.56-.74-.83-.03-.03-.05-.06-.09-.09a30.618 30.618 0 0 0-1.04-1.09l-.05-.05c-.31-.31-.62-.61-.94-.9-.06-.06-.12-.11-.18-.17-.35-.32-.71-.63-1.08-.94-.25-.21-.51-.42-.78-.61-.17-.16-.35-.3-.53-.42h-.01c-.18-.14-.35-.27-.53-.39-.27-.21-.55-.41-.84-.59-.07-.05-.13-.1-.2-.14-.2-.15-.41-.28-.63-.41-.14-.1-.29-.19-.43-.28-.05-.03-.09-.06-.14-.08-.12-.08-.25-.16-.38-.23a1.74 1.74 0 0 0-.18-.11c-.24-.14-.48-.28-.73-.42-.05-.02-.1-.05-.15-.08-.44-.24-.89-.48-1.36-.71-.42-.21-.86-.42-1.31-.63-.1-.05-.19-.09-.29-.14-.23-.11-.46-.21-.7-.31-.05-.02-.09-.04-.13-.06-.22-.09-.43-.18-.65-.27a63.633 63.633 0 0 0-2.97-1.15c-.64-.23-1.3-.46-1.98-.68-.68-.23-1.38-.45-2.1-.66-.36-.11-.73-.22-1.1-.33-.7-.2-1.41-.4-2.13-.58-.39-.1-.78-.2-1.17-.29-.15-.03-.3-.07-.45-.11-.21-.05-.43-.1-.65-.15-.17-.04-.35-.08-.53-.12-.52-.12-1.05-.23-1.58-.33-.73-.14-1.47-.28-2.21-.4a69.28 69.28 0 0 0-4.99-.68c-.82-.09-1.63-.15-2.42-.2-.58-.04-1.15-.07-1.71-.09h-.05c-.33-.02-.65-.03-.97-.02-.6-.02-1.2-.01-1.77 0-6.02 4.59-10.2 11.55-11.03 19.68-.24 2.29-.19 4.53.11 6.71-.01-.21-.01-.44 0-.66 0-.1.01-.2.01-.29l.06-.59c.05-.33.12-.65.23-.96l.06-.15c.03-.1.07-.19.12-.28.02-.04.04-.08.07-.12.07-.13.15-.26.24-.38.12-.17.24-.31.38-.45.07-.07.14-.14.21-.2.23-.2.47-.37.73-.53.08-.04.16-.09.25-.13.06-.04.13-.07.19-.1.1-.05.2-.09.3-.12.15-.07.29-.12.44-.16.13-.05.27-.09.41-.12.23-.05.45-.09.68-.12.29-.03.57-.05.86-.05.75 0 1.49.11 2.21.32h.08c3.33-8.58 9.99-13.27 17.09-16.27 2.22 6.62 6.39 12.33 11.85 16.27a30.124 30.124 0 0 0 4.68 2.76c.11.05.27.12.48.22.68.3 1.84.81 3.14 1.29.21.08.41.16.62.23.27.1.56.19.84.28 1.02.32 2.02.59 2.87.7l.14.02h.03c.85.09 1.38.14 1.83.24.03.01.07.01.1.02s.05.01.08.02l.18.06c.06 0 .11.03.16.05.06.02.11.03.16.06.06.01.12.04.17.06.08.03.16.07.24.1.19.08.37.17.54.27.22.12.43.25.63.41.1.06.2.14.29.24h.01c.09.08.18.17.26.26.19.17.37.38.51.61.02.02.03.05.04.07.04.05.07.11.1.16.07.11.13.24.19.37.08.17.14.36.19.55.06.17.09.36.11.54.03.24.04.47.03.7.33-.91.61-1.89.83-2.92.44-2.33.6-4.18.6-4.18.14-1.96.06-3.88-.19-5.74h.01Z" stroke="#A7A7A9" stroke-width=".75" stroke-linecap="round" stroke-linejoin="round"/><path d="M84.07 43.96h-.02l-.14-.02c-.85-.11-1.85-.38-2.87-.7-.28-.09-.57-.18-.84-.28-.21-.07-.41-.15-.62-.23-1.3-.48-2.46-.99-3.14-1.29-.21-.1-.37-.17-.48-.22a30.124 30.124 0 0 1-4.68-2.76c-5.46-3.94-9.63-9.65-11.85-16.27-7.1 3-13.76 7.69-17.09 16.28l-.28.75s-.02.06-.03.1c-.2.77-.37 1.57-.5 2.36-.05.3-.1.61-.13.92-.05.28-.08.53-.1.8-.32 3.09-.27 6.1.28 8.92.49 2.47 1.36 4.77 2.73 6.81.54.82 1.16 1.59 1.84 2.32 1.87-1.55 4.53-2.44 7.37-2.72 1.99-.19 7.28.18 6.01 3.6-.95 2.53-5.95 2.56-8.22 2.66 1.4-.06 3.11-.02 4.33.78.78.51 1.51 1.25 1.76 2.14.96.24 1.93.41 2.91.51 6.68.68 13-2 17.44-6.73 1.21-1.29 2.26-2.71 3.15-4.27.11-.17.2-.34.3-.51l.3-.57c.36-.72.7-1.47 1-2.24.11-.27.21-.56.3-.84.05-.13.1-.26.14-.39.01-.02.01-.05.02-.07.03-.09.06-.17.08-.26.19-.6.36-1.23.5-1.87.02-.08.03-.16.05-.24 0-.02.01-.05.01-.07 0-.04.02-.08.03-.12.16-.77.29-1.58.37-2.4l.01-.06c.01-.09.01-.19.02-.27v-.06c.04-.31.06-.64.07-.95.04-.85.04-1.69-.02-2.54h-.01Z" stroke="#A7A7A9" stroke-width=".75" stroke-linecap="round" stroke-linejoin="round"/><path d="M48.48 41.49a4.708 4.708 0 0 0-5.17 4.21 4.727 4.727 0 0 0 4.21 5.17c2.59.27 4.9-1.61 5.17-4.21a4.701 4.701 0 0 0-4.21-5.17Zm-2.21 2.97a.73.73 0 0 1-.7-.77c.03-.41.37-.72.78-.7.41.02.72.37.7.78a.73.73 0 0 1-.78.69ZM90.109 63.5c.72.26.93 1.21.37 1.74-.57-.44-.71-1.11-.37-1.74Zm1.621-2.09c.87.67 1.38 1.73 1.59 2.79.39 2.15-.32 4.4-1.29 6.29-.52.94-1.25 1.84-2.25 2.29.77-.74 1.27-1.63 1.65-2.57 1.03-2.78 2.06-6.08.3-8.8Zm-59.371-6c-.59 1.22-1.39 2.41-2.08 3.57-.24.39-.49.78-.76 1.17l-.05-.12v.02c.05.02.12-.03.12-.1.05.04.04.13 0 .18-.04.07-.14.11-.23.08l-.05-.02v-.1c.16-1.85 1.38-3.81 3.04-4.67l.01-.01Zm1.101 1.68c-.29.95-.83 2.17-1.19 3.09-.39.92-.85 2.15-1.31 3.04-.25-2.16.82-4.76 2.5-6.13Z" fill="#A7A7A9"/><path d="M78.57 13.95a47.925 47.925 0 0 0-5.16-3.25c-.48-.26-1.09-.56-1.79-.85.77-1.91 2.69-1.64 5.6 1.97.45.56.9 1.29 1.35 2.13Z" stroke="#A7A7A9" stroke-width=".75" stroke-linecap="round" stroke-linejoin="round"/><path d="M92.199 33.18c-.03.57 0 .72-.11 1.28v.03c-.05.26-.11.51-.18.77-.08.19-.17.36-.28.47-.22.23-.36.27-.49.18-.19-.11-.4-.48-.84-.92-.14-.18-.29-.37-.44-.55-5.47-6.89-11.59-10.84-23.51-14.29-6.79-1.97-14.6-3.12-20.63-2.97-.4 0-.79.02-1.16.04h-.33c-.44 0-.81-.16-.88-.95-.04-.37.17-.9.41-1.35 1.02-1.9 8.97-7.36 17.44-7.44 3.45-.04 7.65 1.23 10.42 2.4l.75.33c.19.1.37.18.55.27.18.09.34.17.49.25 1.82.98 3.54 2.08 5.16 3.25 4.59 3.33 8.33 7.35 10.89 11.76.02.04.04.07.06.1.11.18.21.38.31.56.13.22.24.43.36.65 1.07 2.04 1.59 2.94 1.82 4.5.01.11.03.22.04.33.04.27.17 1.02.14 1.32l.01-.02Z" stroke="#A7A7A9" stroke-width=".75" stroke-linecap="round" stroke-linejoin="round"/><path d="M92.049 31.86c-.01-.11-.03-.22-.04-.33-.24-1.56-.76-2.46-1.82-4.5-.12-.21-.24-.43-.36-.65a7.807 7.807 0 0 0-.37-.66c-.76-.18-1.3-.16-1.86-.13-1 .05-2.08.11-4.62-1.02-11.74-5.29-24.51-10.61-36.54-7.95-.75.16-1.49.36-2.23.59h.33c.38-.02.76-.03 1.16-.04 6.02-.15 13.84 1 20.63 2.97 11.92 3.45 18.04 7.4 23.51 14.29.15.18.3.37.44.55.44.44.65.81.84.92.14.09.27.04.49-.18.11-.12.2-.28.28-.47.07-.26.13-.51.18-.77v-.03c.12-.55.08-.71.11-1.28.02-.3-.1-1.05-.14-1.32l.01.01Z" fill="#A7A7A9" stroke="#A7A7A9" stroke-width=".75" stroke-linecap="round" stroke-linejoin="round"/><path d="M77.24 45.25c-2.58-.27-4.9 1.62-5.16 4.21-.28 2.58 1.61 4.9 4.2 5.17 2.6.27 4.91-1.62 5.18-4.21a4.716 4.716 0 0 0-4.22-5.17Zm-2.2 2.97a.737.737 0 0 1 .07-1.47c.41.02.72.37.7.78-.02.4-.37.72-.77.69Zm-16.896-5.615c.157-1.277-.467-2.404-1.394-2.518-.926-.114-1.804.83-1.96 2.107-.157 1.277.467 2.405 1.393 2.518.927.114 1.805-.83 1.961-2.107Zm12.805 1.646c.157-1.277-.468-2.404-1.394-2.518-.926-.114-1.804.83-1.96 2.107-.157 1.277.467 2.405 1.393 2.518.926.114 1.804-.83 1.961-2.107Z" fill="#A7A7A9"/><path d="M63.8 51.57c-2.51.25-5.82-1.4-5.82-1.4-.48-.17-1-.33-1.55-.41-.41-.06-.85-.06-1.3.03-.44.09-.89.3-1.29.62l-.04.03c-.31.27-.56.55-.75.85-.19.3-.31.63-.35.97-.03.23-.03.46 0 .68.06.39.21.74.42 1.05a3.889 3.889 0 0 0 1.22 1.15 4.83 4.83 0 0 0 1.51.6c.16.03.32.06.48.08 0 0 2.33.24 3.64.39 2.39.27 4.17.85 5.56 1.05 1.39.2 2.43-.13 2.43-.13.37-.12.74-.33 1.03-.65.14-.16.27-.34.37-.54.1-.2.18-.41.23-.64.03-.11.05-.22.06-.33.05-.34.03-.68-.04-.99-.06-.27-.17-.53-.31-.76-.25-.4-.6-.68-.95-.96-1.28-1.04-3.4-.8-4.54-.69h-.01Z" stroke="#A7A7A9" stroke-width=".75" stroke-linecap="round" stroke-linejoin="round"/><path d="M59.08 35.31a5.481 5.481 0 0 1-4.17.96l4.17-.96Z" fill="#fff"/><path d="M59.08 35.31a5.481 5.481 0 0 1-4.17.96" stroke="#A7A7A9" stroke-width=".75" stroke-linecap="round" stroke-linejoin="round"/><path d="M109.619 20.89a8.931 8.931 0 0 0-11.71 4.77c-1.62 3.84-.34 8.18 2.84 10.59l.44 3.52c.05.39.5.58.81.34l2.83-2.14c3.94.59 7.94-1.52 9.56-5.36a8.932 8.932 0 0 0-4.77-11.71v-.01Zm-4.67 12.59a.705.705 0 1 1-1.23-.69.705.705 0 0 1 1.23.69Zm5.36-4.89c-.45 1.01-1.52 1.22-2.5 1.34-.91.12-1.85.31-2.17 1.3-.22.69-1.31.39-1.09-.3.35-1.08 1.22-1.78 2.32-1.99.67-.13 1.64-.05 2.19-.52.63-.53.29-1.64-.07-2.22-.95-1.53-3.09-1.62-4.25-.29-.48.55-1.28-.25-.8-.8.79-.91 2.05-1.4 3.25-1.26 1.1.12 2.05.72 2.68 1.63.61.87.89 2.12.45 3.12l-.01-.01Zm-99.248 5.64c-4.69 1.54-7.24 6.6-5.7 11.29 1.3 3.96 5.11 6.39 9.09 6.12l2.65 2.37c.29.26.76.11.84-.27l.73-3.48c3.36-2.14 4.99-6.36 3.69-10.32-1.54-4.69-6.6-7.24-11.29-5.7l-.01-.01Zm4.2 13.39a.705.705 0 1 1-.279-1.382.705.705 0 0 1 .279 1.382Zm.52-5.54c-.62.71-1.38 1.5-.95 2.52.12.28.09.6-.2.77-.24.14-.65.08-.77-.2-.49-1.15-.24-2.25.53-3.21.4-.5 1.13-1.05 1.21-1.73.09-.81-.91-1.42-1.57-1.6-1.68-.47-3.35.8-3.35 2.55 0 .73-1.13.73-1.13 0 0-1.22.6-2.36 1.58-3.09 1.69-1.26 4.66-.73 5.47 1.35.39 1.01-.17 1.91-.82 2.64Z" fill="#A7A7A9"/></g><defs><clipPath id="a"><path fill="#fff" d="M0 0h120v90H0z"/></clipPath></defs></svg>