<svg width="50" height="50" viewBox="0 0 50 50" xmlns="http://www.w3.org/2000/svg"><g fill="none" fill-rule="evenodd"><path fill="#F58923" d="M15 30h6v7h-6z"/><g fill-rule="nonzero"><path d="M31.667 26.667H27.5v-2.5c0-1.379-1.122-2.5-2.5-2.5h-1.667a.833.833 0 0 0-.833.833v4.655l-2.012 2.012H15a.833.833 0 0 0-.833.833v7.5c0 .46.373.833.833.833h16.667a4.171 4.171 0 0 0 4.166-4.166v-3.334a4.171 4.171 0 0 0-4.166-4.166ZM20 36.667h-4.167v-5.834H20v5.834Zm14.167-2.5c0 1.378-1.122 2.5-2.5 2.5h-10v-6.322l2.255-2.256a.83.83 0 0 0 .245-.589v-4.167H25c.46 0 .833.374.833.834V27.5c0 .46.374.833.834.833h5c1.378 0 2.5 1.122 2.5 2.5v3.334Z" fill="#000"/><path d="M50 12.5V4.167A4.171 4.171 0 0 0 45.833 0h-15a4.171 4.171 0 0 0-4.166 4.167V12.5c0 .285.029.564.084.833h-3.502c.055-.269.084-.548.084-.833V4.167A4.171 4.171 0 0 0 19.167 0h-15A4.171 4.171 0 0 0 0 4.167V12.5a4.171 4.171 0 0 0 4.167 4.167v26.666H.833a.833.833 0 0 0-.833.834A5.84 5.84 0 0 0 5.833 50h38.334A5.84 5.84 0 0 0 50 44.167a.833.833 0 0 0-.833-.834h-3.334V16.667A4.171 4.171 0 0 0 50 12.5Zm-28.08 3.102c.147-.13.28-.27.407-.42.052-.06.107-.118.155-.182h5.035c.048.064.103.122.155.182a4.126 4.126 0 0 0 1.406 1.083 4.16 4.16 0 0 0 .854.297c.055.012.11.02.165.03.241.045.487.075.736.075h3.334v1.666H15.833v-1.666h3.334c.249 0 .495-.03.735-.075.055-.01.11-.017.165-.03a4.09 4.09 0 0 0 .854-.297 4.241 4.241 0 0 0 .999-.663ZM8.333 41.668h33.334c.46 0 .833-.373.833-.834V19.167a.833.833 0 0 0-.833-.834h-1.322l1.667-1.666h2.155v26.666H5.833V16.667h2.155l1.667 1.666H8.333a.833.833 0 0 0-.833.834v21.666c0 .461.373.834.833.834ZM40.833 20v20H9.167V20h2.155l3.089 3.09a.829.829 0 0 0 .247.163.807.807 0 0 0 .29.07c.018.001.035.01.052.01.01 0 .02-.005.03-.005a.808.808 0 0 0 .288-.058.833.833 0 0 0 .515-.77V20h18.334v2.5c0 .337.203.642.514.77a.8.8 0 0 0 .288.058c.011 0 .021.005.031.005.017 0 .034-.009.053-.01a.823.823 0 0 0 .21-.041c.028-.01.055-.017.08-.029a.828.828 0 0 0 .246-.163L38.68 20h2.154ZM1.667 12.5V4.167c0-1.379 1.121-2.5 2.5-2.5h15c1.378 0 2.5 1.121 2.5 2.5V12.5c0 .452-.13.87-.34 1.236l-.01.011a2.522 2.522 0 0 1-.872.89c-.037.022-.075.041-.113.061-.134.073-.275.13-.42.176-.052.017-.102.035-.155.048a2.467 2.467 0 0 1-.59.078H15a.833.833 0 0 0-.833.833v4.655l-1.911-1.91-3.334-3.334A.831.831 0 0 0 8.333 15H4.167a2.503 2.503 0 0 1-2.5-2.5ZM48.249 45a4.173 4.173 0 0 1-4.082 3.333H5.833A4.173 4.173 0 0 1 1.751 45H48.25ZM45 15h-3.333a.831.831 0 0 0-.59.244l-3.333 3.334-1.91 1.91v-4.655A.833.833 0 0 0 35 15h-4.167c-.202 0-.399-.03-.59-.078-.053-.013-.103-.031-.155-.048a2.38 2.38 0 0 1-.42-.176c-.038-.02-.076-.039-.113-.061a2.528 2.528 0 0 1-.872-.89l-.01-.011a2.473 2.473 0 0 1-.34-1.236V4.167c0-1.379 1.122-2.5 2.5-2.5h15c1.379 0 2.5 1.121 2.5 2.5V12.5c0 1.378-1.121 2.5-2.5 2.5H45Z" fill="#000"/><path fill="#000" d="M34.167 7.5h1.667v1.667h-1.667zm3.333 0h1.667v1.667H37.5zm3.333 0H42.5v1.667h-1.667z"/><path d="M16.006 5.66a2.604 2.604 0 0 0-3.678 0l-.661.662-.661-.661A2.604 2.604 0 0 0 6.565 7.5c0 .695.27 1.348.762 1.84l3.75 3.75a.831.831 0 0 0 1.179 0l3.75-3.75a2.588 2.588 0 0 0 .762-1.84c0-.695-.27-1.348-.762-1.84Z" fill="#F58923"/></g></g></svg>