<svg width="50" height="50" viewBox="0 0 50 50" xmlns="http://www.w3.org/2000/svg"><g fill="none" fill-rule="evenodd"><path d="M45.833 0h-37.5a4.171 4.171 0 0 0-4.166 4.167A4.171 4.171 0 0 0 0 8.333v37.5A4.171 4.171 0 0 0 4.167 50h37.5a4.171 4.171 0 0 0 4.166-4.167A4.171 4.171 0 0 0 50 41.667v-37.5A4.171 4.171 0 0 0 45.833 0Zm-1.666 45v.833c0 1.379-1.122 2.5-2.5 2.5h-37.5a2.503 2.503 0 0 1-2.5-2.5V12.5h42.5V45Zm0-34.167h-42.5v-2.5c0-1.378 1.121-2.5 2.5-2.5h37.5c1.378 0 2.5 1.122 2.5 2.5v2.5Zm4.166 30.834c0 1.378-1.121 2.5-2.5 2.5V8.333a4.171 4.171 0 0 0-4.166-4.166H5.833c0-1.379 1.122-2.5 2.5-2.5h37.5c1.379 0 2.5 1.121 2.5 2.5v37.5Z" fill="#000" fill-rule="nonzero"/><path fill="#000" fill-rule="nonzero" d="M3 8h1.667v1.667H3zm4 0h1.667v1.667H7zm3 0h1.667v1.667H10zm12.167 19.167h-8.334v-8.334A.833.833 0 0 0 13 18C7.486 18 3 22.486 3 28s4.486 10 10 10 10-4.486 10-10a.833.833 0 0 0-.833-.833ZM4.667 28c0-4.314 3.295-7.872 7.5-8.292v7.145L6.552 33.27A8.291 8.291 0 0 1 4.667 28ZM13 36.333c-2.547 0-4.913-1.198-6.443-3.004l1.055 1.274 5.09-5.83a.82.82 0 0 0 .298.06h8.292c-.42 4.205-3.978 7.5-8.292 7.5Z"/><path d="M16.745 15a.745.745 0 0 0-.745.745v8.197c0 .412.333.745.745.745h8.197a.745.745 0 0 0 .745-.745c0-4.93-4.01-8.942-8.942-8.942Z" fill="#F58923" fill-rule="nonzero"/><path fill="#000" fill-rule="nonzero" d="M16.5 39.833V39h-1.667v.833H4V41.5h10.833v.833H16.5V41.5h6.667v-1.667zm-5.833 4V43H9v.833H4V45.5h5v.833h1.667V45.5h12.5v-1.667zM40.5 25V15h-1.667v10H38v1.667h.833v6.666H40.5v-6.666h.833V25zm-4-5.833V15h-1.667v4.167H34v1.666h.833v12.5H36.5v-12.5h.833v-1.666zm-5 3.333V15h-1.667v7.5H29v1.667h.833v9.166H31.5v-9.166h.833V22.5z"/><path d="M26 44.414v-2.16c.966-.716 1.61-1.18 1.934-1.39.485-.315.785-.603 1.355-.446.57.158 1.75.727 2.35.942.601.216.912.044 1.364-.226.452-.27 2.297-1.65 2.618-1.896.32-.246.876-.382 1.538 0 .441.255 1.39.797 2.847 1.626v3.55H26Z" fill="#F58923"/><path d="M41.15 35c.47 0 .85.378.85.846v9.308c0 .468-.38.846-.85.846h-15.3a.847.847 0 0 1-.85-.846v-9.308c0-.468.38-.846.85-.846h15.3ZM27 37v7h13v-7H27Z" fill="#000" fill-rule="nonzero"/></g></svg>