<svg width="50" height="50" viewBox="0 0 50 50" xmlns="http://www.w3.org/2000/svg"><g fill="none" fill-rule="evenodd"><path d="M45.833 0H4.167A4.171 4.171 0 0 0 0 4.167V37.5a4.171 4.171 0 0 0 4.167 4.167H20V45h-4.167a4.171 4.171 0 0 0-4.166 4.167c0 .46.373.833.833.833h25c.46 0 .833-.373.833-.833A4.171 4.171 0 0 0 34.167 45H30v-3.333h15.833A4.171 4.171 0 0 0 50 37.5V4.167A4.171 4.171 0 0 0 45.833 0ZM34.167 46.667c1.086 0 2.013.696 2.357 1.666H13.476a2.505 2.505 0 0 1 2.357-1.666h18.334ZM21.667 45v-3.333h6.666V45h-6.666Zm26.666-7.5c0 1.378-1.121 2.5-2.5 2.5H4.167a2.503 2.503 0 0 1-2.5-2.5v-.833h46.666v.833Zm0-2.5H1.667V4.167c0-1.379 1.121-2.5 2.5-2.5h41.666c1.379 0 2.5 1.121 2.5 2.5V35Z" fill="#000" fill-rule="nonzero"/><path d="M29.167 25h-8.75c-1.547 0-2.084.576-2.084 2.031v1.354c0 1.32.299 2.032 2.084 2.032h9.166c1.638 0 2.084-.596 2.084-2.032v-1.354c0-1.464-.43-2.031-2.5-2.031Z" fill="#F58923" fill-rule="nonzero"/><path fill="#F58923" d="M8.221 18.733V8.04l15.832 10.693z"/><path d="m39.512 29.167 1.91-1.911a.833.833 0 0 0-.386-1.398l-6.667-1.666a.833.833 0 0 0-1.01 1.01l1.666 6.667a.832.832 0 0 0 1.398.387l1.91-1.911 3.578 3.578 1.178-1.179-3.577-3.577Zm-3.227.87-.972-3.891 3.89.972-2.918 2.919ZM30 14.583h13.333v1.667H30zm0 4.167h13.333v1.667H30zm0-8.333h13.333v1.667H30zm0-4.167h13.333v1.667H30zm-22.396 0h16.98c.805 0 1.458.653 1.458 1.458v11.25c0 .806-.653 1.459-1.459 1.459H7.604a1.458 1.458 0 0 1-1.458-1.459V7.708c0-.805.653-1.458 1.458-1.458Zm.625 1.77v10.626h15.73V8.02H8.228Z" fill="#000" fill-rule="nonzero"/></g></svg>