<svg width="50" height="50" viewBox="0 0 50 50" xmlns="http://www.w3.org/2000/svg"><g fill="none" fill-rule="evenodd"><path fill="#F58923" d="M48.383 45.06H38.331v-1.738h10.052z"/><path d="M49.167 10H47.5V2.5C47.5 1.122 46.378 0 45 0H35a2.503 2.503 0 0 0-2.5 2.5V10h-1.667a.833.833 0 0 0-.833.833A4.171 4.171 0 0 0 34.167 15h11.666A4.171 4.171 0 0 0 50 10.833a.833.833 0 0 0-.833-.833Zm-15-7.5c0-.46.373-.833.833-.833h10c.46 0 .833.373.833.833V10H34.167V2.5Zm11.666 10.833H34.167a2.505 2.505 0 0 1-2.358-1.666h16.382a2.505 2.505 0 0 1-2.358 1.666Z" fill="#000" fill-rule="nonzero"/><path d="M43.333 3.333h-6.666a.833.833 0 0 0-.834.834V7.5c0 .46.373.833.834.833h6.666a.833.833 0 0 0 .834-.833V4.167a.833.833 0 0 0-.834-.834ZM42.5 6.667h-5V5h5v1.667Z" fill="#F58923" fill-rule="nonzero"/><path d="m20.52 48.516-3.853-3.083v-4.6a4.171 4.171 0 0 0-4.167-4.166H4.167A4.171 4.171 0 0 0 0 40.833v5A4.171 4.171 0 0 0 4.167 50H20a.833.833 0 0 0 .52-1.484Zm-16.353-.183a2.503 2.503 0 0 1-2.5-2.5v-5c0-1.378 1.121-2.5 2.5-2.5H12.5c1.378 0 2.5 1.122 2.5 2.5v5c0 .254.115.493.313.651l2.311 1.85H4.167Z" fill="#000" fill-rule="nonzero"/><path fill="#000" fill-rule="nonzero" d="M4.167 42.5h1.667v1.667H4.167zm3.333 0h1.667v1.667H7.5zm3.333 0H12.5v1.667h-1.667zm-.886-22.79-1.922-5.16a2.495 2.495 0 0 0-1.358-4.593 2.503 2.503 0 0 0-2.5 2.5c0 .876.455 1.646 1.14 2.093l-1.922 5.16a.835.835 0 0 0 .782 1.123h5a.833.833 0 0 0 .78-1.124Zm-3.28-8.087c.46 0 .833.374.833.834a.825.825 0 0 1-.913.816.825.825 0 0 1-.754-.816c0-.46.374-.834.834-.834Zm-1.301 7.544 1.3-3.49 1.301 3.49h-2.6ZM3.596 7.914l1.142 1.213c1.064-1.003 2.794-1.003 3.858 0l1.142-1.213c-1.692-1.596-4.45-1.596-6.142 0Z"/><path d="m1.91 5.287 1.18 1.179a5.004 5.004 0 0 1 7.07 0l1.178-1.179a6.674 6.674 0 0 0-9.427 0Z" fill="#000" fill-rule="nonzero"/><path d="M6.607 0C4.16 0 1.857.954.125 2.688l1.178 1.178a7.454 7.454 0 0 1 5.304-2.2c2.003 0 3.886.781 5.304 2.2l1.178-1.179A9.108 9.108 0 0 0 6.607 0Zm42.56 38.333H37.5a.833.833 0 0 0-.833.834v10c0 .46.372.833.833.833h11.667c.46 0 .833-.373.833-.833v-10a.833.833 0 0 0-.833-.834Zm-.834 10h-10v-1.666h10v1.666Zm0-3.333h-10v-1.667h10V45Zm0-3.333h-10V40h10v1.667Z" fill="#000" fill-rule="nonzero"/><path d="M22.5 20.833a3.337 3.337 0 0 0-3.333 3.334A3.337 3.337 0 0 0 22.5 27.5a3.337 3.337 0 0 0 3.333-3.333 3.337 3.337 0 0 0-3.333-3.334Zm0 5a1.668 1.668 0 0 1 0-3.333c.92 0 1.667.747 1.667 1.667 0 .919-.748 1.666-1.667 1.666Z" fill="#F58923" fill-rule="nonzero"/><path d="M29.167 21.667h-.487c-.014-.035-.027-.069-.043-.102l.345-.344a.831.831 0 0 0 0-1.178l-2.358-2.358a.858.858 0 0 0-1.178 0l-.344.344-.102-.042V17.5a.833.833 0 0 0-.833-.833h-3.334A.833.833 0 0 0 20 17.5v.487l-.102.042-.344-.344a.831.831 0 0 0-1.178 0l-2.358 2.358a.833.833 0 0 0 0 1.178l.345.344a2.405 2.405 0 0 0-.043.102h-.487A.833.833 0 0 0 15 22.5v3.333c0 .461.373.834.833.834h.487c.014.034.027.068.043.101l-.345.345a.831.831 0 0 0 0 1.178l2.358 2.357a.858.858 0 0 0 1.178 0l.344-.344.102.043v.486c0 .461.372.834.833.834h3.334c.46 0 .833-.373.833-.834v-.486l.102-.043.344.344a.831.831 0 0 0 1.178 0l2.358-2.357a.833.833 0 0 0 0-1.178l-.345-.345.043-.101h.487c.46 0 .833-.373.833-.834V22.5a.833.833 0 0 0-.833-.833ZM28.333 25h-.245a.833.833 0 0 0-.798.595c-.102.34-.232.658-.39.95a.834.834 0 0 0 .143.987l.17.17-1.178 1.179-.17-.171a.837.837 0 0 0-.988-.143c-.291.157-.61.289-.95.39a.831.831 0 0 0-.594.798V30h-1.666v-.245a.833.833 0 0 0-.595-.798 4.973 4.973 0 0 1-.95-.391.835.835 0 0 0-.987.143l-.17.171-1.18-1.178.172-.171a.836.836 0 0 0 .143-.988 4.842 4.842 0 0 1-.39-.949.831.831 0 0 0-.798-.594h-.245v-1.667h.245a.833.833 0 0 0 .798-.595c.102-.339.232-.658.39-.949a.834.834 0 0 0-.143-.987l-.17-.171 1.178-1.178.17.17c.262.262.665.32.988.144.291-.158.61-.29.95-.391a.831.831 0 0 0 .594-.798v-.245h1.666v.245c0 .369.242.694.595.799.34.101.659.232.95.39a.835.835 0 0 0 .987-.143l.17-.17 1.18 1.178-.172.17a.835.835 0 0 0-.143.988c.158.29.29.61.39.95.105.352.43.593.798.593h.245V25Z" fill="#F58923" fill-rule="nonzero"/><path fill="#000" fill-rule="nonzero" d="M15 4.167h1.667v1.667H15zm3.333 0H20v1.667h-1.667zm3.334 0h1.667v1.667h-1.667zm3.333 0h1.667v1.667H25zm3.333 0H30v1.667h-1.667zM46.667 17.5h1.667v1.667h-1.667zm0 3.333h1.667V22.5h-1.667zm0 13.334h1.667v1.667h-1.667zM32.5 43.333h1.667V45H32.5zm-3.333 0h1.667V45h-1.667zm-3.334 0H27.5V45h-1.667zm-3.333 0h1.667V45H22.5zm-3.333 0h1.667V45h-1.667zm-17.5-10h1.667V35H1.667zm0-3.333h1.667v1.667H1.667zm0-3.333h1.667v1.667H1.667zm0-3.334h1.667V25H1.667zm45 7.5h1.667V32.5h-1.667zm0-3.333h1.667v1.667h-1.667zm0-3.333h1.667v1.667h-1.667zm-8.334-2.5a4.963 4.963 0 0 0-4.162-4.916c-1-.2-2.032-.041-2.937.389A9.954 9.954 0 0 0 21.667 10c-5.515 0-10 4.486-10 10 0 .558.047 1.116.141 1.668C8.084 21.596 5 24.61 5 28.333A6.674 6.674 0 0 0 11.667 35h27.5a.74.74 0 0 0 .394-.12C42.68 34.296 45 31.532 45 28.332a6.674 6.674 0 0 0-6.667-6.666Zm.705 11.61a.675.675 0 0 0-.188.056H11.667c-2.758 0-5-2.242-5-5 0-2.757 2.242-5 5-5a5 5 0 0 1 1.047.113.834.834 0 0 0 .972-1.054A8.369 8.369 0 0 1 13.333 20c0-4.595 3.739-8.333 8.334-8.333 4.073 0 7.52 2.92 8.199 6.944a.835.835 0 0 0 1.354.502 3.283 3.283 0 0 1 2.113-.78c.17 0 .34.018.539.057a3.313 3.313 0 0 1 2.795 3.277c0 .229-.03.471-.09.74a.831.831 0 0 0 .954 1.005 4.64 4.64 0 0 1 .802-.079c2.758 0 5 2.243 5 5a5.017 5.017 0 0 1-4.295 4.945Z"/></g></svg>