<svg viewBox="0 0 120 90" fill="none" xmlns="http://www.w3.org/2000/svg">
<g clip-path="url(#clip0_2349_1160)">
<path d="M92.4995 55.83C91.4495 54.58 90.2895 53.34 89.0595 52.17C88.3095 53.88 87.0995 55.39 85.5995 56.49C84.7495 57.11 83.7995 57.6 82.7795 57.84C82.2295 57.96 81.6095 58.01 81.1295 57.69C81.0395 57.63 80.9495 57.56 80.8795 57.48C80.9695 57.33 81.0495 57.16 81.1295 57C81.0595 57.14 80.9795 57.28 80.8895 57.42C79.9995 58.98 78.9495 60.4 77.7395 61.69C73.2995 66.42 66.9795 69.1 60.2995 68.42C59.3195 68.32 58.3495 68.15 57.3895 67.91C57.4695 68.2 57.5095 68.5 57.4795 68.81C57.3595 70.25 55.9695 70.98 54.7395 71.02C55.9495 70.94 57.0095 71 57.7495 72.1C58.3395 72.96 58.4095 74.41 58.0195 75.37C56.6695 78.77 53.1895 78.85 50.2995 77.51C46.9395 75.94 45.0695 73.52 43.9795 70.01C42.7795 66.16 43.8695 63.33 46.1395 61.45C45.4595 60.72 44.8395 59.95 44.2995 59.13C42.9295 57.09 42.0595 54.79 41.5695 52.32C41.0195 49.5 40.9695 46.49 41.2895 43.4C41.3095 43.13 41.3395 42.88 41.3895 42.61C41.4195 42.29 41.4695 41.98 41.5195 41.68C41.6495 40.89 41.8195 40.09 42.0195 39.32C42.0295 39.28 42.0395 39.25 42.0495 39.22C42.0395 39.24 42.0295 39.27 42.0195 39.29C42.0895 39.01 42.1695 38.74 42.2495 38.46C41.5295 38.25 40.7895 38.14 40.0395 38.14C39.7495 38.14 39.4695 38.16 39.1795 38.19C38.9495 38.22 38.7295 38.26 38.4995 38.31C38.3595 38.34 38.2195 38.38 38.0895 38.43C37.9395 38.47 37.7995 38.52 37.6495 38.59C37.5495 38.62 37.4495 38.66 37.3495 38.71C37.2095 38.78 37.0695 38.85 36.9395 38.92C36.9295 38.92 36.9195 38.92 36.9095 38.94C36.6495 39.1 36.4095 39.27 36.1795 39.47C36.1095 39.53 36.0395 39.6 35.9695 39.67C35.8295 39.81 35.7095 39.95 35.5895 40.11C35.4995 40.24 35.4195 40.36 35.3495 40.5C35.3195 40.54 35.2995 40.58 35.2795 40.62C35.2295 40.71 35.1895 40.8 35.1595 40.9C35.1395 40.95 35.1195 41 35.0995 41.05C34.9895 41.36 34.9195 41.68 34.8695 42.01C34.8495 42.21 34.8295 42.4 34.8095 42.6C34.8095 42.69 34.7995 42.79 34.7995 42.89C34.7895 43.11 34.7895 43.34 34.7995 43.55C34.9395 44.6 35.1295 45.63 35.3895 46.63V46.66C35.4595 46.92 35.5295 47.18 35.6095 47.44C29.6195 50.94 25.9695 55.34 25.3395 59.88C24.6995 64.45 24.9195 71.62 34.3395 76.03C38.1895 78.06 43.5695 79.72 50.9795 80.89C53.5695 81.31 56.3995 81.65 59.4895 81.93C67.1195 82.62 73.1895 82.71 78.0495 82.32H78.0595C79.9695 82.15 81.6995 81.93 83.2495 81.62C92.0495 79.32 97.2695 75.14 97.4495 67.28C97.5695 62.54 95.6595 59.6 92.4995 55.83Z" stroke="#A7A7A9" stroke-width="0.75" stroke-linecap="round" stroke-linejoin="round"/>
<path d="M42.2388 38.46C42.1588 38.75 42.0788 39.03 41.9988 39.32C41.7988 40.1 41.6188 40.88 41.4988 41.67C41.4488 41.97 41.3888 42.28 41.3588 42.59C41.3188 42.87 41.2788 43.17 41.2488 43.46C40.9388 46.55 40.9888 49.57 41.5388 52.38C41.0488 52.52 40.4988 52.38 40.0188 52.15C39.0688 51.71 38.2288 51.03 37.5288 50.26C36.5788 49.22 35.8588 47.98 35.3888 46.66C35.3888 46.66 35.3788 46.64 35.3788 46.63C35.0388 45.64 34.8388 44.6 34.7988 43.55C34.7988 43.33 34.7988 43.11 34.7988 42.89C34.8188 42.11 34.9288 41.31 35.2788 40.61C35.9888 39.19 37.5888 38.38 39.1688 38.19C40.1988 38.06 41.2488 38.16 42.2388 38.45V38.46Z" stroke="#A7A7A9" stroke-width="0.75" stroke-linecap="round" stroke-linejoin="round"/>
<path d="M41.5102 41.68C41.4602 41.98 41.4102 42.3 41.3802 42.61C41.2502 42.44 41.1302 42.26 41.0002 42.11C39.8202 40.62 38.3202 41.03 36.7402 41.64C37.9802 39.96 40.4502 39.7 41.5202 41.68H41.5102Z" fill="#A7A7A9"/>
<path d="M89.8987 48.75V48.77C89.8887 49.13 89.8387 49.49 89.7787 49.84C89.6387 50.65 89.3887 51.43 89.0587 52.18C88.3087 53.89 87.0987 55.4 85.5987 56.5C84.7487 57.12 83.7987 57.61 82.7787 57.84C82.2287 57.97 81.6087 58.01 81.1387 57.69C81.0387 57.63 80.9587 57.56 80.8887 57.48C81.1087 57.11 81.3087 56.73 81.4987 56.34C81.8587 55.62 82.1987 54.87 82.4887 54.11C82.5987 53.83 82.7087 53.55 82.7887 53.26C82.8587 53.12 82.9087 52.96 82.9487 52.81C83.1987 52.04 83.4087 51.25 83.5787 50.44C83.7587 49.59 83.8887 48.72 83.9887 47.84C83.9987 47.71 84.0187 47.58 84.0187 47.45C84.0487 47.15 84.0687 46.84 84.0687 46.53C84.1187 45.67 84.1087 44.82 84.0487 43.96H84.0787C84.8887 43.96 85.6787 44.08 86.4387 44.35C87.9587 44.86 89.3587 45.97 89.7687 47.51C89.8787 47.92 89.9187 48.34 89.9087 48.76L89.8987 48.75Z" stroke="#A7A7A9" stroke-width="0.75" stroke-linecap="round" stroke-linejoin="round"/>
<path d="M88.6304 48.82C87.4204 47.62 86.2204 46.64 84.5304 47.53C84.3104 47.64 84.1104 47.75 83.9004 47.89C84.0004 47.6 84.0704 47.31 84.1404 47.01C84.1404 47.01 84.1604 46.99 84.1704 46.98C85.9604 45.53 88.1604 46.78 88.6204 48.83L88.6304 48.82Z" fill="#A7A7A9"/>
<path d="M91.139 35.91C91.139 35.91 91.129 35.91 91.129 35.9C91.089 35.88 91.049 35.84 90.999 35.79C90.989 35.79 90.989 35.78 90.979 35.77C90.919 35.71 90.849 35.62 90.769 35.52C90.719 35.45 90.659 35.38 90.579 35.29C90.539 35.24 90.499 35.19 90.449 35.14C90.399 35.09 90.349 35.04 90.299 34.98C90.239 34.9 90.169 34.82 90.099 34.73C90.039 34.66 89.979 34.59 89.929 34.51C89.899 34.48 89.879 34.46 89.859 34.43C89.599 34.11 89.349 33.79 89.079 33.48C88.999 33.37 88.909 33.27 88.819 33.17C88.799 33.15 88.779 33.12 88.759 33.1C88.709 33.03 88.649 32.97 88.589 32.9C88.339 32.62 88.099 32.34 87.849 32.07C87.819 32.04 87.799 32.01 87.759 31.98C87.739 31.95 87.709 31.92 87.689 31.9C87.379 31.56 87.049 31.22 86.719 30.89C86.699 30.87 86.679 30.85 86.669 30.84C86.359 30.53 86.049 30.23 85.729 29.94C85.669 29.88 85.609 29.83 85.549 29.77C85.199 29.45 84.839 29.14 84.469 28.83C84.219 28.62 83.959 28.41 83.689 28.22C83.519 28.06 83.339 27.92 83.159 27.8H83.149C82.969 27.66 82.799 27.53 82.619 27.41C82.349 27.2 82.069 27 81.779 26.82C81.709 26.77 81.649 26.72 81.579 26.68C81.379 26.53 81.169 26.4 80.949 26.27C80.809 26.17 80.659 26.08 80.519 25.99C80.469 25.96 80.429 25.93 80.379 25.91C80.259 25.83 80.129 25.75 79.999 25.68C79.939 25.64 79.879 25.6 79.819 25.57C79.579 25.43 79.339 25.29 79.089 25.15C79.039 25.13 78.989 25.1 78.939 25.07C78.499 24.83 78.049 24.59 77.579 24.36C77.159 24.15 76.719 23.94 76.269 23.73C76.169 23.68 76.079 23.64 75.979 23.59C75.749 23.48 75.519 23.38 75.279 23.28C75.229 23.26 75.189 23.24 75.149 23.22C74.929 23.13 74.719 23.04 74.499 22.95C74.139 22.8 73.769 22.65 73.389 22.5C72.789 22.26 72.169 22.03 71.529 21.8C70.889 21.57 70.229 21.34 69.549 21.12C68.869 20.89 68.169 20.67 67.449 20.46C67.089 20.35 66.719 20.24 66.349 20.13C65.649 19.93 64.939 19.73 64.219 19.55C63.829 19.45 63.439 19.35 63.049 19.26C62.899 19.23 62.749 19.19 62.599 19.15C62.389 19.1 62.169 19.05 61.949 19C61.779 18.96 61.599 18.92 61.419 18.88C60.899 18.76 60.369 18.65 59.839 18.55C59.109 18.41 58.369 18.27 57.629 18.15C55.949 17.86 54.269 17.63 52.639 17.47C51.819 17.38 51.009 17.32 50.219 17.27C49.639 17.23 49.069 17.2 48.509 17.18H48.459C48.129 17.16 47.809 17.15 47.489 17.16C46.889 17.14 46.289 17.15 45.719 17.16C39.699 21.75 35.519 28.71 34.689 36.84C34.449 39.13 34.499 41.37 34.799 43.55C34.789 43.34 34.789 43.11 34.799 42.89C34.799 42.79 34.809 42.69 34.809 42.6C34.829 42.4 34.849 42.21 34.869 42.01C34.919 41.68 34.989 41.36 35.099 41.05C35.119 41 35.139 40.95 35.159 40.9C35.189 40.8 35.229 40.71 35.279 40.62C35.299 40.58 35.319 40.54 35.349 40.5C35.419 40.37 35.499 40.24 35.589 40.12C35.709 39.95 35.829 39.81 35.969 39.67C36.039 39.6 36.109 39.53 36.179 39.47C36.409 39.27 36.649 39.1 36.909 38.94C36.989 38.9 37.069 38.85 37.159 38.81C37.219 38.77 37.289 38.74 37.349 38.71C37.449 38.66 37.549 38.62 37.649 38.59C37.799 38.52 37.939 38.47 38.089 38.43C38.219 38.38 38.359 38.34 38.499 38.31C38.729 38.26 38.949 38.22 39.179 38.19C39.469 38.16 39.749 38.14 40.039 38.14C40.789 38.14 41.529 38.25 42.249 38.46H42.329C45.659 29.88 52.319 25.19 59.419 22.19C61.639 28.81 65.809 34.52 71.269 38.46C72.699 39.49 74.219 40.39 75.819 41.16C75.819 41.16 75.869 41.19 75.949 41.22C76.059 41.27 76.219 41.34 76.429 41.44C77.109 41.74 78.269 42.25 79.569 42.73C79.779 42.81 79.979 42.89 80.189 42.96C80.459 43.06 80.749 43.15 81.029 43.24C82.049 43.56 83.049 43.83 83.899 43.94L84.039 43.96H84.069C84.919 44.05 85.449 44.1 85.899 44.2C85.929 44.21 85.969 44.21 85.999 44.22C86.029 44.23 86.049 44.23 86.079 44.24C86.139 44.26 86.199 44.28 86.259 44.3C86.319 44.3 86.369 44.33 86.419 44.35C86.479 44.37 86.529 44.38 86.579 44.41C86.639 44.42 86.699 44.45 86.749 44.47C86.829 44.5 86.909 44.54 86.989 44.57C87.179 44.65 87.359 44.74 87.529 44.84C87.749 44.96 87.959 45.09 88.159 45.25C88.259 45.31 88.359 45.39 88.449 45.49H88.459C88.549 45.57 88.639 45.66 88.719 45.75C88.909 45.92 89.089 46.13 89.229 46.36C89.249 46.38 89.259 46.41 89.269 46.43C89.309 46.48 89.339 46.54 89.369 46.59C89.439 46.7 89.499 46.83 89.559 46.96C89.639 47.13 89.699 47.32 89.749 47.51C89.809 47.68 89.839 47.87 89.859 48.05C89.889 48.29 89.899 48.52 89.889 48.75C90.219 47.84 90.499 46.86 90.719 45.83C91.159 43.5 91.319 41.65 91.319 41.65C91.459 39.69 91.379 37.77 91.129 35.91H91.139Z" stroke="#A7A7A9" stroke-width="0.75" stroke-linecap="round" stroke-linejoin="round"/>
<path d="M84.0697 43.96H84.0497L83.9097 43.94C83.0597 43.83 82.0597 43.56 81.0397 43.24C80.7597 43.15 80.4697 43.06 80.1997 42.96C79.9897 42.89 79.7897 42.81 79.5797 42.73C78.2797 42.25 77.1197 41.74 76.4397 41.44C76.2297 41.34 76.0697 41.27 75.9597 41.22C75.8797 41.19 75.8297 41.16 75.8297 41.16C74.2297 40.39 72.7097 39.49 71.2797 38.46C65.8197 34.52 61.6497 28.81 59.4297 22.19C52.3297 25.19 45.6697 29.88 42.3397 38.47L42.0597 39.22C42.0597 39.22 42.0397 39.28 42.0297 39.32C41.8297 40.09 41.6597 40.89 41.5297 41.68C41.4797 41.98 41.4297 42.29 41.3997 42.6C41.3497 42.88 41.3197 43.13 41.2997 43.4C40.9797 46.49 41.0297 49.5 41.5797 52.32C42.0697 54.79 42.9397 57.09 44.3097 59.13C44.8497 59.95 45.4697 60.72 46.1497 61.45C48.0197 59.9 50.6797 59.01 53.5197 58.73C55.5097 58.54 60.7997 58.91 59.5297 62.33C58.5797 64.86 53.5797 64.89 51.3097 64.99C52.7097 64.93 54.4197 64.97 55.6397 65.77C56.4197 66.28 57.1497 67.02 57.3997 67.91C58.3597 68.15 59.3297 68.32 60.3097 68.42C66.9897 69.1 73.3097 66.42 77.7497 61.69C78.9597 60.4 80.0097 58.98 80.8997 57.42C81.0097 57.25 81.0997 57.08 81.1997 56.91C81.2997 56.72 81.3997 56.53 81.4997 56.34C81.8597 55.62 82.1997 54.87 82.4997 54.1C82.6097 53.83 82.7097 53.54 82.7997 53.26C82.8497 53.13 82.8997 53 82.9397 52.87C82.9497 52.85 82.9497 52.82 82.9597 52.8C82.9897 52.71 83.0197 52.63 83.0397 52.54C83.2297 51.94 83.3997 51.31 83.5397 50.67C83.5597 50.59 83.5697 50.51 83.5897 50.43C83.5897 50.41 83.5997 50.38 83.5997 50.36C83.5997 50.32 83.6197 50.28 83.6297 50.24C83.7897 49.47 83.9197 48.66 83.9997 47.84L84.0097 47.78C84.0197 47.69 84.0197 47.59 84.0297 47.51V47.45C84.0697 47.14 84.0897 46.81 84.0997 46.5C84.1397 45.65 84.1397 44.81 84.0797 43.96H84.0697Z" stroke="#A7A7A9" stroke-width="0.75" stroke-linecap="round" stroke-linejoin="round"/>
<path d="M48.4792 41.49C45.8892 41.22 43.5692 43.11 43.3092 45.7C43.0492 48.28 44.9292 50.6 47.5192 50.87C50.1092 51.14 52.4192 49.26 52.6892 46.66C52.9592 44.07 51.0792 41.75 48.4792 41.49ZM46.2692 44.46C45.8592 44.44 45.5492 44.1 45.5692 43.69C45.5992 43.28 45.9392 42.97 46.3492 42.99C46.7592 43.01 47.0692 43.36 47.0492 43.77C47.0192 44.18 46.6792 44.49 46.2692 44.46Z" fill="#A7A7A9"/>
<path d="M90.1087 63.5C90.8287 63.76 91.0387 64.71 90.4787 65.24C89.9087 64.8 89.7687 64.13 90.1087 63.5Z" fill="#A7A7A9"/>
<path d="M91.7293 61.41C92.5993 62.08 93.1093 63.14 93.3193 64.2C93.7093 66.35 92.9993 68.6 92.0293 70.49C91.5093 71.43 90.7793 72.33 89.7793 72.78C90.5493 72.04 91.0493 71.15 91.4293 70.21C92.4593 67.43 93.4893 64.13 91.7293 61.41Z" fill="#A7A7A9"/>
<path d="M32.3586 55.41C31.7686 56.63 30.9686 57.82 30.2786 58.98C30.0386 59.37 29.7886 59.76 29.5186 60.15L29.4686 60.03V60.05C29.5186 60.07 29.5886 60.02 29.5886 59.95C29.6386 59.99 29.6286 60.08 29.5886 60.13C29.5486 60.2 29.4486 60.24 29.3586 60.21L29.3086 60.19V60.09C29.4686 58.24 30.6886 56.28 32.3486 55.42L32.3586 55.41Z" fill="#A7A7A9"/>
<path d="M33.46 57.09C33.17 58.04 32.63 59.26 32.27 60.18C31.88 61.1 31.42 62.33 30.96 63.22C30.71 61.06 31.78 58.46 33.46 57.09Z" fill="#A7A7A9"/>
<path d="M78.5691 13.95C76.9491 12.78 75.2291 11.69 73.4091 10.7C72.9291 10.44 72.3191 10.14 71.6191 9.85C72.3891 7.94 74.3091 8.21 77.2191 11.82C77.6691 12.38 78.1191 13.11 78.5691 13.95Z" stroke="#A7A7A9" stroke-width="0.75" stroke-linecap="round" stroke-linejoin="round"/>
<path d="M92.1987 33.18C92.1687 33.75 92.1987 33.9 92.0887 34.46V34.49C92.0387 34.75 91.9787 35 91.9087 35.26C91.8287 35.45 91.7387 35.62 91.6287 35.73C91.4087 35.96 91.2687 36 91.1387 35.91C90.9487 35.8 90.7387 35.43 90.2987 34.99C90.1587 34.81 90.0087 34.62 89.8587 34.44C84.3887 27.55 78.2687 23.6 66.3487 20.15C59.5587 18.18 51.7487 17.03 45.7187 17.18C45.3187 17.18 44.9287 17.2 44.5587 17.22C44.4587 17.22 44.3487 17.22 44.2587 17.22C44.2587 17.22 44.2387 17.22 44.2287 17.22C43.7887 17.22 43.4187 17.06 43.3487 16.27C43.3087 15.9 43.5187 15.37 43.7587 14.92C44.7787 13.02 52.7287 7.55999 61.1987 7.47999C64.6487 7.43999 68.8487 8.70999 71.6187 9.87999L72.3687 10.21C72.5587 10.31 72.7387 10.39 72.9187 10.48C73.0987 10.57 73.2587 10.65 73.4087 10.73C75.2287 11.71 76.9487 12.81 78.5687 13.98C83.1587 17.31 86.8987 21.33 89.4587 25.74C89.4787 25.78 89.4987 25.81 89.5187 25.84C89.6287 26.02 89.7287 26.22 89.8287 26.4C89.9587 26.62 90.0687 26.83 90.1887 27.05C91.2587 29.09 91.7787 29.99 92.0087 31.55C92.0187 31.66 92.0387 31.77 92.0487 31.88C92.0887 32.15 92.2187 32.9 92.1887 33.2L92.1987 33.18Z" stroke="#A7A7A9" stroke-width="0.75" stroke-linecap="round" stroke-linejoin="round"/>
<path d="M92.049 31.86C92.039 31.75 92.019 31.64 92.009 31.53C91.769 29.97 91.249 29.07 90.189 27.03C90.069 26.82 89.949 26.6 89.829 26.38C89.739 26.2 89.629 26 89.519 25.82C89.499 25.79 89.479 25.76 89.459 25.72C88.699 25.54 88.159 25.56 87.599 25.59C86.599 25.64 85.519 25.7 82.979 24.57C71.239 19.28 58.469 13.96 46.439 16.62C45.689 16.78 44.949 16.98 44.209 17.21C44.209 17.21 44.229 17.21 44.239 17.21C44.329 17.21 44.439 17.21 44.539 17.21C44.919 17.19 45.299 17.18 45.699 17.17C51.719 17.02 59.539 18.17 66.329 20.14C78.249 23.59 84.369 27.54 89.839 34.43C89.989 34.61 90.139 34.8 90.279 34.98C90.719 35.42 90.929 35.79 91.119 35.9C91.259 35.99 91.389 35.94 91.609 35.72C91.719 35.6 91.809 35.44 91.889 35.25C91.959 34.99 92.019 34.74 92.069 34.48V34.45C92.189 33.9 92.149 33.74 92.179 33.17C92.199 32.87 92.079 32.12 92.039 31.85L92.049 31.86Z" fill="#A7A7A9" stroke="#A7A7A9" stroke-width="0.75" stroke-linecap="round" stroke-linejoin="round"/>
<path d="M77.2402 45.25C74.6602 44.98 72.3402 46.87 72.0802 49.46C71.8002 52.04 73.6902 54.36 76.2802 54.63C78.8802 54.9 81.1902 53.01 81.4602 50.42C81.7202 47.83 79.8402 45.51 77.2402 45.25ZM75.0402 48.22C74.6302 48.2 74.3202 47.85 74.3402 47.45C74.3602 47.04 74.7002 46.73 75.1102 46.75C75.5202 46.77 75.8302 47.12 75.8102 47.53C75.7902 47.93 75.4402 48.25 75.0402 48.22Z" fill="#A7A7A9"/>
<path d="M58.1443 42.6053C58.3009 41.328 57.6768 40.2005 56.7504 40.087C55.824 39.9734 54.946 40.9167 54.7894 42.194C54.6328 43.4712 55.2569 44.5987 56.1833 44.7123C57.1097 44.8259 57.9877 43.8826 58.1443 42.6053Z" fill="#A7A7A9"/>
<path d="M70.949 44.2512C71.1056 42.974 70.4815 41.8465 69.5551 41.7329C68.6287 41.6193 67.7507 42.5627 67.5941 43.8399C67.4375 45.1172 68.0616 46.2447 68.988 46.3583C69.9144 46.4718 70.7924 45.5285 70.949 44.2512Z" fill="#A7A7A9"/>
<path d="M63.8002 51.57C61.2902 51.82 57.9802 50.17 57.9802 50.17C57.5002 50 56.9802 49.84 56.4302 49.76C56.0202 49.7 55.5802 49.7 55.1302 49.79C54.6902 49.88 54.2402 50.09 53.8402 50.41L53.8002 50.44C53.4902 50.71 53.2402 50.99 53.0502 51.29C52.8602 51.59 52.7402 51.92 52.7002 52.26C52.6702 52.49 52.6702 52.72 52.7002 52.94C52.7602 53.33 52.9102 53.68 53.1202 53.99C53.4302 54.45 53.8402 54.83 54.3102 55.12C54.3102 55.12 54.3302 55.13 54.3402 55.14C54.5802 55.29 54.8402 55.42 55.1102 55.52C55.3502 55.61 55.6002 55.69 55.8502 55.74C56.0102 55.77 56.1702 55.8 56.3302 55.82C56.3302 55.82 58.6602 56.06 59.9702 56.21C62.3602 56.48 64.1402 57.06 65.5302 57.26C66.9202 57.46 67.9602 57.13 67.9602 57.13C68.3302 57.01 68.7002 56.8 68.9902 56.48C69.1302 56.32 69.2602 56.14 69.3602 55.94C69.4602 55.74 69.5402 55.53 69.5902 55.3C69.6202 55.19 69.6402 55.08 69.6502 54.97C69.7002 54.63 69.6802 54.29 69.6102 53.98C69.5502 53.71 69.4402 53.45 69.3002 53.22C69.0502 52.82 68.7002 52.54 68.3502 52.26C67.0702 51.22 64.9502 51.46 63.8102 51.57H63.8002Z" stroke="#A7A7A9" stroke-width="0.75" stroke-linecap="round" stroke-linejoin="round"/>
<path d="M59.0802 35.31C57.9002 36.18 56.3502 36.53 54.9102 36.27L59.0802 35.31Z" fill="white"/>
<path d="M59.0802 35.31C57.9002 36.18 56.3502 36.53 54.9102 36.27" stroke="#A7A7A9" stroke-width="0.75" stroke-linecap="round" stroke-linejoin="round"/>
<path d="M109.619 20.89C105.069 18.97 99.8293 21.1 97.9093 25.66C96.2893 29.5 97.5693 33.84 100.749 36.25L101.189 39.77C101.239 40.16 101.689 40.35 101.999 40.11L104.829 37.97C108.769 38.56 112.769 36.45 114.389 32.61C116.309 28.06 114.179 22.82 109.619 20.9V20.89ZM104.949 33.48C104.759 33.82 104.329 33.94 103.989 33.75C103.649 33.56 103.529 33.13 103.719 32.79C103.909 32.45 104.339 32.33 104.679 32.52C105.019 32.71 105.139 33.14 104.949 33.48ZM110.309 28.59C109.859 29.6 108.789 29.81 107.809 29.93C106.899 30.05 105.959 30.24 105.639 31.23C105.419 31.92 104.329 31.62 104.549 30.93C104.899 29.85 105.769 29.15 106.869 28.94C107.539 28.81 108.509 28.89 109.059 28.42C109.689 27.89 109.349 26.78 108.989 26.2C108.039 24.67 105.899 24.58 104.739 25.91C104.259 26.46 103.459 25.66 103.939 25.11C104.729 24.2 105.989 23.71 107.189 23.85C108.289 23.97 109.239 24.57 109.869 25.48C110.479 26.35 110.759 27.6 110.319 28.6L110.309 28.59Z" fill="#A7A7A9"/>
<path d="M11.061 34.23C6.37098 35.77 3.82098 40.83 5.36097 45.52C6.66097 49.48 10.471 51.91 14.451 51.64L17.101 54.01C17.391 54.27 17.861 54.12 17.941 53.74L18.671 50.26C22.031 48.12 23.661 43.9 22.361 39.94C20.821 35.25 15.761 32.7 11.071 34.24L11.061 34.23ZM15.261 47.62C14.881 47.7 14.511 47.45 14.431 47.07C14.351 46.69 14.601 46.32 14.981 46.24C15.361 46.16 15.731 46.41 15.811 46.79C15.891 47.17 15.641 47.54 15.261 47.62ZM15.781 42.08C15.161 42.79 14.401 43.58 14.831 44.6C14.951 44.88 14.921 45.2 14.631 45.37C14.391 45.51 13.981 45.45 13.861 45.17C13.371 44.02 13.621 42.92 14.391 41.96C14.791 41.46 15.521 40.91 15.601 40.23C15.691 39.42 14.691 38.81 14.031 38.63C12.351 38.16 10.681 39.43 10.681 41.18C10.681 41.91 9.55097 41.91 9.55097 41.18C9.55097 39.96 10.151 38.82 11.131 38.09C12.821 36.83 15.791 37.36 16.601 39.44C16.991 40.45 16.431 41.35 15.781 42.08Z" fill="#A7A7A9"/>
</g>
<defs>
<clipPath id="clip0_2349_1160">
<rect width="120" height="90" fill="white"/>
</clipPath>
</defs>
</svg>
