<svg width="100%" height="100%" viewBox="0 0 40 40" fill="none" xmlns="http://www.w3.org/2000/svg">
<path d="M20 0C33.3353 0 40 6.66471 40 20C40 33.3353 33.3353 40 20 40C6.66471 40 0 33.3353 0 20C0 6.66471 6.66471 0 20 0Z" fill="#FFB3B9"/>
<path d="M7.76367 26.93C7.76367 18.8332 13.1839 10.063 23.63 8.37185C23.63 8.37185 26.7582 7.81305 28.2674 8.40421C28.8338 8.58067 29.6017 9.24241 29.7441 10.0424C30.091 11.4247 28.7893 12.554 28.7122 12.6187C28.7863 12.6452 29.9012 13.0511 30.1177 14.051C30.3134 14.9598 29.6848 15.6922 28.5669 16.0745C30.4231 17.745 30.0317 21.0861 28.2912 22.6625C30.7581 22.9419 32.6706 24.5359 32.6706 26.93C32.6706 28.6299 28.5195 29.3093 20.2142 29.3093C11.9089 29.3093 7.76367 28.6299 7.76367 26.93Z" fill="#FFE5E8"/>
</svg>
