<svg width="100%" height="100%" viewBox="0 0 17 16" fill="none" xmlns="http://www.w3.org/2000/svg">
<path d="M8.5 0C13.8341 0 16.5 2.66588 16.5 8C16.5 13.3341 13.8341 16 8.5 16C3.16588 16 0.5 13.3341 0.5 8C0.5 2.66588 3.16588 0 8.5 0Z" fill="#FFE7B4"/>
<path d="M3.60547 10.7718C3.60547 7.53309 5.77356 4.02499 9.952 3.34855C9.952 3.34855 11.2033 3.12503 11.807 3.36149C12.0335 3.43207 12.3407 3.69677 12.3976 4.01676C12.5364 4.56968 12.0157 5.02142 11.9849 5.0473C12.0145 5.05789 12.4605 5.22024 12.5471 5.62022C12.6253 5.98374 12.3739 6.27667 11.9268 6.4296C12.6692 7.09781 12.5127 8.43423 11.8165 9.0648C12.8033 9.17656 13.5683 9.81418 13.5683 10.7718C13.5683 11.4518 11.9078 11.7235 8.58568 11.7235C5.26356 11.7235 3.60547 11.4518 3.60547 10.7718Z" fill="#FFF7E6"/>
</svg>
