<svg width="100%" height="100%" viewBox="0 0 17 17" fill="none" xmlns="http://www.w3.org/2000/svg">
<path d="M8.5 0.0640869C13.8341 0.0640869 16.5 2.72997 16.5 8.06409C16.5 13.3982 13.8341 16.0641 8.5 16.0641C3.16588 16.0641 0.5 13.3982 0.5 8.06409C0.5 2.72997 3.16588 0.0640869 8.5 0.0640869Z" fill="#FFE5E8"/>
<path d="M3.60547 10.8359C3.60547 7.59718 5.77356 4.08908 9.952 3.41263C9.952 3.41263 11.2033 3.18911 11.807 3.42557C12.0335 3.49616 12.3407 3.76085 12.3976 4.08084C12.5364 4.63376 12.0157 5.08551 11.9849 5.11139C12.0145 5.12198 12.4605 5.28433 12.5471 5.68431C12.6253 6.04783 12.3739 6.34076 11.9268 6.49369C12.6692 7.1619 12.5127 8.49832 11.8165 9.12888C12.8033 9.24064 13.5683 9.87827 13.5683 10.8359C13.5683 11.5159 11.9078 11.7876 8.58568 11.7876C5.26356 11.7876 3.60547 11.5159 3.60547 10.8359Z" fill="#FFF2F3"/>
</svg>
