<svg width="100%" height="100%" viewBox="0 0 40 40" fill="none" xmlns="http://www.w3.org/2000/svg">
<path d="M20 0C33.3353 0 40 6.66471 40 20C40 33.3353 33.3353 40 20 40C6.66471 40 0 33.3353 0 20C0 6.66471 6.66471 0 20 0Z" fill="#FFD069"/>
<path d="M7.76367 26.9295C7.76367 18.8327 13.1839 10.0625 23.63 8.37137C23.63 8.37137 26.7582 7.81256 28.2674 8.40372C28.8338 8.58018 29.6017 9.24192 29.7441 10.0419C30.091 11.4242 28.7893 12.5536 28.7122 12.6183C28.7863 12.6447 29.9012 13.0506 30.1177 14.0506C30.3134 14.9593 29.6848 15.6917 28.5669 16.074C30.4231 17.7445 30.0317 21.0856 28.2912 22.662C30.7581 22.9414 32.6706 24.5354 32.6706 26.9295C32.6706 28.6294 28.5195 29.3088 20.2142 29.3088C11.9089 29.3088 7.76367 28.6294 7.76367 26.9295Z" fill="#FFE7B4"/>
</svg>
