<svg width="50" height="50" viewBox="0 0 50 50" xmlns="http://www.w3.org/2000/svg"><g fill="none" fill-rule="evenodd"><path d="M11.25 31.5A6.256 6.256 0 0 1 5 25.25 6.256 6.256 0 0 1 11.25 19c1.878 0 3.561.836 4.708 2.152L11.25 25.86l-2.389-2.388-1.472 1.473 3.125 3.125a1.039 1.039 0 0 0 1.472 0l5.084-5.084c.274.704.43 1.465.43 2.264a6.256 6.256 0 0 1-6.25 6.25Z" fill="#F58923" fill-rule="nonzero"/><path d="M32.5 31.667h15c1.378 0 2.5-1.122 2.5-2.5v-8.334c0-1.378-1.122-2.5-2.5-2.5h-15a2.503 2.503 0 0 0-2.5 2.5v3.334h-8.333v-5.834h5c.46 0 .833-.373.833-.833V9.167h4.21c.418 4.205 3.977 7.5 8.29 7.5 4.595 0 8.333-3.739 8.333-8.334S44.595 0 40 0c-4.314 0-7.872 3.295-8.29 7.5h-5.043a.834.834 0 0 0-.834.833v8.334h-4.166v-5.834A4.171 4.171 0 0 0 17.5 6.667H4.167A4.171 4.171 0 0 0 0 10.833v28.334a4.171 4.171 0 0 0 4.167 4.166H17.5a4.171 4.171 0 0 0 4.167-4.166v-5h4.166V42.5c0 .46.374.833.834.833H30v2.5A4.171 4.171 0 0 0 34.167 50h11.666A4.171 4.171 0 0 0 50 45.833v-10l-.002-.01a.846.846 0 0 0-.046-.27c-.004-.009-.01-.015-.014-.024-.01-.026-.026-.047-.039-.072a.826.826 0 0 0-.119-.176.804.804 0 0 0-.238-.18c-.028-.015-.053-.03-.082-.042a.826.826 0 0 0-.293-.059H30.833c-.103 0-.2.024-.294.06-.029.01-.054.026-.082.04a.804.804 0 0 0-.169.114c-.024.022-.047.043-.069.067a.826.826 0 0 0-.119.176c-.013.025-.03.045-.04.072-.002.008-.01.015-.012.024a.816.816 0 0 0-.046.27l-.002.01v5.834h-2.5v-8.334a.834.834 0 0 0-.833-.833h-5v-6.667H30v3.334c0 1.378 1.122 2.5 2.5 2.5Zm-.833-10.834c0-.459.374-.833.833-.833h15c.46 0 .833.374.833.833V22.5H31.667v-1.667Zm0 3.334h16.666v5A.834.834 0 0 1 47.5 30h-15a.835.835 0 0 1-.833-.833v-5ZM40 1.667a6.674 6.674 0 0 1 6.667 6.666A6.674 6.674 0 0 1 40 15a6.674 6.674 0 0 1-6.667-6.667A6.674 6.674 0 0 1 40 1.667Zm-20 37.5c0 1.378-1.122 2.5-2.5 2.5H4.167a2.503 2.503 0 0 1-2.5-2.5v-.834H20v.834Zm0-2.5H1.667V13.333H20v23.334Zm0-25H1.667v-.834c0-1.378 1.121-2.5 2.5-2.5H17.5c1.378 0 2.5 1.122 2.5 2.5v.834Zm26.833 25L40 42.257l-6.833-5.59h13.666Zm-15.166.925 7.805 6.386a.829.829 0 0 0 1.056 0l7.805-6.386v8.241c0 1.379-1.121 2.5-2.5 2.5H34.167a2.503 2.503 0 0 1-2.5-2.5v-8.241Z" fill="#000" fill-rule="nonzero"/><rect fill="#F58923" x="42" y="26" width="5.104" height="2.396" rx=".521"/><path d="M38.72 6.04a.835.835 0 0 1 1.614.293H42c0-1.085-.7-2.001-1.667-2.346V3h-1.666v.987A2.497 2.497 0 0 0 37 6.333c0 .221.087.434.244.59l3.037 3.036a.835.835 0 0 1-1.614-.293H37c0 1.086.7 2.002 1.667 2.347V13h1.666v-.987A2.497 2.497 0 0 0 42 9.667a.831.831 0 0 0-.244-.59l-3.037-3.036Z" fill="#F58923" fill-rule="nonzero"/></g></svg>