<svg width="50" height="50" viewBox="0 0 50 50" xmlns="http://www.w3.org/2000/svg"><g fill="none"><path d="M31.324 12.16a.834.834 0 0 0-.746-.12L7.521 19.45l-6.394-2.397a.836.836 0 0 0-1.127.78v13.334a.833.833 0 0 0 1.127.78l6.395-2.397 1.645.528v3.59c0 1.377 1.121 2.5 2.5 2.5h5c1.378 0 2.5-1.123 2.5-2.5v-.376l11.411 3.668a.836.836 0 0 0 .746-.12.832.832 0 0 0 .343-.673V12.834a.832.832 0 0 0-.343-.674ZM6.667 28.09l-5 1.875V19.036l5 1.875v7.178ZM17.5 33.667c0 .46-.373.833-.833.833h-5a.834.834 0 0 1-.834-.833v-3.053l6.667 2.142v.911ZM30 35.024 8.333 28.06v-7.119L30 13.978v21.046ZM45.314 7.22a4.143 4.143 0 0 0 1.353-3.053A4.171 4.171 0 0 0 42.5 0a4.171 4.171 0 0 0-4.167 4.167c0 1.209.527 2.29 1.353 3.052C36.942 8.335 35 11.027 35 14.167c0 .46.373.833.833.833h13.334c.46 0 .833-.373.833-.833 0-3.14-1.942-5.832-4.686-6.948ZM42.5 1.666c1.378 0 2.5 1.121 2.5 2.5 0 1.378-1.122 2.5-2.5 2.5a2.503 2.503 0 0 1-2.5-2.5c0-1.379 1.122-2.5 2.5-2.5Zm-5.774 11.666c.405-2.823 2.84-5 5.774-5a5.842 5.842 0 0 1 5.774 5H36.726Z" fill="#000"/><path d="M45.314 25.22a4.143 4.143 0 0 0 1.353-3.053A4.171 4.171 0 0 0 42.5 18a4.171 4.171 0 0 0-4.167 4.167c0 1.209.527 2.29 1.353 3.052C36.942 26.335 35 29.027 35 32.167c0 .46.373.833.833.833h13.334c.46 0 .833-.373.833-.833 0-3.14-1.942-5.832-4.686-6.948ZM42.5 19.666c1.378 0 2.5 1.121 2.5 2.5 0 1.378-1.122 2.5-2.5 2.5a2.503 2.503 0 0 1-2.5-2.5c0-1.379 1.122-2.5 2.5-2.5Zm-5.774 11.666c.405-2.823 2.84-5 5.774-5a5.842 5.842 0 0 1 5.774 5H36.726Z" fill="#F58923"/><path d="M45.314 42.22a4.143 4.143 0 0 0 1.353-3.053A4.171 4.171 0 0 0 42.5 35a4.171 4.171 0 0 0-4.167 4.167c0 1.209.527 2.29 1.353 3.052C36.942 43.335 35 46.027 35 49.167c0 .46.373.833.833.833h13.334c.46 0 .833-.373.833-.833 0-3.14-1.942-5.832-4.686-6.948ZM42.5 36.666c1.378 0 2.5 1.121 2.5 2.5 0 1.378-1.122 2.5-2.5 2.5a2.503 2.503 0 0 1-2.5-2.5c0-1.379 1.122-2.5 2.5-2.5Zm-5.774 11.666c.405-2.823 2.84-5 5.774-5a5.842 5.842 0 0 1 5.774 5H36.726Z" fill="#000"/><path d="M24.667 20h-5.834a2.503 2.503 0 0 0-2.5 2.5v1.322l-3.089 3.089a.833.833 0 0 0 .59 1.422h10.833c1.378 0 2.5-1.121 2.5-2.5V22.5c0-1.378-1.122-2.5-2.5-2.5Zm.833 5.833c0 .46-.373.834-.833.834h-8.822l1.911-1.911a.83.83 0 0 0 .244-.59V22.5c0-.46.373-.833.833-.833h5.834c.46 0 .833.373.833.833v3.333Z" fill="#F58923"/><path fill="#F58923" d="M20 23h4.167v1.667H20z"/><path fill="#000" d="M12 14h1.667v1.667H12zm0-3h1.667v1.667H12zm0-3h1.667v1.667H12zm0-4h1.667v1.667H12zm3 0h1.667v1.667H15zm3 0h1.667v1.667H18zm4 0h1.667v1.667H22zm3 0h1.667v1.667H25zm3 0h1.667v1.667H28zm4 0h1.667v1.667H32zm3 0h1.667v1.667H35zM12 41h1.667v1.667H12zm0-3h1.667v1.667H12zm3 3h1.667v1.667H15zm3 0h1.667v1.667H18zm4 0h1.667v1.667H22zm3 0h1.667v1.667H25zm3 0h1.667v1.667H28zm4 0h1.667v1.667H32zm3 0h1.667v1.667H35z"/></g></svg>