<?xml version="1.0" encoding="UTF-8"?><svg width="50px" height="50px" viewBox="0 0 50 50" version="1.1" xmlns="http://www.w3.org/2000/svg" xmlns:xlink="http://www.w3.org/1999/xlink"><!-- Generator: Sketch 50.2 (55047) - http://www.bohemiancoding.com/sketch --><title>icon_corporation_3</title><desc>Created with Sketch.</desc><defs></defs><g id="靜態頁" stroke="none" stroke-width="1" fill="none" fill-rule="evenodd"><g id="Corporation_desktop" transform="translate(-238.000000, -1928.000000)"><g id="Group" transform="translate(238.000000, 1530.000000)"><g id="icon_corporation_3" transform="translate(0.000000, 398.000000)"><polygon id="Path-3" fill="#F58923" points="48.3834339 45.0609018 38.3305478 45.0609018 38.3305478 43.3222422 48.3834339 43.3222422"></polygon><path d="M49.1666667,10 L47.5,10 L47.5,2.5 C47.5,1.12166667 46.3783333,0 45,0 L35,0 C33.6216667,0 32.5,1.12166667 32.5,2.5 L32.5,10 L30.8333333,10 C30.3725,10 30,10.3725 30,10.8333333 C30,13.1308333 31.8691667,15 34.1666667,15 L45.8333333,15 C48.1308333,15 50,13.1308333 50,10.8333333 C50,10.3725 49.6275,10 49.1666667,10 Z M34.1666667,2.5 C34.1666667,2.04 34.54,1.66666667 35,1.66666667 L45,1.66666667 C45.46,1.66666667 45.8333333,2.04 45.8333333,2.5 L45.8333333,10 L34.1666667,10 L34.1666667,2.5 Z M45.8333333,13.3333333 L34.1666667,13.3333333 C33.08,13.3333333 32.1533333,12.6366667 31.8091667,11.6666667 L33.3333333,11.6666667 L46.6666667,11.6666667 L48.1908333,11.6666667 C47.8466667,12.6366667 46.92,13.3333333 45.8333333,13.3333333 Z" id="Shape" fill="#000000" fill-rule="nonzero"></path><path d="M43.3333333,3.33333333 L36.6666667,3.33333333 C36.2058333,3.33333333 35.8333333,3.70583333 35.8333333,4.16666667 L35.8333333,7.5 C35.8333333,7.96083333 36.2058333,8.33333333 36.6666667,8.33333333 L43.3333333,8.33333333 C43.7941667,8.33333333 44.1666667,7.96083333 44.1666667,7.5 L44.1666667,4.16666667 C44.1666667,3.70583333 43.7941667,3.33333333 43.3333333,3.33333333 Z M42.5,6.66666667 L37.5,6.66666667 L37.5,5 L42.5,5 L42.5,6.66666667 Z" id="Shape" fill="#F58923" fill-rule="nonzero"></path><path d="M20.5208333,48.5158333 L16.6666667,45.4333333 L16.6666667,40.8333333 C16.6666667,38.5358333 14.7975,36.6666667 12.5,36.6666667 L4.16666667,36.6666667 C1.86916667,36.6666667 0,38.5358333 0,40.8333333 L0,45.8333333 C0,48.1308333 1.86916667,50 4.16666667,50 L20,50 C20.3541667,50 20.6691667,49.7758333 20.7858333,49.4425 C20.9025,49.1091667 20.7966667,48.7366667 20.5208333,48.5158333 Z M4.16666667,48.3333333 C2.78833333,48.3333333 1.66666667,47.2116667 1.66666667,45.8333333 L1.66666667,40.8333333 C1.66666667,39.455 2.78833333,38.3333333 4.16666667,38.3333333 L12.5,38.3333333 C13.8783333,38.3333333 15,39.455 15,40.8333333 L15,45.8333333 C15,46.0866667 15.115,46.3258333 15.3125,46.4841667 L17.6241667,48.3333333 L4.16666667,48.3333333 Z" id="Shape" fill="#000000" fill-rule="nonzero"></path><rect id="Rectangle-path" fill="#000000" fill-rule="nonzero" x="4.16666667" y="42.5" width="1.66666667" height="1.66666667"></rect><rect id="Rectangle-path" fill="#000000" fill-rule="nonzero" x="7.5" y="42.5" width="1.66666667" height="1.66666667"></rect><rect id="Rectangle-path" fill="#000000" fill-rule="nonzero" x="10.8333333" y="42.5" width="1.66666667" height="1.66666667"></rect><path d="M9.9475,19.7091667 L8.025,14.55 C8.71083333,14.1033333 9.16666667,13.3341667 9.16666667,12.4566667 C9.16666667,11.0783333 8.045,9.95666667 6.66666667,9.95666667 C5.28833333,9.95666667 4.16666667,11.0783333 4.16666667,12.4566667 C4.16666667,13.3333333 4.6225,14.1033333 5.3075,14.55 L3.385,19.7091667 C3.29,19.965 3.32666667,20.2508333 3.48166667,20.475 C3.6375,20.7 3.89416667,20.8333333 4.16666667,20.8333333 L9.16666667,20.8333333 C9.43916667,20.8333333 9.69583333,20.7 9.85083333,20.475 C10.0066667,20.2508333 10.0425,19.965 9.9475,19.7091667 Z M6.66666667,11.6233333 C7.12666667,11.6233333 7.5,11.9966667 7.5,12.4566667 C7.5,12.8883333 7.1675,13.2316667 6.7475,13.2733333 C6.69416667,13.2783333 6.64,13.2783333 6.58666667,13.2733333 C6.16583333,13.2316667 5.83333333,12.8883333 5.83333333,12.4566667 C5.83333333,11.9966667 6.20666667,11.6233333 6.66666667,11.6233333 Z M5.36583333,19.1666667 L6.66666667,15.6766667 L7.9675,19.1666667 L5.36583333,19.1666667 Z" id="Shape" fill="#000000" fill-rule="nonzero"></path><path d="M3.59583333,7.91416667 L4.73833333,9.12666667 C5.8025,8.12416667 7.53166667,8.12416667 8.59583333,9.12666667 L9.73833333,7.91416667 C8.04583333,6.3175 5.28833333,6.3175 3.59583333,7.91416667 Z" id="Shape" fill="#000000" fill-rule="nonzero"></path><path d="M1.91083333,5.2875 L3.08916667,6.46583333 C5.03833333,4.51583333 8.21083333,4.51583333 10.16,6.46583333 L11.3383333,5.2875 C8.73916667,2.68833333 4.51,2.68833333 1.91083333,5.2875 Z" id="Shape" fill="#000000" fill-rule="nonzero"></path><path d="M6.6075,0 C4.16,0 1.8575,0.954166667 0.125,2.6875 L1.30333333,3.86583333 C2.7225,2.4475 4.605,1.66666667 6.6075,1.66666667 C8.61,1.66666667 10.4933333,2.4475 11.9108333,3.86583333 L13.0891667,2.6875 C11.3566667,0.955 9.055,0 6.6075,0 Z" id="Shape" fill="#000000" fill-rule="nonzero"></path><path d="M49.1666667,38.3333333 L37.5,38.3333333 C37.0391667,38.3333333 36.6666667,38.7058333 36.6666667,39.1666667 L36.6666667,42.5 L36.6666667,45.8333333 L36.6666667,49.1666667 C36.6666667,49.6275 37.0391667,50 37.5,50 L49.1666667,50 C49.6275,50 50,49.6275 50,49.1666667 L50,45.8333333 L50,42.5 L50,39.1666667 C50,38.7058333 49.6275,38.3333333 49.1666667,38.3333333 Z M48.3333333,48.3333333 L38.3333333,48.3333333 L38.3333333,46.6666667 L48.3333333,46.6666667 L48.3333333,48.3333333 Z M48.3333333,45 L38.3333333,45 L38.3333333,43.3333333 L48.3333333,43.3333333 L48.3333333,45 Z M48.3333333,41.6666667 L38.3333333,41.6666667 L38.3333333,40 L48.3333333,40 L48.3333333,41.6666667 Z" id="Shape" fill="#000000" fill-rule="nonzero"></path><path d="M22.5,20.8333333 C20.6616667,20.8333333 19.1666667,22.3283333 19.1666667,24.1666667 C19.1666667,26.005 20.6616667,27.5 22.5,27.5 C24.3383333,27.5 25.8333333,26.005 25.8333333,24.1666667 C25.8333333,22.3283333 24.3383333,20.8333333 22.5,20.8333333 Z M22.5,25.8333333 C21.5808333,25.8333333 20.8333333,25.0858333 20.8333333,24.1666667 C20.8333333,23.2475 21.5808333,22.5 22.5,22.5 C23.4191667,22.5 24.1666667,23.2475 24.1666667,24.1666667 C24.1666667,25.0858333 23.4191667,25.8333333 22.5,25.8333333 Z" id="Shape" fill="#F58923" fill-rule="nonzero"></path><path d="M29.1666667,21.6666667 L28.68,21.6666667 C28.6658333,21.6325 28.6525,21.5983333 28.6375,21.565 L28.9816667,21.2208333 C29.1383333,21.0641667 29.2258333,20.8533333 29.2258333,20.6316667 C29.2258333,20.4108333 29.1383333,20.1983333 28.9816667,20.0425 L26.6241667,17.685 C26.3116667,17.3716667 25.7583333,17.3733333 25.4458333,17.685 L25.1016667,18.0291667 C25.0683333,18.0141667 25.0341667,18.0008333 25,17.9866667 L25,17.5 C25,17.0391667 24.6275,16.6666667 24.1666667,16.6666667 L20.8333333,16.6666667 C20.3725,16.6666667 20,17.0391667 20,17.5 L20,17.9866667 C19.9658333,18.0008333 19.9316667,18.0141667 19.8983333,18.0291667 L19.5541667,17.685 C19.3975,17.5283333 19.1866667,17.4408333 18.965,17.4408333 C18.7433333,17.4408333 18.5316667,17.5283333 18.3758333,17.685 L16.0183333,20.0425 C15.8616667,20.1991667 15.7741667,20.4108333 15.7741667,20.6316667 C15.7741667,20.8533333 15.8616667,21.065 16.0183333,21.2208333 L16.3625,21.565 C16.3475,21.5983333 16.3341667,21.6325 16.32,21.6666667 L15.8333333,21.6666667 C15.3725,21.6666667 15,22.0391667 15,22.5 L15,25.8333333 C15,26.2941667 15.3725,26.6666667 15.8333333,26.6666667 L16.32,26.6666667 C16.3341667,26.7008333 16.3475,26.735 16.3625,26.7683333 L16.0183333,27.1125 C15.8616667,27.2691667 15.7741667,27.48 15.7741667,27.7016667 C15.7741667,27.9225 15.8616667,28.135 16.0183333,28.2908333 L18.3758333,30.6483333 C18.6883333,30.9608333 19.2416667,30.9608333 19.5541667,30.6483333 L19.8983333,30.3041667 C19.9316667,30.3191667 19.9658333,30.3325 20,30.3466667 L20,30.8333333 C20,31.2941667 20.3725,31.6666667 20.8333333,31.6666667 L24.1666667,31.6666667 C24.6275,31.6666667 25,31.2941667 25,30.8333333 L25,30.3466667 C25.0341667,30.3325 25.0683333,30.3191667 25.1016667,30.3041667 L25.4458333,30.6483333 C25.6025,30.805 25.8133333,30.8925 26.035,30.8925 C26.2566667,30.8925 26.4683333,30.805 26.6241667,30.6483333 L28.9816667,28.2908333 C29.1383333,28.1341667 29.2258333,27.9225 29.2258333,27.7016667 C29.2258333,27.48 29.1383333,27.2683333 28.9816667,27.1125 L28.6375,26.7683333 C28.6525,26.735 28.6658333,26.7008333 28.68,26.6666667 L29.1666667,26.6666667 C29.6275,26.6666667 30,26.2941667 30,25.8333333 L30,22.5 C30,22.0391667 29.6275,21.6666667 29.1666667,21.6666667 Z M28.3333333,25 L28.0883333,25 C27.72,25 27.395,25.2416667 27.29,25.595 C27.1883333,25.9341667 27.0575,26.2533333 26.8991667,26.5441667 C26.7233333,26.8691667 26.7808333,27.2708333 27.0425,27.5316667 L27.2133333,27.7025 L26.035,28.8808333 L25.8641667,28.71 C25.6033333,28.4491667 25.2016667,28.3925 24.8766667,28.5666667 C24.5858333,28.7241667 24.2675,28.8558333 23.9275,28.9575 C23.575,29.0616667 23.3333333,29.3866667 23.3333333,29.755 L23.3333333,30 L21.6666667,30 L21.6666667,29.755 C21.6666667,29.3866667 21.425,29.0616667 21.0716667,28.9566667 C20.7325,28.855 20.4133333,28.7241667 20.1225,28.5658333 C19.7983333,28.3908333 19.3966667,28.4475 19.135,28.7091667 L18.9641667,28.88 L17.7858333,27.7016667 L17.9566667,27.5308333 C18.2175,27.2708333 18.2758333,26.8683333 18.1,26.5433333 C17.9425,26.2525 17.8108333,25.9341667 17.7091667,25.5941667 C17.605,25.2416667 17.28,25 16.9116667,25 L16.6666667,25 L16.6666667,23.3333333 L16.9116667,23.3333333 C17.28,23.3333333 17.605,23.0916667 17.71,22.7383333 C17.8116667,22.3991667 17.9425,22.08 18.1008333,21.7891667 C18.2766667,21.4641667 18.2191667,21.0625 17.9575,20.8016667 L17.7866667,20.6308333 L18.965,19.4525 L19.1358333,19.6233333 C19.3966667,19.885 19.8,19.9425 20.1233333,19.7666667 C20.4141667,19.6091667 20.7325,19.4775 21.0725,19.3758333 C21.425,19.2716667 21.6666667,18.9466667 21.6666667,18.5783333 L21.6666667,18.3333333 L23.3333333,18.3333333 L23.3333333,18.5783333 C23.3333333,18.9466667 23.575,19.2716667 23.9283333,19.3766667 C24.2675,19.4783333 24.5866667,19.6091667 24.8775,19.7675 C25.2016667,19.9425 25.6033333,19.8858333 25.865,19.6241667 L26.0358333,19.4533333 L27.2141667,20.6316667 L27.0433333,20.8025 C26.7825,21.0625 26.7241667,21.465 26.9,21.79 C27.0575,22.0808333 27.1891667,22.3991667 27.2908333,22.7391667 C27.395,23.0916667 27.72,23.3333333 28.0883333,23.3333333 L28.3333333,23.3333333 L28.3333333,25 Z" id="Shape" fill="#F58923" fill-rule="nonzero"></path><rect id="Rectangle-path" fill="#000000" fill-rule="nonzero" x="15" y="4.16666667" width="1.66666667" height="1.66666667"></rect><rect id="Rectangle-path" fill="#000000" fill-rule="nonzero" x="18.3333333" y="4.16666667" width="1.66666667" height="1.66666667"></rect><rect id="Rectangle-path" fill="#000000" fill-rule="nonzero" x="21.6666667" y="4.16666667" width="1.66666667" height="1.66666667"></rect><rect id="Rectangle-path" fill="#000000" fill-rule="nonzero" x="25" y="4.16666667" width="1.66666667" height="1.66666667"></rect><rect id="Rectangle-path" fill="#000000" fill-rule="nonzero" x="28.3333333" y="4.16666667" width="1.66666667" height="1.66666667"></rect><rect id="Rectangle-path" fill="#000000" fill-rule="nonzero" x="46.6666667" y="17.5" width="1.66666667" height="1.66666667"></rect><rect id="Rectangle-path" fill="#000000" fill-rule="nonzero" x="46.6666667" y="20.8333333" width="1.66666667" height="1.66666667"></rect><rect id="Rectangle-path" fill="#000000" fill-rule="nonzero" x="46.6666667" y="34.1666667" width="1.66666667" height="1.66666667"></rect><rect id="Rectangle-path" fill="#000000" fill-rule="nonzero" x="32.5" y="43.3333333" width="1.66666667" height="1.66666667"></rect><rect id="Rectangle-path" fill="#000000" fill-rule="nonzero" x="29.1666667" y="43.3333333" width="1.66666667" height="1.66666667"></rect><rect id="Rectangle-path" fill="#000000" fill-rule="nonzero" x="25.8333333" y="43.3333333" width="1.66666667" height="1.66666667"></rect><rect id="Rectangle-path" fill="#000000" fill-rule="nonzero" x="22.5" y="43.3333333" width="1.66666667" height="1.66666667"></rect><rect id="Rectangle-path" fill="#000000" fill-rule="nonzero" x="19.1666667" y="43.3333333" width="1.66666667" height="1.66666667"></rect><rect id="Rectangle-path" fill="#000000" fill-rule="nonzero" x="1.66666667" y="33.3333333" width="1.66666667" height="1.66666667"></rect><rect id="Rectangle-path" fill="#000000" fill-rule="nonzero" x="1.66666667" y="30" width="1.66666667" height="1.66666667"></rect><rect id="Rectangle-path" fill="#000000" fill-rule="nonzero" x="1.66666667" y="26.6666667" width="1.66666667" height="1.66666667"></rect><rect id="Rectangle-path" fill="#000000" fill-rule="nonzero" x="1.66666667" y="23.3333333" width="1.66666667" height="1.66666667"></rect><rect id="Rectangle-path" fill="#000000" fill-rule="nonzero" x="46.6666667" y="30.8333333" width="1.66666667" height="1.66666667"></rect><rect id="Rectangle-path" fill="#000000" fill-rule="nonzero" x="46.6666667" y="27.5" width="1.66666667" height="1.66666667"></rect><rect id="Rectangle-path" fill="#000000" fill-rule="nonzero" x="46.6666667" y="24.1666667" width="1.66666667" height="1.66666667"></rect><path d="M38.3333333,21.6666667 C38.3333333,19.2116667 36.57,17.1416667 34.1708333,16.7508333 C33.1716667,16.5516667 32.1391667,16.71 31.2341667,17.14 C29.9908333,12.9375 26.1433333,10 21.6666667,10 C16.1525,10 11.6666667,14.4858333 11.6666667,20 C11.6666667,20.5583333 11.7141667,21.1158333 11.8083333,21.6683333 C8.08416667,21.5958333 5,24.61 5,28.3333333 C5,32.0091667 7.99083333,35 11.6666667,35 L39.1666667,35 C39.3075,35 39.4416667,34.9541667 39.5608333,34.8791667 C42.6816667,34.2966667 45,31.5333333 45,28.3333333 C45,24.6575 42.0091667,21.6666667 38.3333333,21.6666667 Z M39.0375,33.2775 C38.9725,33.2866667 38.91,33.3058333 38.85,33.3333333 L11.6666667,33.3333333 C8.90916667,33.3333333 6.66666667,31.0908333 6.66666667,28.3333333 C6.66666667,25.5758333 8.90916667,23.3333333 11.6666667,23.3333333 C12.0125,23.3333333 12.365,23.3708333 12.7141667,23.4458333 C13.0033333,23.5075 13.3008333,23.4125 13.5,23.195 C13.6991667,22.9791667 13.77,22.6733333 13.6858333,22.3916667 C13.4525,21.6091667 13.3333333,20.8041667 13.3333333,20 C13.3333333,15.405 17.0716667,11.6666667 21.6666667,11.6666667 C25.74,11.6666667 29.1875,14.5875 29.8658333,18.6108333 C29.9158333,18.905 30.1183333,19.1491667 30.3975,19.2533333 C30.6775,19.3575 30.9908333,19.3041667 31.22,19.1133333 C31.835,18.6033333 32.5658333,18.3333333 33.3333333,18.3333333 C33.5025,18.3333333 33.6725,18.3508333 33.8716667,18.39 C35.4908333,18.655 36.6666667,20.0325 36.6666667,21.6666667 C36.6666667,21.8958333 36.6375,22.1383333 36.5766667,22.4066667 C36.5158333,22.6783333 36.5941667,22.9625 36.785,23.1641667 C36.9758333,23.365 37.2525,23.4591667 37.5308333,23.4116667 C37.8416667,23.3583333 38.0975,23.3333333 38.3333333,23.3333333 C41.0908333,23.3333333 43.3333333,25.5758333 43.3333333,28.3333333 C43.3333333,30.8066667 41.4858333,32.9316667 39.0375,33.2775 Z" id="Shape" fill="#000000" fill-rule="nonzero"></path></g></g></g></g></svg>