<?xml version="1.0" encoding="UTF-8"?><svg width="50px" height="50px" viewBox="0 0 50 50" version="1.1" xmlns="http://www.w3.org/2000/svg" xmlns:xlink="http://www.w3.org/1999/xlink"><!-- Generator: Sketch 50.2 (55047) - http://www.bohemiancoding.com/sketch --><title>icon_corporation_5</title><desc>Created with Sketch.</desc><defs></defs><g id="靜態頁" stroke="none" stroke-width="1" fill="none" fill-rule="evenodd"><g id="Corporation_desktop" transform="translate(-238.000000, -2190.000000)"><g id="Group" transform="translate(238.000000, 1530.000000)"><g id="icon_corporation_5" transform="translate(0.000000, 660.000000)"><path d="M45.8333333,0 L4.16666667,0 C1.86916667,0 0,1.86916667 0,4.16666667 L0,35.8333333 L0,37.5 C0,39.7975 1.86916667,41.6666667 4.16666667,41.6666667 L20,41.6666667 L20,45 L15.8333333,45 C13.5358333,45 11.6666667,46.8691667 11.6666667,49.1666667 C11.6666667,49.6266667 12.04,50 12.5,50 L37.5,50 C37.96,50 38.3333333,49.6266667 38.3333333,49.1666667 C38.3333333,46.8691667 36.4641667,45 34.1666667,45 L30,45 L30,41.6666667 L45.8333333,41.6666667 C48.1308333,41.6666667 50,39.7975 50,37.5 L50,35.8333333 L50,4.16666667 C50,1.86916667 48.1308333,0 45.8333333,0 Z M34.1666667,46.6666667 C35.2533333,46.6666667 36.18,47.3633333 36.5241667,48.3333333 L13.4758333,48.3333333 C13.82,47.3633333 14.7466667,46.6666667 15.8333333,46.6666667 L20.8333333,46.6666667 L29.1666667,46.6666667 L34.1666667,46.6666667 Z M21.6666667,45 L21.6666667,41.6666667 L28.3333333,41.6666667 L28.3333333,45 L21.6666667,45 Z M48.3333333,37.5 C48.3333333,38.8783333 47.2116667,40 45.8333333,40 L29.1666667,40 L20.8333333,40 L4.16666667,40 C2.78833333,40 1.66666667,38.8783333 1.66666667,37.5 L1.66666667,36.6666667 L48.3333333,36.6666667 L48.3333333,37.5 Z M48.3333333,35 L1.66666667,35 L1.66666667,4.16666667 C1.66666667,2.78833333 2.78833333,1.66666667 4.16666667,1.66666667 L45.8333333,1.66666667 C47.2116667,1.66666667 48.3333333,2.78833333 48.3333333,4.16666667 L48.3333333,35 Z" id="Shape" fill="#000000" fill-rule="nonzero"></path><path d="M29.1666667,25 L20.4166667,25 C18.8704881,25 18.3333333,25.5762783 18.3333333,27.03125 L18.3333333,28.3854167 C18.3333333,29.7051173 18.6320445,30.4166667 20.4166667,30.4166667 L29.5833333,30.4166667 C31.220884,30.4166667 31.6666667,29.8205742 31.6666667,28.3854167 L31.6666667,27.03125 C31.6666667,25.5667842 31.2375805,25 29.1666667,25 Z" id="Shape" fill="#F58923" fill-rule="nonzero"></path><polygon id="Path-2" fill="#F58923" points="8.22095774 18.7329729 8.22095774 8.04017679 24.0527421 18.7329729"></polygon><path d="M39.5116667,29.1666667 L41.4225,27.2558333 C41.635,27.0433333 41.7166667,26.7333333 41.6366667,26.4441667 C41.5566667,26.155 41.3266667,25.9308333 41.0358333,25.8583333 L34.3691667,24.1916667 C34.085,24.1208333 33.785,24.2033333 33.5775,24.4108333 C33.37,24.6183333 33.2875,24.9183333 33.3583333,25.2025 L35.025,31.8691667 C35.0975,32.1608333 35.3216667,32.39 35.6108333,32.47 C35.6841667,32.49 35.7591667,32.5 35.8333333,32.5 C36.0516667,32.5 36.2641667,32.4141667 36.4225,32.2558333 L38.3333333,30.345 L41.9108333,33.9225 L43.0891667,32.7441667 L39.5116667,29.1666667 Z M36.285,30.0366667 L35.3125,26.1458333 L39.2033333,27.1183333 L36.285,30.0366667 Z" id="Shape" fill="#000000" fill-rule="nonzero"></path><rect id="Rectangle-path" fill="#000000" fill-rule="nonzero" x="30" y="14.5833333" width="13.3333333" height="1.66666667"></rect><rect id="Rectangle-path-Copy-4" fill="#000000" fill-rule="nonzero" x="30" y="18.75" width="13.3333333" height="1.66666667"></rect><rect id="Rectangle-path-Copy" fill="#000000" fill-rule="nonzero" x="30" y="10.4166667" width="13.3333333" height="1.66666667"></rect><rect id="Rectangle-path-Copy-2" fill="#000000" fill-rule="nonzero" x="30" y="6.25" width="13.3333333" height="1.66666667"></rect><path d="M7.60416667,6.25 L24.5833333,6.25 C25.3887486,6.25 26.0416667,6.90291807 26.0416667,7.70833333 L26.0416667,18.9583333 C26.0416667,19.7637486 25.3887486,20.4166667 24.5833333,20.4166667 L7.60416667,20.4166667 C6.79875141,20.4166667 6.14583333,19.7637486 6.14583333,18.9583333 L6.14583333,7.70833333 C6.14583333,6.90291807 6.79875141,6.25 7.60416667,6.25 Z M8.22916667,8.02083333 L8.22916667,18.6458333 L23.9583333,18.6458333 L23.9583333,8.02083333 L8.22916667,8.02083333 Z" id="Combined-Shape" fill="#000000" fill-rule="nonzero"></path></g></g></g></g></svg>