<?xml version="1.0" encoding="UTF-8"?><svg width="50px" height="50px" viewBox="0 0 50 50" version="1.1" xmlns="http://www.w3.org/2000/svg" xmlns:xlink="http://www.w3.org/1999/xlink"><!-- Generator: Sketch 50.2 (55047) - http://www.bohemiancoding.com/sketch --><title>icon_corporation_2</title><desc>Created with Sketch.</desc><defs></defs><g id="靜態頁" stroke="none" stroke-width="1" fill="none" fill-rule="evenodd"><g id="Corporation_desktop" transform="translate(-739.000000, -1683.000000)"><g id="Group" transform="translate(238.000000, 1530.000000)"><g id="icon_corporation_2" transform="translate(501.000000, 153.000000)"><path d="M11.25,31.5 C7.803125,31.5 5,28.696875 5,25.25 C5,21.803125 7.803125,19 11.25,19 C13.128125,19 14.8114583,19.8364583 15.9583333,21.1520833 L11.25,25.8604167 L8.86145833,23.471875 L7.38854167,24.9447917 L10.5135417,28.0697917 C10.7166667,28.2729167 10.9833333,28.375 11.25,28.375 C11.5166667,28.375 11.7833333,28.2729167 11.9864583,28.0697917 L17.0697917,22.9864583 C17.34375,23.6895833 17.5,24.4510417 17.5,25.25 C17.5,28.696875 14.696875,31.5 11.25,31.5 Z" id="Shape" fill="#F58923" fill-rule="nonzero"></path><path d="M32.5,31.6666667 L47.5,31.6666667 C48.8783333,31.6666667 50,30.545 50,29.1666667 L50,20.8333333 C50,19.455 48.8783333,18.3333333 47.5,18.3333333 L32.5,18.3333333 C31.1216667,18.3333333 30,19.455 30,20.8333333 L30,24.1666667 L21.6666667,24.1666667 L21.6666667,18.3333333 L26.6666667,18.3333333 C27.1266667,18.3333333 27.5,17.96 27.5,17.5 L27.5,9.16666667 L31.7091667,9.16666667 C32.1283333,13.3716667 35.6866667,16.6666667 40,16.6666667 C44.595,16.6666667 48.3333333,12.9283333 48.3333333,8.33333333 C48.3333333,3.73833333 44.595,0 40,0 C35.6858333,0 32.1283333,3.295 31.7091667,7.5 L26.6666667,7.5 C26.2066667,7.5 25.8333333,7.87333333 25.8333333,8.33333333 L25.8333333,16.6666667 L21.6666667,16.6666667 L21.6666667,12.5 L21.6666667,10.8333333 C21.6666667,8.53583333 19.7975,6.66666667 17.5,6.66666667 L4.16666667,6.66666667 C1.86916667,6.66666667 0,8.53583333 0,10.8333333 L0,12.5 L0,37.5 L0,39.1666667 C0,41.4641667 1.86916667,43.3333333 4.16666667,43.3333333 L17.5,43.3333333 C19.7975,43.3333333 21.6666667,41.4641667 21.6666667,39.1666667 L21.6666667,37.5 L21.6666667,34.1666667 L25.8333333,34.1666667 L25.8333333,42.5 C25.8333333,42.96 26.2066667,43.3333333 26.6666667,43.3333333 L30,43.3333333 L30,45.8333333 C30,48.1308333 31.8691667,50 34.1666667,50 L45.8333333,50 C48.1308333,50 50,48.1308333 50,45.8333333 L50,35.8333333 C50,35.8291667 49.9975,35.8258333 49.9975,35.8225 C49.9966667,35.7325 49.9825,35.6416667 49.9516667,35.5533333 C49.9483333,35.5441667 49.9416667,35.5383333 49.9383333,35.5291667 C49.9283333,35.5033333 49.9116667,35.4816667 49.8991667,35.4566667 C49.8658333,35.3925 49.8275,35.3333333 49.78,35.2808333 C49.7583333,35.2566667 49.735,35.2358333 49.7108333,35.2141667 C49.6591667,35.1683333 49.6033333,35.1316667 49.5416667,35.1 C49.5141667,35.0858333 49.4891667,35.0708333 49.46,35.0591667 C49.3675,35.0241667 49.27,35 49.1666667,35 L30.8333333,35 C30.73,35 30.6325,35.0241667 30.5391667,35.0591667 C30.51,35.07 30.485,35.0858333 30.4575,35.1 C30.3958333,35.1316667 30.34,35.1683333 30.2883333,35.2141667 C30.2641667,35.2358333 30.2408333,35.2566667 30.2191667,35.2808333 C30.1716667,35.3333333 30.1333333,35.3925 30.1,35.4566667 C30.0875,35.4816667 30.0708333,35.5025 30.0608333,35.5291667 C30.0575,35.5375 30.0508333,35.5441667 30.0475,35.5533333 C30.0158333,35.6416667 30.0025,35.7325 30.0016667,35.8225 C30.0025,35.8258333 30,35.8291667 30,35.8333333 L30,41.6666667 L27.5,41.6666667 L27.5,33.3333333 C27.5,32.8733333 27.1266667,32.5 26.6666667,32.5 L21.6666667,32.5 L21.6666667,25.8333333 L30,25.8333333 L30,29.1666667 C30,30.545 31.1216667,31.6666667 32.5,31.6666667 Z M31.6666667,20.8333333 C31.6666667,20.3741667 32.0408333,20 32.5,20 L47.5,20 C47.9591667,20 48.3333333,20.3741667 48.3333333,20.8333333 L48.3333333,22.5 L31.6666667,22.5 L31.6666667,20.8333333 Z M31.6666667,24.1666667 L48.3333333,24.1666667 L48.3333333,29.1666667 C48.3333333,29.6258333 47.9591667,30 47.5,30 L32.5,30 C32.0408333,30 31.6666667,29.6258333 31.6666667,29.1666667 L31.6666667,24.1666667 Z M40,1.66666667 C43.6758333,1.66666667 46.6666667,4.6575 46.6666667,8.33333333 C46.6666667,12.0091667 43.6758333,15 40,15 C36.3241667,15 33.3333333,12.0091667 33.3333333,8.33333333 C33.3333333,4.6575 36.3241667,1.66666667 40,1.66666667 Z M20,39.1666667 C20,40.545 18.8783333,41.6666667 17.5,41.6666667 L4.16666667,41.6666667 C2.78833333,41.6666667 1.66666667,40.545 1.66666667,39.1666667 L1.66666667,38.3333333 L20,38.3333333 L20,39.1666667 Z M20,36.6666667 L1.66666667,36.6666667 L1.66666667,13.3333333 L20,13.3333333 L20,36.6666667 Z M20,11.6666667 L1.66666667,11.6666667 L1.66666667,10.8333333 C1.66666667,9.455 2.78833333,8.33333333 4.16666667,8.33333333 L17.5,8.33333333 C18.8783333,8.33333333 20,9.455 20,10.8333333 L20,11.6666667 Z M46.8325,36.6666667 L40,42.2566667 L33.1675,36.6666667 L46.8325,36.6666667 Z M31.6666667,37.5916667 L39.4725,43.9783333 C39.6258333,44.1041667 39.8125,44.1666667 40,44.1666667 C40.1875,44.1666667 40.3741667,44.1041667 40.5275,43.9783333 L48.3333333,37.5916667 L48.3333333,45.8333333 C48.3333333,47.2116667 47.2116667,48.3333333 45.8333333,48.3333333 L34.1666667,48.3333333 C32.7883333,48.3333333 31.6666667,47.2116667 31.6666667,45.8333333 L31.6666667,37.5916667 Z" id="Shape" fill="#000000" fill-rule="nonzero"></path><rect id="Rectangle-4" fill="#F58923" x="42" y="26" width="5.10416667" height="2.39583333" rx="0.520833333"></rect><path d="M38.7191667,6.04083333 C38.8383333,5.72583333 39.1433333,5.5 39.5,5.5 C39.9591667,5.5 40.3333333,5.87416667 40.3333333,6.33333333 L42,6.33333333 C42,5.24833333 41.3008333,4.33166667 40.3333333,3.98666667 L40.3333333,3 L38.6666667,3 L38.6666667,3.98666667 C37.6991667,4.33166667 37,5.24833333 37,6.33333333 C37,6.55416667 37.0875,6.76666667 37.2441667,6.9225 L40.2808333,9.95916667 C40.1616667,10.2741667 39.8566667,10.5 39.5,10.5 C39.0408333,10.5 38.6666667,10.1258333 38.6666667,9.66666667 L37,9.66666667 C37,10.7516667 37.6991667,11.6683333 38.6666667,12.0133333 L38.6666667,13 L40.3333333,13 L40.3333333,12.0133333 C41.3008333,11.6683333 42,10.7516667 42,9.66666667 C42,9.44583333 41.9125,9.23333333 41.7558333,9.0775 L38.7191667,6.04083333 Z" id="Shape" fill="#F58923" fill-rule="nonzero"></path></g></g></g></g></svg>