<?xml version="1.0" encoding="UTF-8"?><svg width="50px" height="50px" viewBox="0 0 50 50" version="1.1" xmlns="http://www.w3.org/2000/svg" xmlns:xlink="http://www.w3.org/1999/xlink"><!-- Generator: Sketch 50.2 (55047) - http://www.bohemiancoding.com/sketch --><title>icon_corporation_6</title><desc>Created with Sketch.</desc><defs></defs><g id="靜態頁" stroke="none" stroke-width="1" fill="none" fill-rule="evenodd"><g id="Corporation_desktop" transform="translate(-739.000000, -2190.000000)" fill-rule="nonzero"><g id="Group" transform="translate(238.000000, 1530.000000)"><g id="icon_corporation_6" transform="translate(501.000000, 660.000000)"><path d="M31.3241667,12.1604411 C31.1091667,12.0029411 30.8308333,11.9587744 30.5783333,12.0396077 L7.52083333,19.4504411 L1.12666667,17.0529411 C0.869166667,16.9571077 0.583333333,16.9937744 0.359166667,17.1479411 C0.134166667,17.3046077 0,17.5604411 0,17.8337744 L0,31.1671077 C0,31.4404411 0.134166667,31.6962744 0.359166667,31.8521077 C0.5,31.9496077 0.665833333,32.0004411 0.833333333,32.0004411 C0.931666667,32.0004411 1.03083333,31.9829411 1.12666667,31.9479411 L7.52166667,29.5496077 L9.16666667,30.0779411 L9.16666667,33.6671077 C9.16666667,35.0454411 10.2883333,36.1671077 11.6666667,36.1671077 L16.6666667,36.1671077 C18.045,36.1671077 19.1666667,35.0454411 19.1666667,33.6671077 L19.1666667,33.2921077 L30.5783333,36.9604411 C30.6616667,36.9871077 30.7475,37.0004411 30.8333333,37.0004411 C31.0075,37.0004411 31.18,36.9462744 31.3241667,36.8404411 C31.54,36.6837744 31.6666667,36.4329411 31.6666667,36.1671077 L31.6666667,12.8337744 C31.6666667,12.5679411 31.54,12.3171077 31.3241667,12.1604411 Z M6.66666667,28.0887744 L1.66666667,29.9637744 L1.66666667,19.0362744 L6.66666667,20.9112744 L6.66666667,28.0887744 Z M17.5,33.6671077 C17.5,34.1271077 17.1266667,34.5004411 16.6666667,34.5004411 L11.6666667,34.5004411 C11.2066667,34.5004411 10.8333333,34.1271077 10.8333333,33.6671077 L10.8333333,30.6137744 L17.5,32.7562744 L17.5,33.6671077 Z M30,35.0237744 L8.33333333,28.0604411 L8.33333333,20.9412744 L30,13.9779411 L30,35.0237744 Z" id="Shape" fill="#000000"></path><path d="M45.3141667,7.21916667 C46.14,6.4575 46.6666667,5.37583333 46.6666667,4.16666667 C46.6666667,1.86916667 44.7975,0 42.5,0 C40.2025,0 38.3333333,1.86916667 38.3333333,4.16666667 C38.3333333,5.37583333 38.86,6.4575 39.6858333,7.21916667 C36.9416667,8.335 35,11.0266667 35,14.1666667 C35,14.6275 35.3725,15 35.8333333,15 L49.1666667,15 C49.6275,15 50,14.6275 50,14.1666667 C50,11.0266667 48.0583333,8.335 45.3141667,7.21916667 Z M42.5,1.66666667 C43.8783333,1.66666667 45,2.78833333 45,4.16666667 C45,5.545 43.8783333,6.66666667 42.5,6.66666667 C41.1216667,6.66666667 40,5.545 40,4.16666667 C40,2.78833333 41.1216667,1.66666667 42.5,1.66666667 Z M36.7258333,13.3333333 C37.1308333,10.51 39.5658333,8.33333333 42.5,8.33333333 C45.4341667,8.33333333 47.8683333,10.51 48.2741667,13.3333333 L36.7258333,13.3333333 Z" id="Shape" fill="#000000"></path><path d="M45.3141667,25.2191667 C46.14,24.4575 46.6666667,23.3758333 46.6666667,22.1666667 C46.6666667,19.8691667 44.7975,18 42.5,18 C40.2025,18 38.3333333,19.8691667 38.3333333,22.1666667 C38.3333333,23.3758333 38.86,24.4575 39.6858333,25.2191667 C36.9416667,26.335 35,29.0266667 35,32.1666667 C35,32.6275 35.3725,33 35.8333333,33 L49.1666667,33 C49.6275,33 50,32.6275 50,32.1666667 C50,29.0266667 48.0583333,26.335 45.3141667,25.2191667 Z M42.5,19.6666667 C43.8783333,19.6666667 45,20.7883333 45,22.1666667 C45,23.545 43.8783333,24.6666667 42.5,24.6666667 C41.1216667,24.6666667 40,23.545 40,22.1666667 C40,20.7883333 41.1216667,19.6666667 42.5,19.6666667 Z M36.7258333,31.3333333 C37.1308333,28.51 39.5658333,26.3333333 42.5,26.3333333 C45.4341667,26.3333333 47.8683333,28.51 48.2741667,31.3333333 L36.7258333,31.3333333 Z" id="Shape" fill="#F58923"></path><path d="M45.3141667,42.2191667 C46.14,41.4575 46.6666667,40.3758333 46.6666667,39.1666667 C46.6666667,36.8691667 44.7975,35 42.5,35 C40.2025,35 38.3333333,36.8691667 38.3333333,39.1666667 C38.3333333,40.3758333 38.86,41.4575 39.6858333,42.2191667 C36.9416667,43.335 35,46.0266667 35,49.1666667 C35,49.6275 35.3725,50 35.8333333,50 L49.1666667,50 C49.6275,50 50,49.6275 50,49.1666667 C50,46.0266667 48.0583333,43.335 45.3141667,42.2191667 Z M42.5,36.6666667 C43.8783333,36.6666667 45,37.7883333 45,39.1666667 C45,40.545 43.8783333,41.6666667 42.5,41.6666667 C41.1216667,41.6666667 40,40.545 40,39.1666667 C40,37.7883333 41.1216667,36.6666667 42.5,36.6666667 Z M36.7258333,48.3333333 C37.1308333,45.51 39.5658333,43.3333333 42.5,43.3333333 C45.4341667,43.3333333 47.8683333,45.51 48.2741667,48.3333333 L36.7258333,48.3333333 Z" id="Shape" fill="#000000"></path><path d="M24.6668244,20 L18.833491,20 C17.4551577,20 16.333491,21.1216667 16.333491,22.5 L16.333491,23.8216667 L13.2443244,26.9108333 C13.005991,27.1491667 12.9343244,27.5075 13.063491,27.8191667 C13.1918244,28.1308333 13.4968244,28.3333333 13.833491,28.3333333 L24.6668244,28.3333333 C26.0451577,28.3333333 27.1668244,27.2116667 27.1668244,25.8333333 L27.1668244,22.5 C27.1668244,21.1216667 26.0451577,20 24.6668244,20 Z M25.5001577,25.8333333 C25.5001577,26.2933333 25.1268244,26.6666667 24.6668244,26.6666667 L15.8451577,26.6666667 L17.755991,24.7558333 C17.9126577,24.6 18.0001577,24.3883333 18.0001577,24.1666667 L18.0001577,22.5 C18.0001577,22.04 18.373491,21.6666667 18.833491,21.6666667 L24.6668244,21.6666667 C25.1268244,21.6666667 25.5001577,22.04 25.5001577,22.5 L25.5001577,25.8333333 Z" id="Shape" fill="#F58923"></path><rect id="Rectangle-path" fill="#F58923" x="20" y="23" width="4.16666667" height="1.66666667"></rect><rect id="Rectangle-path" fill="#000000" x="12" y="14" width="1.66666667" height="1.66666667"></rect><rect id="Rectangle-path" fill="#000000" x="12" y="11" width="1.66666667" height="1.66666667"></rect><rect id="Rectangle-path" fill="#000000" x="12" y="8" width="1.66666667" height="1.66666667"></rect><rect id="Rectangle-path" fill="#000000" x="12" y="4" width="1.66666667" height="1.66666667"></rect><rect id="Rectangle-path" fill="#000000" x="15" y="4" width="1.66666667" height="1.66666667"></rect><rect id="Rectangle-path" fill="#000000" x="18" y="4" width="1.66666667" height="1.66666667"></rect><rect id="Rectangle-path" fill="#000000" x="22" y="4" width="1.66666667" height="1.66666667"></rect><rect id="Rectangle-path" fill="#000000" x="25" y="4" width="1.66666667" height="1.66666667"></rect><rect id="Rectangle-path" fill="#000000" x="28" y="4" width="1.66666667" height="1.66666667"></rect><rect id="Rectangle-path" fill="#000000" x="32" y="4" width="1.66666667" height="1.66666667"></rect><rect id="Rectangle-path" fill="#000000" x="35" y="4" width="1.66666667" height="1.66666667"></rect><rect id="Rectangle-path" fill="#000000" x="12" y="41" width="1.66666667" height="1.66666667"></rect><rect id="Rectangle-path" fill="#000000" x="12" y="38" width="1.66666667" height="1.66666667"></rect><rect id="Rectangle-path" fill="#000000" x="15" y="41" width="1.66666667" height="1.66666667"></rect><rect id="Rectangle-path" fill="#000000" x="18" y="41" width="1.66666667" height="1.66666667"></rect><rect id="Rectangle-path" fill="#000000" x="22" y="41" width="1.66666667" height="1.66666667"></rect><rect id="Rectangle-path" fill="#000000" x="25" y="41" width="1.66666667" height="1.66666667"></rect><rect id="Rectangle-path" fill="#000000" x="28" y="41" width="1.66666667" height="1.66666667"></rect><rect id="Rectangle-path" fill="#000000" x="32" y="41" width="1.66666667" height="1.66666667"></rect><rect id="Rectangle-path" fill="#000000" x="35" y="41" width="1.66666667" height="1.66666667"></rect></g></g></g></g></svg>