<?xml version="1.0" encoding="UTF-8"?><svg width="50px" height="50px" viewBox="0 0 50 50" version="1.1" xmlns="http://www.w3.org/2000/svg" xmlns:xlink="http://www.w3.org/1999/xlink"><!-- Generator: Sketch 50.2 (55047) - http://www.bohemiancoding.com/sketch --><title>icon_corporation_1</title><desc>Created with Sketch.</desc><defs></defs><g id="靜態頁" stroke="none" stroke-width="1" fill="none" fill-rule="evenodd"><g id="Corporation_desktop" transform="translate(-238.000000, -1683.000000)"><g id="Group" transform="translate(238.000000, 1530.000000)"><g id="icon_corporation_1" transform="translate(0.000000, 153.000000)"><rect id="Rectangle-6" fill="#F58923" x="15" y="30" width="6" height="7"></rect><g id="648346-copy" fill-rule="nonzero"><path d="M31.6666667,26.6666667 L27.5,26.6666667 L27.5,24.1666667 C27.5,22.7883333 26.3783333,21.6666667 25,21.6666667 L23.3333333,21.6666667 C22.8733333,21.6666667 22.5,22.0391667 22.5,22.5 L22.5,27.155 L20.4883333,29.1666667 L15,29.1666667 C14.54,29.1666667 14.1666667,29.5391667 14.1666667,30 L14.1666667,37.5 C14.1666667,37.9608333 14.54,38.3333333 15,38.3333333 L20.8333333,38.3333333 L31.6666667,38.3333333 C33.9641667,38.3333333 35.8333333,36.4641667 35.8333333,34.1666667 L35.8333333,30.8333333 C35.8333333,28.5358333 33.9641667,26.6666667 31.6666667,26.6666667 Z M20,36.6666667 L15.8333333,36.6666667 L15.8333333,30.8333333 L20,30.8333333 L20,36.6666667 Z M34.1666667,34.1666667 C34.1666667,35.545 33.045,36.6666667 31.6666667,36.6666667 L21.6666667,36.6666667 L21.6666667,30.345 L23.9225,28.0891667 C24.0791667,27.9333333 24.1666667,27.7216667 24.1666667,27.5 L24.1666667,23.3333333 L25,23.3333333 C25.4591667,23.3333333 25.8333333,23.7066667 25.8333333,24.1666667 L25.8333333,27.5 C25.8333333,27.9608333 26.2066667,28.3333333 26.6666667,28.3333333 L31.6666667,28.3333333 C33.045,28.3333333 34.1666667,29.455 34.1666667,30.8333333 L34.1666667,34.1666667 Z" id="Shape" fill="#000000"></path><path d="M50,12.5 L50,4.16666667 C50,1.86916667 48.1308333,0 45.8333333,0 L30.8333333,0 C28.5358333,0 26.6666667,1.86916667 26.6666667,4.16666667 L26.6666667,12.5 C26.6666667,12.785 26.6958333,13.0641667 26.7508333,13.3333333 L23.2491667,13.3333333 C23.3041667,13.0641667 23.3333333,12.785 23.3333333,12.5 L23.3333333,4.16666667 C23.3333333,1.86916667 21.4641667,0 19.1666667,0 L4.16666667,0 C1.86916667,0 0,1.86916667 0,4.16666667 L0,12.5 C0,14.7975 1.86916667,16.6666667 4.16666667,16.6666667 L4.16666667,43.3333333 L0.833333333,43.3333333 C0.373333333,43.3333333 0,43.7058333 0,44.1666667 C0,47.3825 2.61666667,50 5.83333333,50 L44.1666667,50 C47.3833333,50 50,47.3825 50,44.1666667 C50,43.7058333 49.6266667,43.3333333 49.1666667,43.3333333 L45.8333333,43.3333333 L45.8333333,16.6666667 C48.1308333,16.6666667 50,14.7975 50,12.5 Z M21.92,15.6025 C22.0666667,15.4725 22.2008333,15.3316667 22.3275,15.1825 C22.3791667,15.1216667 22.4341667,15.0641667 22.4825,15 L27.5166667,15 C27.565,15.0641667 27.62,15.1216667 27.6716667,15.1825 C27.7983333,15.3316667 27.9325,15.4725 28.0791667,15.6025 C28.1558333,15.6708333 28.235,15.7358333 28.3158333,15.7975 C28.4308333,15.8858333 28.5483333,15.9683333 28.6725,16.045 C28.8033333,16.1258333 28.9383333,16.1991667 29.0783333,16.265 C29.1616667,16.3041667 29.245,16.3416667 29.3308333,16.375 C29.5258333,16.4516667 29.7266667,16.5158333 29.9325,16.5625 C29.9866667,16.5741667 30.0416667,16.5825 30.0966667,16.5925 C30.3383333,16.6366667 30.5841667,16.6666667 30.8333333,16.6666667 L34.1666667,16.6666667 L34.1666667,18.3333333 L15.8333333,18.3333333 L15.8333333,16.6666667 L19.1666667,16.6666667 C19.4158333,16.6666667 19.6616667,16.6366667 19.9025,16.5925 C19.9575,16.5825 20.0125,16.575 20.0666667,16.5625 C20.2725,16.5158333 20.4725,16.4525 20.6683333,16.375 C20.755,16.3416667 20.8375,16.3041667 20.9208333,16.265 C21.06,16.1991667 21.195,16.1258333 21.3266667,16.045 C21.4508333,15.9691667 21.5683333,15.8858333 21.6833333,15.7975 C21.7641667,15.735 21.8433333,15.6708333 21.92,15.6025 Z M8.33333333,41.6666667 L41.6666667,41.6666667 C42.1266667,41.6666667 42.5,41.2941667 42.5,40.8333333 L42.5,19.1666667 C42.5,18.7058333 42.1266667,18.3333333 41.6666667,18.3333333 L40.345,18.3333333 L42.0116667,16.6666667 L44.1666667,16.6666667 L44.1666667,43.3333333 L5.83333333,43.3333333 L5.83333333,16.6666667 L7.98833333,16.6666667 L9.655,18.3333333 L8.33333333,18.3333333 C7.87333333,18.3333333 7.5,18.7058333 7.5,19.1666667 L7.5,40.8333333 C7.5,41.2941667 7.87333333,41.6666667 8.33333333,41.6666667 Z M40.8333333,20 L40.8333333,40 L9.16666667,40 L9.16666667,20 L11.3216667,20 L14.4108333,23.0891667 C14.4833333,23.1616667 14.5683333,23.2125 14.6575,23.2533333 C14.6833333,23.265 14.7083333,23.2725 14.735,23.2808333 C14.8041667,23.3041667 14.875,23.3183333 14.9483333,23.3225 C14.9658333,23.3241667 14.9825,23.3333333 15,23.3333333 C15.01,23.3333333 15.02,23.3275 15.03,23.3275 C15.1275,23.3241667 15.225,23.3091667 15.3183333,23.27 C15.63,23.1416667 15.8333333,22.8366667 15.8333333,22.5 L15.8333333,20 L34.1666667,20 L34.1666667,22.5 C34.1666667,22.8366667 34.37,23.1416667 34.6808333,23.27 C34.7741667,23.3091667 34.8716667,23.3241667 34.9691667,23.3275 C34.98,23.3275 34.99,23.3333333 35,23.3333333 C35.0175,23.3333333 35.0341667,23.3241667 35.0525,23.3233333 C35.125,23.3183333 35.195,23.305 35.2633333,23.2816667 C35.2908333,23.2725 35.3175,23.265 35.3433333,23.2533333 C35.4325,23.2125 35.5175,23.1616667 35.5891667,23.09 L38.6783333,20 L40.8333333,20 Z M1.66666667,12.5 L1.66666667,4.16666667 C1.66666667,2.78833333 2.78833333,1.66666667 4.16666667,1.66666667 L19.1666667,1.66666667 C20.545,1.66666667 21.6666667,2.78833333 21.6666667,4.16666667 L21.6666667,12.5 C21.6666667,12.9516667 21.5366667,13.37 21.3266667,13.7358333 C21.3241667,13.74 21.32,13.7433333 21.3175,13.7475 C21.0983333,14.1241667 20.7958333,14.4233333 20.445,14.6366667 C20.4083333,14.6591667 20.37,14.6783333 20.3316667,14.6983333 C20.1975,14.7708333 20.0566667,14.8275 19.9116667,14.8741667 C19.86,14.8908333 19.81,14.9091667 19.7566667,14.9225 C19.5658333,14.9691667 19.3691667,15 19.1666667,15 L15,15 C14.54,15 14.1666667,15.3725 14.1666667,15.8333333 L14.1666667,19.1666667 L14.1666667,20.4883333 L12.2558333,18.5775 L8.9225,15.2441667 C8.76666667,15.0875 8.55416667,15 8.33333333,15 L5,15 L4.16666667,15 C2.78833333,15 1.66666667,13.8783333 1.66666667,12.5 Z M48.2491667,45 C47.8625,46.8991667 46.1791667,48.3333333 44.1666667,48.3333333 L5.83333333,48.3333333 C3.82083333,48.3333333 2.1375,46.8991667 1.75083333,45 L5,45 L45,45 L48.2491667,45 Z M45,15 L41.6666667,15 C41.4458333,15 41.2333333,15.0875 41.0775,15.2441667 L37.7441667,18.5775 L35.8333333,20.4883333 L35.8333333,19.1666667 L35.8333333,15.8333333 C35.8333333,15.3725 35.46,15 35,15 L30.8333333,15 C30.6308333,15 30.4341667,14.9691667 30.2433333,14.9225 C30.19,14.9091667 30.14,14.8908333 30.0883333,14.8741667 C29.9433333,14.8283333 29.8016667,14.7708333 29.6683333,14.6983333 C29.63,14.6783333 29.5916667,14.6591667 29.555,14.6366667 C29.2041667,14.4225 28.9016667,14.1241667 28.6825,13.7475 C28.68,13.7433333 28.6758333,13.74 28.6733333,13.7358333 C28.4633333,13.37 28.3333333,12.9516667 28.3333333,12.5 L28.3333333,4.16666667 C28.3333333,2.78833333 29.455,1.66666667 30.8333333,1.66666667 L45.8333333,1.66666667 C47.2116667,1.66666667 48.3333333,2.78833333 48.3333333,4.16666667 L48.3333333,12.5 C48.3333333,13.8783333 47.2116667,15 45.8333333,15 L45,15 Z" id="Shape" fill="#000000"></path><rect id="Rectangle-path" fill="#000000" x="34.1666667" y="7.5" width="1.66666667" height="1.66666667"></rect><rect id="Rectangle-path" fill="#000000" x="37.5" y="7.5" width="1.66666667" height="1.66666667"></rect><rect id="Rectangle-path" fill="#000000" x="40.8333333" y="7.5" width="1.66666667" height="1.66666667"></rect><path d="M16.0058333,5.66083333 C14.9916667,4.64666667 13.3416667,4.64666667 12.3275,5.66083333 L11.6666667,6.32166667 L11.0058333,5.66083333 C9.99166667,4.64666667 8.34166667,4.64666667 7.3275,5.66083333 C6.83583333,6.15166667 6.565,6.805 6.565,7.5 C6.565,8.195 6.83583333,8.84833333 7.3275,9.33916667 L11.0775,13.0891667 C11.24,13.2516667 11.4533333,13.3333333 11.6666667,13.3333333 C11.88,13.3333333 12.0933333,13.2516667 12.2558333,13.0891667 L16.0058333,9.33916667 C16.4975,8.84833333 16.7683333,8.195 16.7683333,7.5 C16.7683333,6.805 16.4975,6.15166667 16.0058333,5.66083333 Z" id="Shape" fill="#F58923"></path></g></g></g></g></g></svg>