<?xml version="1.0" encoding="UTF-8"?><svg width="50px" height="50px" viewBox="0 0 50 50" version="1.1" xmlns="http://www.w3.org/2000/svg" xmlns:xlink="http://www.w3.org/1999/xlink"><!-- Generator: Sketch 50.2 (55047) - http://www.bohemiancoding.com/sketch --><title>4</title><desc>Created with Sketch.</desc><defs></defs><g id="靜態頁" stroke="none" stroke-width="1" fill="none" fill-rule="evenodd"><g id="Corporation_desktop" transform="translate(-739.000000, -1928.000000)"><g id="Group" transform="translate(238.000000, 1530.000000)"><g id="4" transform="translate(501.000000, 398.000000)"><path d="M45.8333333,0 L8.33333333,0 C6.03583333,0 4.16666667,1.86916667 4.16666667,4.16666667 C1.86916667,4.16666667 0,6.03583333 0,8.33333333 L0,45.8333333 C0,48.1308333 1.86916667,50 4.16666667,50 L41.6666667,50 C43.9641667,50 45.8333333,48.1308333 45.8333333,45.8333333 C48.1308333,45.8333333 50,43.9641667 50,41.6666667 L50,4.16666667 C50,1.86916667 48.1308333,0 45.8333333,0 Z M44.1666667,45 L44.1666667,45.8333333 C44.1666667,47.2116667 43.045,48.3333333 41.6666667,48.3333333 L4.16666667,48.3333333 C2.78833333,48.3333333 1.66666667,47.2116667 1.66666667,45.8333333 L1.66666667,12.5 L44.1666667,12.5 L44.1666667,45 Z M44.1666667,10.8333333 L1.66666667,10.8333333 L1.66666667,8.33333333 C1.66666667,6.955 2.78833333,5.83333333 4.16666667,5.83333333 L5,5.83333333 L41.6666667,5.83333333 C43.045,5.83333333 44.1666667,6.955 44.1666667,8.33333333 L44.1666667,10.8333333 Z M48.3333333,41.6666667 C48.3333333,43.045 47.2116667,44.1666667 45.8333333,44.1666667 L45.8333333,8.33333333 C45.8333333,6.03583333 43.9641667,4.16666667 41.6666667,4.16666667 L5.83333333,4.16666667 C5.83333333,2.78833333 6.955,1.66666667 8.33333333,1.66666667 L45.8333333,1.66666667 C47.2116667,1.66666667 48.3333333,2.78833333 48.3333333,4.16666667 L48.3333333,41.6666667 Z" id="Shape" fill="#000000" fill-rule="nonzero"></path><rect id="Rectangle-path" fill="#000000" fill-rule="nonzero" x="3" y="8" width="1.66666667" height="1.66666667"></rect><rect id="Rectangle-path" fill="#000000" fill-rule="nonzero" x="7" y="8" width="1.66666667" height="1.66666667"></rect><rect id="Rectangle-path" fill="#000000" fill-rule="nonzero" x="10" y="8" width="1.66666667" height="1.66666667"></rect><path d="M22.1666667,27.1666667 L13.8333333,27.1666667 L13.8333333,18.8333333 C13.8333333,18.3725 13.4608333,18 13,18 C7.48583333,18 3,22.4858333 3,28 C3,33.5141667 7.48583333,38 13,38 C18.5141667,38 23,33.5141667 23,28 C23,27.5391667 22.6275,27.1666667 22.1666667,27.1666667 Z M4.66666667,28 C4.66666667,23.6858333 7.96166667,20.1275 12.1666667,19.7083333 L12.1666667,26.8533333 L6.55166667,33.27 C5.375,31.8333333 4.66666667,29.9983333 4.66666667,28 Z M13,36.3333333 C10.4533333,36.3333333 8.08744702,35.135379 6.55744702,33.3287123 L7.61198598,34.603252 L12.7016667,28.7733333 C12.795,28.8091667 12.8941667,28.8333333 13,28.8333333 L21.2916667,28.8333333 C20.8725,33.0383333 17.3141667,36.3333333 13,36.3333333 Z" id="Shape" fill="#000000" fill-rule="nonzero"></path><path d="M16.7451923,15 C16.333101,15 16,15.333101 16,15.7451923 L16,23.9423077 C16,24.354399 16.333101,24.6875 16.7451923,24.6875 L24.9423077,24.6875 C25.354399,24.6875 25.6875,24.354399 25.6875,23.9423077 C25.6875,19.0113702 21.6761298,15 16.7451923,15 Z" id="Shape" fill="#F58923" fill-rule="nonzero"></path><polygon id="Shape" fill="#000000" fill-rule="nonzero" points="16.5 39.8333333 16.5 39 14.8333333 39 14.8333333 39.8333333 4 39.8333333 4 41.5 14.8333333 41.5 14.8333333 42.3333333 16.5 42.3333333 16.5 41.5 23.1666667 41.5 23.1666667 39.8333333"></polygon><polygon id="Shape" fill="#000000" fill-rule="nonzero" points="10.6666667 43.8333333 10.6666667 43 9 43 9 43.8333333 4 43.8333333 4 45.5 9 45.5 9 46.3333333 10.6666667 46.3333333 10.6666667 45.5 23.1666667 45.5 23.1666667 43.8333333"></polygon><polygon id="Shape" fill="#000000" fill-rule="nonzero" points="40.5 25 40.5 15 38.8333333 15 38.8333333 25 38 25 38 26.6666667 38.8333333 26.6666667 38.8333333 33.3333333 40.5 33.3333333 40.5 26.6666667 41.3333333 26.6666667 41.3333333 25"></polygon><polygon id="Shape" fill="#000000" fill-rule="nonzero" points="36.5 19.1666667 36.5 15 34.8333333 15 34.8333333 19.1666667 34 19.1666667 34 20.8333333 34.8333333 20.8333333 34.8333333 33.3333333 36.5 33.3333333 36.5 20.8333333 37.3333333 20.8333333 37.3333333 19.1666667"></polygon><polygon id="Shape" fill="#000000" fill-rule="nonzero" points="31.5 22.5 31.5 15 29.8333333 15 29.8333333 22.5 29 22.5 29 24.1666667 29.8333333 24.1666667 29.8333333 33.3333333 31.5 33.3333333 31.5 24.1666667 32.3333333 24.1666667 32.3333333 22.5"></polygon><path d="M26,44.4142006 L26,42.2547886 C26.9656096,41.5380041 27.6101805,41.0745347 27.9337127,40.8643804 C28.4190109,40.549149 28.7185837,40.2606868 29.2888633,40.4181614 C29.8591429,40.575636 31.0381659,41.1450095 31.6390989,41.3603154 C32.2400319,41.5756214 32.5506823,41.4043985 33.0029527,41.1343895 C33.4552231,40.8643804 35.2997007,39.4836772 35.6208062,39.238014 C35.9419116,38.9923508 36.4967577,38.8561941 37.1589061,39.238014 C37.6003384,39.4925606 38.5493382,40.0346827 40.0059054,40.8643804 L40.0059054,44.4142006 L26,44.4142006 Z" id="Path-4" fill="#F58923"></path><path d="M41.15,35 C41.62005,35 42,35.3782308 42,35.8461538 L42,45.1538462 C42,45.6217692 41.62005,46 41.15,46 L25.85,46 C25.37995,46 25,45.6217692 25,45.1538462 L25,35.8461538 C25,35.3782308 25.37995,35 25.85,35 L41.15,35 Z M27,37 L27,44 L40,44 L40,37 L27,37 Z" id="Shape" fill="#000000" fill-rule="nonzero"></path></g></g></g></g></svg>