<svg viewBox="0 0 24 24" fill="currentColor" xmlns="http://www.w3.org/2000/svg"><path fill-rule="evenodd" clip-rule="evenodd" d="M8.1 12.8a3.3 3.3 0 1 1-6.6 0 3.3 3.3 0 0 1 6.6 0Zm-3.3 1.8a1.8 1.8 0 1 0 0-3.6 1.8 1.8 0 0 0 0 3.6Zm10.5-6.3a3.3 3.3 0 1 1-6.6 0 3.3 3.3 0 0 1 6.6 0ZM12 10.1a1.8 1.8 0 1 0 0-3.6 1.8 1.8 0 0 0 0 3.6Zm10.5-6.3a3.3 3.3 0 1 1-6.6 0 3.3 3.3 0 0 1 6.6 0Zm-3.3 1.8a1.8 1.8 0 1 0 0-3.6 1.8 1.8 0 0 0 0 3.6Z"/><path fill-rule="evenodd" clip-rule="evenodd" d="M8.1 18.2v2.855A2.245 2.245 0 0 1 5.855 23.3h-2.11A2.245 2.245 0 0 1 1.5 21.055V18.2a3.3 3.3 0 0 1 6.6 0Zm-3.3-1.8A1.8 1.8 0 0 0 3 18.2v2.855c0 .411.333.745.745.745h2.11a.745.745 0 0 0 .745-.745V18.2a1.8 1.8 0 0 0-1.8-1.8Zm10.5-2.7v7.367c0 1.233-1 2.233-2.233 2.233h-2.133c-1.234 0-2.234-1-2.234-2.233V13.7a3.3 3.3 0 0 1 6.6 0ZM12 11.9a1.8 1.8 0 0 0-1.8 1.8v7.367c0 .405.329.733.734.733h2.133a.733.733 0 0 0 .733-.733V13.7a1.8 1.8 0 0 0-1.8-1.8Zm10.5-2.7v12.046c0 1.134-.92 2.054-2.054 2.054h-2.492a2.054 2.054 0 0 1-2.054-2.054V9.2a3.3 3.3 0 0 1 6.6 0Zm-3.3-1.8a1.8 1.8 0 0 0-1.8 1.8v12.046c0 .306.248.554.554.554h2.492a.554.554 0 0 0 .554-.554V9.2a1.8 1.8 0 0 0-1.8-1.8Z"/></svg>