<svg viewBox="0 0 28 29" fill="currentColor" xmlns="http://www.w3.org/2000/svg"><path opacity=".01" d="M0 .334h28v28H0z"/><path fill-rule="evenodd" clip-rule="evenodd" d="M25.666 14.335C25.666 7.89 20.443 2.668 14 2.668c-6.444 0-11.667 5.223-11.667 11.667C2.333 20.778 7.556 26 14 26c6.443 0 11.666-5.223 11.666-11.666Zm-21.583 0c0-5.477 4.44-9.917 9.917-9.917 5.477 0 9.916 4.44 9.916 9.917 0 5.476-4.44 9.916-9.916 9.916-5.477 0-9.917-4.44-9.917-9.916ZM14 18.126c.443 0 .809.33.867.757l.008.118v1.167a.875.875 0 0 1-1.742.119l-.008-.119v-1.167c0-.483.391-.875.875-.875Zm.867-9.743a.875.875 0 0 0-1.742.118v7l.008.119a.875.875 0 0 0 1.742-.119v-7l-.008-.118Z" fill="#fff"/></svg>