<svg width="24" height="24" viewBox="0 0 24 24" fill="currentColor" xmlns="http://www.w3.org/2000/svg"><path d="M10.125 9.375c0 1.034.841 1.875 1.875 1.875a3.379 3.379 0 0 1 3.375 3.375 3.38 3.38 0 0 1-2.625 3.29v.835a.75.75 0 0 1-1.5 0v-.835a3.38 3.38 0 0 1-2.625-3.29.75.75 0 1 1 1.5 0c0 1.034.841 1.875 1.875 1.875a1.877 1.877 0 0 0 1.875-1.875A1.877 1.877 0 0 0 12 12.75a3.379 3.379 0 0 1-3.375-3.375 3.38 3.38 0 0 1 2.625-3.29V5.25a.75.75 0 0 1 1.5 0v.835a3.38 3.38 0 0 1 2.625 3.29.75.75 0 0 1-1.5 0A1.877 1.877 0 0 0 12 7.5a1.877 1.877 0 0 0-1.875 1.875Z"/><path fill-rule="evenodd" clip-rule="evenodd" d="M12 2c5.523 0 10 4.477 10 10s-4.477 10-10 10S2 17.523 2 12 6.477 2 12 2Zm0 1.5a8.5 8.5 0 1 0 0 17 8.5 8.5 0 0 0 0-17Z"/></svg>