<svg viewBox="0 0 24 24" fill="currentColor" xmlns="http://www.w3.org/2000/svg"><path fill-rule="evenodd" clip-rule="evenodd" d="M15.4 11.905c-.4 0-.726.324-.726.725v7.599h-2.15v-10.3a.725.725 0 0 0-1.449 0v10.3h-2.15V12.63a.725.725 0 0 0-1.45 0v7.599h-1.7V6.38h12.05v13.849h-1.7V12.63a.726.726 0 0 0-.725-.725Zm-3.375-8.45c1.19.001 2.207.426 2.735 1.474H9.29c.527-1.052 1.546-1.473 2.735-1.474Zm8.1 1.474h-3.83a4.579 4.579 0 0 0-8.54 0h-3.83a.725.725 0 0 0 0 1.451h.4v13.899a1.4 1.4 0 0 0 1.4 1.4h12.15a1.4 1.4 0 0 0 1.4-1.4V6.38h.85a.725.725 0 0 0 0-1.451Z"/></svg>