<svg viewBox="0 0 24 24" fill="currentColor" xmlns="http://www.w3.org/2000/svg"><path d="M11.094 6H6a1 1 0 0 0-1 1v11a1 1 0 0 0 1 1h11a1 1 0 0 0 1-1v-5.5" stroke="currentColor" stroke-width="1.5" stroke-linecap="round"/><path fill-rule="evenodd" clip-rule="evenodd" d="m15.818 3.003.1.016 3.484.803.103.032a.75.75 0 0 1 .43.434l.031.103.76 3.44.016.11a.75.75 0 0 1-.48.753l-.107.032-.11.016a.75.75 0 0 1-.752-.48l-.032-.107-.464-2.104-2.452 2.452a.75.75 0 0 1-1.133-.977l.073-.084 2.462-2.462-2.165-.499-.106-.033a.75.75 0 0 1 .342-1.445Z"/><path d="m18 5.8-6 6" stroke="currentColor" stroke-width="1.5" stroke-linecap="round" stroke-linejoin="round"/></svg>