<svg viewBox="0 0 24 24" fill="currentColor" xmlns="http://www.w3.org/2000/svg"><path fill-rule="evenodd" clip-rule="evenodd" d="M12 8a4 4 0 1 1 0 8 4 4 0 0 1 0-8Zm0 1.5a2.5 2.5 0 1 0 0 5 2.5 2.5 0 0 0 0-5Z"/><path fill-rule="evenodd" clip-rule="evenodd" d="M12 5c3.805 0 7.61 2.06 11.416 6.18a1 1 0 0 1 .103 1.224l-.075.1-.306.356C19.558 16.953 15.725 19 11.637 19 7.429 19 3.71 16.832.48 12.495a1 1 0 0 1-.015-1.174l.081-.1.337-.361C4.589 6.953 8.294 5 12 5Zm0 1.5c-3.143 0-6.374 1.652-9.698 5.05l-.367.38.011.015c2.808 3.632 5.91 5.444 9.366 5.55l.325.005c3.506 0 6.85-1.728 10.063-5.28l.308-.349-.016-.017C18.668 8.36 15.44 6.61 12.303 6.505L12 6.5Z"/></svg>