<svg viewBox="0 0 24 24" fill="currentColor" xmlns="http://www.w3.org/2000/svg"><path fill-rule="evenodd" clip-rule="evenodd" d="M4.946 3.897A.75.75 0 0 0 3.97 5.03l1.806 1.807C4.146 7.799 2.515 9.14.884 10.86l-.337.36-.081.101a1 1 0 0 0 .015 1.174C3.71 16.832 7.429 19 11.637 19c1.766 0 3.485-.382 5.156-1.146l2.177 2.176.084.073a.75.75 0 0 0 .977-1.133l-1.847-1.847c1.702-1.012 3.354-2.433 4.954-4.263l.306-.356.075-.1a1 1 0 0 0-.103-1.225C19.61 7.06 15.806 5 12 5c-1.61 0-3.221.37-4.832 1.107L5.03 3.97l-.084-.073Zm1.929 4.038C5.37 8.77 3.846 9.971 2.302 11.55l-.367.38.011.015c2.808 3.632 5.91 5.444 9.366 5.55l.325.005c1.362 0 2.7-.26 4.014-.788l-1.403-1.403a4 4 0 0 1-5.557-5.557L6.875 7.935Zm2.877.756L8.309 7.248C9.553 6.748 10.783 6.5 12 6.5l.303.005c3.138.106 6.365 1.856 9.689 5.349l.016.017-.308.35c-1.508 1.666-3.045 2.931-4.613 3.805l-1.778-1.778a4 4 0 0 0-5.557-5.557Zm.031 2.153a2.5 2.5 0 0 0 3.373 3.373l-3.373-3.373Zm4.434 2.312-3.373-3.373a2.5 2.5 0 0 1 3.373 3.373Z"/></svg>