<svg viewBox="0 0 24 24" fill="currentColor" xmlns="http://www.w3.org/2000/svg"><path fill-rule="evenodd" clip-rule="evenodd" d="M16.148 12a4.148 4.148 0 1 0-8.296 0 4.148 4.148 0 0 0 8.296 0Zm-6.74 0a2.593 2.593 0 1 1 5.185 0 2.593 2.593 0 0 1-5.186 0Z"/><path d="M15.889 8.889a.778.778 0 1 0 0-1.556.778.778 0 0 0 0 1.556Z"/><path fill-rule="evenodd" clip-rule="evenodd" d="M19 6.815A1.815 1.815 0 0 0 17.185 5H6.815A1.815 1.815 0 0 0 5 6.815v10.37C5 18.188 5.813 19 6.815 19h10.37A1.815 1.815 0 0 0 19 17.185V6.815Zm-12.444 0a.26.26 0 0 1 .259-.26h10.37a.26.26 0 0 1 .26.26v10.37a.26.26 0 0 1-.26.26H6.815a.26.26 0 0 1-.26-.26V6.815Z"/><path fill-rule="evenodd" clip-rule="evenodd" d="M12 0c6.627 0 12 5.373 12 12s-5.373 12-12 12S0 18.627 0 12 5.373 0 12 0Zm0 1.5C6.201 1.5 1.5 6.201 1.5 12S6.201 22.5 12 22.5 22.5 17.799 22.5 12 17.799 1.5 12 1.5Z"/></svg>