<svg viewBox="0 0 24 24" fill="currentColor" xmlns="http://www.w3.org/2000/svg"><path fill-rule="evenodd" clip-rule="evenodd" d="M12 22.5c5.799 0 10.5-4.701 10.5-10.5S17.799 1.5 12 1.5 1.5 6.201 1.5 12 6.201 22.5 12 22.5Zm0 1.5c6.627 0 12-5.373 12-12S18.627 0 12 0 0 5.373 0 12s5.373 12 12 12Z"/><path fill-rule="evenodd" clip-rule="evenodd" d="M12 5.55a5.25 5.25 0 0 0-3.938 8.723.75.75 0 0 1-1.124.992A6.722 6.722 0 0 1 5.25 10.8a6.75 6.75 0 1 1 11.812 4.465.75.75 0 0 1-1.124-.992A5.222 5.222 0 0 0 17.25 10.8c0-2.9-2.35-5.25-5.25-5.25Z"/><path fill-rule="evenodd" clip-rule="evenodd" d="M15.2 10.75a3.25 3.25 0 1 1-6.5 0 3.25 3.25 0 0 1 6.5 0Zm-3.25 1.522a1.522 1.522 0 1 0 0-3.044 1.522 1.522 0 0 0 0 3.044Z"/><path fill-rule="evenodd" clip-rule="evenodd" d="M13.159 18.714v-2.857a1.143 1.143 0 0 0-2.286 0v2.857h2.286Zm-1.143-5.5a2.643 2.643 0 0 0-2.643 2.643v3.557a.8.8 0 0 0 .8.8h3.686a.8.8 0 0 0 .8-.8v-3.557a2.643 2.643 0 0 0-2.643-2.643Z"/></svg>