<svg viewBox="0 0 24 24" fill="currentColor" xmlns="http://www.w3.org/2000/svg"><path d="M13.197 5.4h1.69a.714.714 0 0 1 0 1.431h-1.69c-.597 0-1.083.488-1.083 1.087v1.909h2.436a.714.714 0 0 1 0 1.431h-2.436v6.626c0 .396-.32.716-.713.716a.714.714 0 0 1-.713-.716v-6.626H9.113a.714.714 0 0 1-.713-.716c0-.395.32-.715.713-.715h1.575V7.918A2.516 2.516 0 0 1 13.197 5.4Z"/><path fill-rule="evenodd" clip-rule="evenodd" d="M12 0c6.627 0 12 5.373 12 12s-5.373 12-12 12S0 18.627 0 12 5.373 0 12 0Zm0 1.5C6.201 1.5 1.5 6.201 1.5 12S6.201 22.5 12 22.5 22.5 17.799 22.5 12 17.799 1.5 12 1.5Z"/></svg>