<svg viewBox="0 0 12 12" fill="none" xmlns="http://www.w3.org/2000/svg"><circle cx="50%" cy="50%" r="5.5" fill="#fff"/><path fill-rule="evenodd" clip-rule="evenodd" d="M10.5 6a4.5 4.5 0 1 1-9 0 4.5 4.5 0 0 1 9 0ZM2.862 7.824a.15.15 0 0 0 .131.078l-.004.004a.153.153 0 0 0 .135-.23 3.34 3.34 0 0 1-.25-2.81 3.297 3.297 0 0 1 1.997-1.992.153.153 0 0 0 .094-.196.153.153 0 0 0-.197-.094 3.626 3.626 0 0 0-1.906 5.24Zm5.4.966a.153.153 0 0 1-.119-.053.159.159 0 0 1 .017-.217 3.308 3.308 0 0 0 1.117-3.06.153.153 0 0 1 .126-.176c.082-.008.164.041.176.127a3.649 3.649 0 0 1-.167 1.837A3.572 3.572 0 0 1 8.36 8.76a.155.155 0 0 1-.098.037V8.79Zm-.85-3.76v-.773H5.46a.41.41 0 0 0-.409.41v3.068h.965V6.376h1.04v-.728h-1.04v-.617h1.395Z" fill="#FFB107"/></svg>