<svg viewBox="0 0 41 40" fill="none" xmlns="http://www.w3.org/2000/svg"><path d="M20.5 36.665c9.205 0 16.667-7.462 16.667-16.666 0-9.205-7.462-16.667-16.667-16.667-9.205 0-16.666 7.462-16.666 16.667 0 9.204 7.461 16.666 16.666 16.666Z" fill="#FFB007"/><path d="M9.364 27.043a.56.56 0 0 1-.485-.288 13.43 13.43 0 0 1-1.015-11.363 13.39 13.39 0 0 1 8.076-8.046.568.568 0 0 1 .727.349.568.568 0 0 1-.349.727A12.213 12.213 0 0 0 8.924 15.8a12.368 12.368 0 0 0 .926 10.41.568.568 0 0 1-.5.848l.015-.015Zm19.516 3.289a.567.567 0 0 1-.44-.197.588.588 0 0 1 .06-.803 12.251 12.251 0 0 0 4.137-11.334.566.566 0 0 1 .47-.651c.302-.03.605.151.65.47a13.514 13.514 0 0 1-.62 6.803 13.23 13.23 0 0 1-3.894 5.606.572.572 0 0 1-.364.136v-.03Zm-3.153-16.774v2.849h-5.166v2.288h3.848v2.696h-3.848v5.03h-3.576V15.059a1.52 1.52 0 0 1 1.515-1.515h7.227v.015Z" fill="#fff"/></svg>