<svg viewBox="0 0 24 24" fill="none" xmlns="http://www.w3.org/2000/svg"><path opacity=".01" fill="currentColor" d="M0 0h24v24H0z"/><path d="M12 4.83a1 1 0 1 0 0-2 1 1 0 0 0 0 2ZM2 8.58a1 1 0 1 0 0-2 1 1 0 0 0 0 2Zm20 0a1 1 0 1 0 0-2 1 1 0 0 0 0 2Zm-1.04 2.06a1.22 1.22 0 0 0-1.39.03l-3.32 2.32-3.16-5.53c-.44-.78-1.73-.78-2.17 0l-3.16 5.53-3.32-2.32c-.42-.29-.96-.3-1.39-.03-.43.28-.64.78-.55 1.28l1.61 8.48c.16.82.88 1.42 1.72 1.42h12.35c.84 0 1.56-.6 1.72-1.42l1.62-8.48c.1-.5-.12-1.01-.55-1.28h-.01ZM7.57 14.69c.17.12.39.17.59.12.21-.05.38-.18.49-.36L12 8.59l3.35 5.86c.1.18.28.31.49.36.21.05.42 0 .59-.12l3.49-2.44-.97 5.08H5.05l-.97-5.08 3.49 2.44Zm10.6 5.64H5.82c-.12 0-.22-.09-.25-.2l-.25-1.3h13.33l-.25 1.3c-.02.12-.13.2-.25.2h.02Z" fill="currentColor"/></svg>