<svg viewBox="0 0 24 24" fill="none" xmlns="http://www.w3.org/2000/svg"><g clip-path="url(#a)"><path d="M22 12.23c0-.68-.056-1.364-.176-2.033h-9.623v3.851h5.511a4.624 4.624 0 0 1-2.04 3.039v2.498h3.288c1.931-1.74 3.04-4.312 3.04-7.355Z" fill="#4285F4"/><path d="M12.201 22c2.752 0 5.072-.886 6.763-2.414l-3.288-2.499c-.914.61-2.095.955-3.471.955-2.662 0-4.919-1.76-5.728-4.126H3.084v2.576C4.816 19.869 8.344 22 12.201 22Z" fill="#34A853"/><path d="M6.472 13.916a5.877 5.877 0 0 1 0-3.829V7.513H3.083a9.831 9.831 0 0 0 0 8.98l3.39-2.576Z" fill="#FBBC04"/><path d="M12.201 5.957a5.606 5.606 0 0 1 3.914 1.5L19.028 4.6A9.917 9.917 0 0 0 12.2 2C8.344 2 4.816 4.13 3.084 7.51l3.389 2.576c.806-2.37 3.066-4.13 5.728-4.13Z" fill="#EA4335"/></g><defs><clipPath id="a"><rect width="100%" height="100%" fill="#fff" transform="translate(2 2)"/></clipPath></defs></svg>