<svg width="20" height="21" viewBox="0 0 20 21" fill="none" xmlns="http://www.w3.org/2000/svg"><g clip-path="url(#a)"><path d="M20 10.563c0-.68-.056-1.363-.176-2.032H10.2v3.851h5.51a4.624 4.624 0 0 1-2.039 3.039v2.498h3.288c1.93-1.741 3.04-4.313 3.04-7.356Z" fill="#4285F4"/><path d="M10.2 20.334c2.752 0 5.073-.886 6.764-2.414l-3.288-2.499c-.915.61-2.096.955-3.472.955-2.661 0-4.918-1.76-5.728-4.126H1.083v2.576c1.732 3.377 5.26 5.508 9.118 5.508Z" fill="#34A853"/><path d="M4.472 12.25a5.877 5.877 0 0 1 0-3.829V5.846H1.083a9.831 9.831 0 0 0 0 8.98l3.39-2.576Z" fill="#FBBC04"/><path d="M10.2 4.292a5.606 5.606 0 0 1 3.914 1.5l2.913-2.856A9.916 9.916 0 0 0 10.201.335c-3.858 0-7.386 2.13-9.118 5.511l3.39 2.576c.805-2.37 3.066-4.13 5.728-4.13Z" fill="#EA4335"/></g><defs><clipPath id="a"><path fill="#fff" transform="translate(0 .334)" d="M0 0h20v20H0z"/></clipPath></defs></svg>