<svg width="24" height="24" viewBox="0 0 24 24" fill="none" xmlns="http://www.w3.org/2000/svg"><path fill-rule="evenodd" clip-rule="evenodd" d="M16.131 3.43c1.62 0 3.118.622 4.208 1.75C21.412 6.29 22 7.8 22 9.424c0 1.67-.65 3.193-2.01 4.758l-.222.251c-.784.868-1.658 1.652-3.445 3.121l-.536.44-1.485 1.209-1.165.962a1.78 1.78 0 0 1-1.137.408c-.418 0-.821-.145-1.137-.409l-.39-.324-2.967-2.427-.82-.682c-.998-.842-1.643-1.434-2.203-2.026l-.275-.298-.198-.225C2.65 12.617 2 11.095 2 9.424 2 7.8 2.588 6.29 3.66 5.18c1.093-1.128 2.59-1.75 4.21-1.75 1.22 0 2.343.37 3.325 1.094.163.12.32.25.473.387l.224.213.109.113.11-.113.223-.213.233-.2.24-.187a5.502 5.502 0 0 1 3.325-1.094Z" fill="#fff"/></svg>