<svg viewBox="0 0 24 24" fill="currentColor" xmlns="http://www.w3.org/2000/svg"><path fill-rule="evenodd" clip-rule="evenodd" d="M12 2c5.523 0 10 4.477 10 10s-4.477 10-10 10S2 17.523 2 12 6.477 2 12 2ZM8.287 4.352a8.537 8.537 0 0 0-3.758 3.59c.762.12 1.494.225 2.197.313.34-1.32.86-2.621 1.561-3.903ZM3.5 12c0-.92.146-1.807.417-2.637.87.141 1.706.263 2.506.366a14.914 14.914 0 0 0 0 4.542c-.8.102-1.635.225-2.506.366A8.493 8.493 0 0 1 3.5 12Zm1.03 4.058a8.538 8.538 0 0 0 3.757 3.59 16.92 16.92 0 0 1-1.561-3.903 70.25 70.25 0 0 0-2.197.313Zm3.702-.485c.443 1.619 1.189 3.215 2.243 4.79.254.047.513.082.775.104v-5.09c-.926.022-1.932.088-3.018.196Zm4.518-.197v5.091c.262-.022.52-.057.775-.104 1.054-1.575 1.8-3.171 2.242-4.79a41.024 41.024 0 0 0-3.017-.197Zm3.335-1.278a42.877 42.877 0 0 0-3.335-.222v-3.752a42.872 42.872 0 0 0 3.335-.222 13.412 13.412 0 0 1 0 4.196Zm1.189 1.646a16.93 16.93 0 0 1-1.561 3.904 8.537 8.537 0 0 0 3.758-3.59 71.637 71.637 0 0 0-2.197-.313Zm2.809-1.107a75.332 75.332 0 0 0-2.506-.366 14.913 14.913 0 0 0 0-4.542 75.41 75.41 0 0 0 2.506-.366c.27.83.417 1.716.417 2.637 0 .92-.146 1.807-.417 2.637Zm-8.833-.761a42.879 42.879 0 0 0-3.335.222 13.413 13.413 0 0 1 0-4.196c1.2.123 2.312.198 3.335.222v3.752Zm0-10.343v5.09a41.023 41.023 0 0 1-3.018-.197c.443-1.618 1.189-3.214 2.243-4.79.254-.046.513-.08.775-.103Zm1.5 0v5.09a40.356 40.356 0 0 0 3.018-.196c-.443-1.619-1.19-3.215-2.243-4.79a8.504 8.504 0 0 0-.775-.104Zm2.963.819a8.537 8.537 0 0 1 3.758 3.59 73.46 73.46 0 0 1-2.197.314 16.93 16.93 0 0 0-1.561-3.904Z"/></svg>