<svg viewBox="0 0 24 24" fill="currentColor" xmlns="http://www.w3.org/2000/svg"><path d="M7.94 10.2a.847.847 0 0 1 .269.62l-.027.21a.847.847 0 0 1-.613.612l-.21.027a.852.852 0 0 1-.62-.268L4.635 9.296A4.217 4.217 0 0 1 7.614 2.1c1.104 0 2.18.434 2.982 1.235l3.97 3.97a4.215 4.215 0 0 1-2.336 7.17h-.13l-.06.003a.852.852 0 0 1-.848-.787l-.003-.066a.85.85 0 0 1 .78-.847 2.518 2.518 0 0 0 1.395-4.267l-3.97-3.97a2.52 2.52 0 0 0-2.431-.65A2.516 2.516 0 0 0 5.836 8.1l2.105 2.098-.001.001Z"/><path d="M19.26 14.7a4.215 4.215 0 0 1 1.061 4.037 4.211 4.211 0 0 1-2.98 2.98 4.208 4.208 0 0 1-4.07-1.092l-3.972-3.968a4.219 4.219 0 0 1-1.048-4.307 4.212 4.212 0 0 1 3.383-2.863l.132-.01a.856.856 0 0 1 .8 1.17.86.86 0 0 1-.67.537A2.517 2.517 0 0 0 10.5 15.45l3.97 3.97a2.52 2.52 0 0 0 2.431.651 2.515 2.515 0 0 0 1.127-4.21l-2.107-2.108a.85.85 0 0 1 1.201-1.2l.001.001 2.135 2.135v.011Z"/></svg>