<svg width="24" height="25" viewBox="0 0 24 25" fill="none" xmlns="http://www.w3.org/2000/svg"><path fill-rule="evenodd" clip-rule="evenodd" d="M12.149 2.778a8.362 8.362 0 0 1 8.149 8.148v.005a9.048 9.048 0 0 1-1.082 3.76h-.001v.002l-.062.107a64.182 64.182 0 0 1-2.465 3.686c-2.479 3.486-3.536 4.188-4.54 4.19-.316.003-.863-.007-1.921-.993-1.061-.986-2.652-2.951-5.101-6.877v-.001l-.001-.001-.064-.112v-.001a9.012 9.012 0 0 1-1.062-3.761l-.001-.002v-.002a8.362 8.362 0 0 1 8.148-8.148h.003Zm-2.2 7.7a2.202 2.202 0 0 0 2.2 2.2 2.202 2.202 0 0 0 2.198-2.2 2.202 2.202 0 0 0-2.199-2.2 2.203 2.203 0 0 0-2.2 2.2Zm-1.45 0a3.65 3.65 0 1 1 7.3-.002 3.65 3.65 0 0 1-7.3.002Z" fill="currentColor"/></svg>