<svg viewBox="0 0 24 24" fill="currentColor" xmlns="http://www.w3.org/2000/svg"><path fill-rule="evenodd" clip-rule="evenodd" d="M12 11.5a2.5 2.5 0 0 0-.75 4.886V18l.007.102A.75.75 0 0 0 12.75 18v-1.614A2.501 2.501 0 0 0 12 11.5Zm0 1.5a1 1 0 1 1 0 2 1 1 0 0 1 0-2Z"/><path fill-rule="evenodd" clip-rule="evenodd" d="M5 8h2c.048-3.047 2.268-5.5 5-5.5s4.952 2.453 5 5.5h2a1 1 0 0 1 1 1v12a1 1 0 0 1-1 1H5a1 1 0 0 1-1-1V9a1 1 0 0 1 1-1Zm3.505-.114C8.6 5.689 10.166 4 12 4l.177.005c1.756.105 3.225 1.755 3.318 3.88l.003.114H8.502l.003-.113ZM5.5 9.5v11h13v-11h-13Z"/></svg>