<svg viewBox="0 0 24 24" fill="currentColor" xmlns="http://www.w3.org/2000/svg"><path fill-rule="evenodd" clip-rule="evenodd" d="M5.766 16.707h11.838a4.426 4.426 0 0 0 1.16 1.7H4.606a4.426 4.426 0 0 0 1.16-1.7Zm5.916-13.274c.42.037.78.298.963.673a5.199 5.199 0 0 0-.963-.1 5.21 5.21 0 0 0-.963.1c.184-.375.543-.636.963-.673Zm-4.9 7.375c0-1.247.52-2.587 1.394-3.613.873-1.027 2.098-1.738 3.506-1.738 1.41 0 2.633.71 3.506 1.738.874 1.026 1.393 2.366 1.393 3.613-.002.092-.002.184-.002.276 0 1.407.174 2.808.517 4.174H6.27a17.168 17.168 0 0 0 .514-4.45Zm4.84 9.688a2.434 2.434 0 0 1-1.633-.643h3.278a2.434 2.434 0 0 1-1.617.643h-.027Zm8.617-1.637a1.342 1.342 0 0 0-.54-1.54v-.001c-.174-.161-1.666-1.678-1.667-6.51a7.17 7.17 0 0 0-1.74-4.532 6.541 6.541 0 0 0-2.099-1.658v-.093a2.525 2.525 0 0 0-5.05 0v.093a6.566 6.566 0 0 0-2.098 1.657 7.17 7.17 0 0 0-1.74 4.532c0 4.823-1.488 6.337-1.662 6.498a1.338 1.338 0 0 0-.585 1.527 1.426 1.426 0 0 0 1.364 1.012h4.345a.715.715 0 0 0-.147.413.72.72 0 0 0 .2.498 3.904 3.904 0 0 0 5.598 0v-.001a.72.72 0 0 0 .188-.483.716.716 0 0 0-.136-.4h4.405c.625 0 1.18-.41 1.363-1.011l.002-.001Z"/></svg>