<svg viewBox="0 0 24 24" fill="currentColor" xmlns="http://www.w3.org/2000/svg"><path fill-rule="evenodd" clip-rule="evenodd" d="m20.515 18.288-.305.305-3.07-3.07.305-.303a.426.426 0 0 1 .607 0l2.462 2.46a.423.423 0 0 1 .126.305c0 .11-.041.22-.125.303Zm-4.411 2.358a4.943 4.943 0 0 1-3.508-1.462l-7.684-7.688a4.949 4.949 0 0 1-1.46-3.51 4.95 4.95 0 0 1 1.054-3.035L7.56 8.005a2.617 2.617 0 0 0-.572 1.622c0 .671.256 1.345.769 1.857l4.85 4.853a2.613 2.613 0 0 0 3.481.198l3.054 3.055a4.953 4.953 0 0 1-3.038 1.056ZM5.806 3.587h.001a.427.427 0 0 1 .608 0L8.877 6.04a.422.422 0 0 1 .125.304c0 .11-.041.22-.126.304l-.303.304-3.068-3.067.301-.298Zm15.741 13.062-2.463-2.461a1.88 1.88 0 0 0-1.336-.553 1.885 1.885 0 0 0-1.337.553l-1.119 1.119a1.166 1.166 0 0 1-1.651 0l-4.85-4.854a1.164 1.164 0 0 1-.342-.826c0-.3.113-.597.342-.826L9.91 7.68c.368-.367.553-.852.553-1.337 0-.482-.183-.966-.553-1.336L7.446 2.55l.002.002a1.89 1.89 0 0 0-2.671-.001l-.897.889h-.001A6.41 6.41 0 0 0 2 7.987c0 1.644.626 3.29 1.878 4.541l7.685 7.688a6.406 6.406 0 0 0 4.544 1.884 6.408 6.408 0 0 0 4.545-1.884h-.001l.896-.895a1.89 1.89 0 0 0 0-2.674Z"/></svg>