<svg viewBox="0 0 24 24" fill="currentColor" xmlns="http://www.w3.org/2000/svg"><path d="M12 5.75a3.379 3.379 0 0 1 2.85 5.195l-.138.198-1.73 2.33c-.12.161-.196.35-.221.547l-.01.15a.75.75 0 1 1-1.5 0c0-.502.142-.992.406-1.414l.12-.177 1.731-2.33A1.879 1.879 0 0 0 12 7.25c-1.044 0-1.79.497-2.33 1.582a.75.75 0 1 1-1.343-.667C9.112 6.585 10.367 5.75 12 5.75Zm.743 11.148A.75.75 0 0 0 11.25 17v.5l.007.102a.75.75 0 0 0 1.493-.102V17l-.007-.102Z"/><path fill-rule="evenodd" clip-rule="evenodd" d="M22 12c0-5.523-4.477-10-10-10S2 6.477 2 12s4.477 10 10 10 10-4.477 10-10ZM3.5 12a8.5 8.5 0 1 1 17 0 8.5 8.5 0 0 1-17 0Z"/></svg>