<svg viewBox="0 0 24 24" fill="currentColor" xmlns="http://www.w3.org/2000/svg"><path fill-rule="evenodd" clip-rule="evenodd" d="M.552 3.72a.75.75 0 0 1 .976-.416L5.282 4.82l.144.066a1.75 1.75 0 0 1 .877 2.06l-.107.354h.05c.153 0 .277-.112.277-.25 0-.918.784-1.671 1.78-1.744l.159-.006h2.643c.216 0 .413.074.561.197a1.713 1.713 0 0 1 1.188-.652l.158-.008h1.905c.225 0 .448.045.655.132l.152.073 1.8.972c.12-.477.44-.894.898-1.128l.144-.066 3.754-1.516a.75.75 0 0 1 .653 1.347l-.092.044-3.754 1.516a.25.25 0 0 0-.156.242l.01.062 2.217 7.368a.25.25 0 0 0 .255.177l.074-.016 1.062-.407a.75.75 0 0 1 .63 1.357l-.093.043-1.062.408a2.63 2.63 0 0 1-.123.041 1.75 1.75 0 0 1-1.921-.649h-.889l.088.083c.651.613.726 1.621.2 2.324l-.109.13-.073.08a1.704 1.704 0 0 1-1.39.554.755.755 0 0 1-.223.488l-.084.07-.449.328a1.697 1.697 0 0 1-1.8.127c-.323.46-.637.761-.98.909-.355.153-.637.237-.887.246a.723.723 0 0 1-.348-.074l-.822 1.325a1.7 1.7 0 0 1-2.373.536l-.296-.197a1.752 1.752 0 0 1-.635-.758 1.697 1.697 0 0 1-.927-.184l-.163-.096-.095-.063a1.757 1.757 0 0 1-.713-.976 1.629 1.629 0 0 1-.627-.177l-.161-.095a1.72 1.72 0 0 1-.719-1.036 1.52 1.52 0 0 1-.827-.165l-.151-.09a1.617 1.617 0 0 1-.477-2.185l.028-.047-.267-.141a.748.748 0 0 1-.388-.544 1.748 1.748 0 0 1-1.557.277c-.062-.019-.062-.019-.122-.041l-1.062-.408-.093-.043a.75.75 0 0 1 .63-1.357l1.062.407.074.016a.25.25 0 0 0 .255-.177l2.216-7.368.01-.062a.25.25 0 0 0-.155-.242L.967 4.695l-.092-.044a.75.75 0 0 1-.323-.932Zm3.523 10.626a.721.721 0 0 1 .363.035l.092.04.492.26.026.015a1.564 1.564 0 0 1 1.495-.09l.14.075c.317.19.544.475.664.798a1.677 1.677 0 0 1 1.864.918c.341-.028.695.047 1.013.237l.095.057c.246.147.444.345.587.574.428-.115.9-.062 1.313.185l.286.17c.409.244.684.632.798 1.063a.755.755 0 0 1 .07-.006l.06-.014a2.94 2.94 0 0 0 .302-.114c.056-.024.172-.144.324-.356l-1.292-.883a.758.758 0 0 1-.202-1.04.73.73 0 0 1 .929-.26l.095.055 2.363 1.613a.242.242 0 0 0 .227.025l.053-.029.363-.264-1.404-1.017a.758.758 0 0 1-.173-1.046.73.73 0 0 1 .935-.233l.094.058 1.787 1.295c.08.058.185.06.267.012l.056-.046.073-.08.036-.051a.239.239 0 0 0-.009-.232l-.04-.049-5.187-4.883a.748.748 0 0 1-.106-.126c-.566.617-1.095.965-1.63 1.034-.758.097-1.7-.217-2.884-.903a.757.757 0 0 1-.273-1.027l.057-.086 2.474-3.23H8.462c-.153 0-.277.112-.277.25 0 .918-.783 1.671-1.78 1.744l-.159.006h-.5l-1.66 5.515-.01.031Zm13.734-6.52 1.658 5.511h-1.511l-.1.007a.725.725 0 0 0-.233.074l-3.59-3.381-.073-.059h1.101l.1-.007a.746.746 0 0 0 .638-.743c0-.414-.33-.75-.737-.75h-1.195l-.163.008a1.714 1.714 0 0 0-1.227.71c-.637.889-1.136 1.332-1.368 1.362l-.09.006c-.251.002-.62-.1-1.094-.315l-.023-.011 2.916-3.804.04-.041a.243.243 0 0 1 .154-.056h1.905l.06.008.056.021 2.56 1.384.092.041c.04.016.082.027.124.035ZM5.342 16.742l.452-.733a.109.109 0 0 1 .149-.036.058.058 0 0 1 .02.078l-.499.805a.066.066 0 0 1-.092.02l-.027-.027a.098.098 0 0 1-.003-.107Zm2.175.305-.512.83a.213.213 0 0 0 .016.245l.05.045a.172.172 0 0 0 .24-.054l.567-.915a.167.167 0 0 0-.06-.225.22.22 0 0 0-.3.074Zm.978 2.025.656-1.065a.243.243 0 0 1 .332-.082l.096.057c.117.07.157.223.089.342L9 19.4a.242.242 0 0 1-.334.08l-.098-.065a.253.253 0 0 1-.074-.342Zm2.651-.25-.832 1.35a.253.253 0 0 0 .075.343l.276.184c.115.074.267.04.339-.077l.849-1.369a.253.253 0 0 0-.09-.342l-.285-.17a.243.243 0 0 0-.332.082Z"/></svg>