<svg viewBox="0 0 24 24" fill="currentColor" xmlns="http://www.w3.org/2000/svg"><path d="M16.066 15.005a.75.75 0 0 1-.984 1.128l-.077-.067L12 13.06l-3.005 3.005a.75.75 0 0 1-1.128-.984l.067-.077L10.94 12 7.934 8.995a.75.75 0 0 1 .984-1.128l.077.067L12 10.94l3.005-3.005a.75.75 0 0 1 1.128.984l-.067.077L13.06 12l3.005 3.005Z"/><path fill-rule="evenodd" clip-rule="evenodd" d="M19.071 19.071c3.905-3.905 3.905-10.237 0-14.142-3.905-3.905-10.237-3.905-14.142 0-3.905 3.905-3.905 10.237 0 14.142 3.905 3.905 10.237 3.905 14.142 0ZM5.99 5.99a8.5 8.5 0 1 1 12.02 12.02A8.5 8.5 0 0 1 5.99 5.99Z"/></svg>