<svg width="25" height="24" viewBox="0 0 25 24" fill="none" xmlns="http://www.w3.org/2000/svg"><path fill-rule="evenodd" clip-rule="evenodd" d="M9.5 2.25a.75.75 0 0 1 .102 1.493L9.5 3.75H4.25V9a.75.75 0 0 1-.648.743L3.5 9.75a.75.75 0 0 1-.743-.648L2.75 9V3a.75.75 0 0 1 .648-.743L3.5 2.25h6Zm6 0a.75.75 0 0 0-.102 1.493l.102.007h5.25V9c0 .38.282.693.648.743l.102.007a.75.75 0 0 0 .743-.648L22.25 9V3a.75.75 0 0 0-.648-.743L21.5 2.25h-6ZM10.25 21a.75.75 0 0 1-.75.75h-6l-.102-.007A.75.75 0 0 1 2.75 21v-6l.007-.102a.75.75 0 0 1 .743-.648l.102.007A.75.75 0 0 1 4.25 15v5.25H9.5l.102.007a.75.75 0 0 1 .648.743Zm5.25.75a.75.75 0 0 1-.102-1.493l.102-.007h5.25V15a.75.75 0 0 1 .648-.743l.102-.007a.75.75 0 0 1 .743.648l.007.102v6a.75.75 0 0 1-.648.743l-.102.007h-6Zm4-9.5a.75.75 0 0 0-.75-.75h-12l-.102.007A.75.75 0 0 0 6.75 13h12l.102-.007a.75.75 0 0 0 .648-.743Z" fill="currentColor"/></svg>