<svg viewBox="0 0 24 24" fill="currentColor" xmlns="http://www.w3.org/2000/svg"><rect opacity=".01"/><path fill-rule="evenodd" clip-rule="evenodd" d="M12.295 4.07a.75.75 0 0 0-.735.057l-2.978 2-.088.069a.75.75 0 0 0-.117.972l.069.088a.75.75 0 0 0 .972.117l1.832-1.23v9.107l.007.102a.75.75 0 0 0 1.493-.102V6.16l1.836 1.215.097.055a.75.75 0 0 0 .731-1.305l-3.021-2-.098-.055ZM19 12a.75.75 0 0 1 .743.648l.007.102v5.5a1.75 1.75 0 0 1-1.607 1.744L18 20H6a1.75 1.75 0 0 1-1.744-1.607l-.006-.143v-5.5a.75.75 0 0 1 1.493-.102l.007.102v5.5a.25.25 0 0 0 .193.243L6 18.5h12a.25.25 0 0 0 .243-.193l.007-.057v-5.5A.75.75 0 0 1 19 12Z"/></svg>