<svg viewBox="0 0 24 24" fill="currentColor" xmlns="http://www.w3.org/2000/svg"><path fill-rule="evenodd" clip-rule="evenodd" d="M16.42 4.258a.75.75 0 0 0-.97-.14l-.088.066a.75.75 0 0 0-.14.97l1.159 1.816H5.751l-.103.007A.75.75 0 0 0 5.75 8.47h10.646l-1.177 1.883-.052.098a.75.75 0 0 0 1.323.697l1.89-3.02a.746.746 0 0 0-.004-.821l-1.89-2.96-.066-.09Zm-9.34 8.97a.75.75 0 0 1 .97-.14l.088.066a.75.75 0 0 1 .14.97l-1.16 1.815H17.75l.102.007a.75.75 0 0 1-.102 1.493H7.104l1.178 1.884.051.098a.75.75 0 0 1-1.323.697l-1.894-3.027a.746.746 0 0 1 .003-.808l1.894-2.967.067-.089Z"/></svg>