<svg viewBox="0 0 24 24" fill="currentColor" xmlns="http://www.w3.org/2000/svg"><path d="M19.96 8.457c0-.18-.007-.356-.015-.53A8.185 8.185 0 0 0 22 5.8a8.563 8.563 0 0 1-2.363.647 4.078 4.078 0 0 0 1.805-2.266 8.204 8.204 0 0 1-2.6.993 4.099 4.099 0 0 0-7.092 2.803c0 .325.027.637.094.935a11.608 11.608 0 0 1-8.451-4.29 4.135 4.135 0 0 0-.562 2.073c0 1.42.73 2.679 1.821 3.408A4.053 4.053 0 0 1 2.8 9.597v.045a4.12 4.12 0 0 0 3.285 4.029c-.627.171-1.398.165-1.85.065.53 1.623 2.038 2.817 3.83 2.857a8.242 8.242 0 0 1-5.084 1.748A7.72 7.72 0 0 1 2 18.285a11.547 11.547 0 0 0 6.29 1.84c7.545 0 11.67-6.25 11.67-11.668Z"/></svg>