<svg viewBox="0 0 40 40" fill="none" xmlns="http://www.w3.org/2000/svg"><path d="M20 0c13.335 0 20 6.665 20 20s-6.665 20-20 20S0 33.335 0 20 6.665 0 20 0Z" fill="#72C2FF"/><path d="M7.764 26.93c0-8.097 5.42-16.867 15.866-18.558 0 0 3.128-.559 4.637.032.567.177 1.335.838 1.477 1.638.347 1.383-.955 2.512-1.032 2.577.074.026 1.19.432 1.406 1.432.195.909-.433 1.641-1.551 2.024 1.856 1.67 1.465 5.011-.276 6.588 2.467.279 4.38 1.873 4.38 4.267 0 1.7-4.151 2.38-12.457 2.38-8.305 0-12.45-.68-12.45-2.38Z" fill="#B9E1FF"/></svg>