<svg viewBox="0 0 320 274" fill="none" xmlns="http://www.w3.org/2000/svg"><g clip-path="url(#a)"><mask id="b" style="mask-type:luminance" maskUnits="userSpaceOnUse" x="0" y="0" width="320" height="274"><path d="M320 0H0v274h320V0Z" fill="#fff"/></mask><g mask="url(#b)"><path d="M266.499 73.35h-.83c-.24 0-.46.14-.56.36-4.52 10.02-8.7 18.86-12.4 26.25l-17.61 30.45c-.1.19-.1.42 0 .61.11.19.31.3.53.3h29.42c.33 0 .6-.27.6-.6v-22.58c0-5.21.21-10.98.62-17.16.14-2.52.28-6.15.41-10.75.28-2.95.42-5.01.42-6.27 0-.34-.27-.61-.6-.61Zm-1.02 6.8c-.14 4.63-.28 8.25-.42 10.75-.41 6.2-.62 12-.62 17.24v21.97h-27.76l17.1-29.57c3.62-7.25 7.69-15.84 12.08-25.55-.05 1.23-.18 2.96-.38 5.16Z" fill="#A7A7A9"/><path d="M302.75 130.11h-2.71V56.56c0-4.16-1.32-7.58-3.91-10.17s-6.01-3.9-10.16-3.9h-22.79c-6.27 0-11.12 2.74-14.4 8.17l-34.72 58.54-.76 1.28c.2.46.39.93.57 1.41 3.3 8.36 5.87 17.94 7.72 28.74 1.04 6.09 1.74 11.9 2.1 17.45.03.4.05.81.06 1.21h40.69v20.73c0 11.81 5.99 17.8 17.8 17.8s17.8-5.99 17.8-17.8v-20.73h2.71c9.61 0 14.48-4.94 14.48-14.69s-4.87-14.49-14.48-14.49Zm0 27.97h-3.32c-.33 0-.6.27-.6.6v21.34c0 11.16-5.43 16.59-16.59 16.59s-16.59-5.43-16.59-16.59v-21.34c0-.33-.27-.6-.6-.6h-40.17c-.35-5.62-1.05-11.51-2.1-17.65-1.92-11.21-4.64-21.18-8.14-29.84l35.18-59.31c3.09-5.1 7.46-7.58 13.36-7.58h22.79c3.82 0 6.95 1.19 9.31 3.55 2.35 2.35 3.55 5.49 3.55 9.31v74.16c0 .33.27.6.6.6h3.32c8.93 0 13.27 4.35 13.27 13.28s-4.34 13.48-13.27 13.48ZM69.46 74.01h-.83c-.24 0-.45.14-.55.36-4.53 10.02-8.71 18.86-12.4 26.25l-17.61 30.45a.605.605 0 0 0 .52.91h29.42c.33 0 .61-.27.61-.61v-22.58c0-5.22.21-10.99.62-17.16.14-2.52.28-6.15.41-10.75.28-2.96.42-5.01.42-6.27 0-.33-.27-.61-.61-.61v.01Zm-1.02 6.8c-.14 4.63-.28 8.25-.41 10.75-.41 6.19-.62 11.99-.62 17.23v21.97H39.65l17.1-29.58c3.62-7.24 7.69-15.84 12.09-25.55-.05 1.23-.18 2.96-.39 5.17l-.01.01Z" fill="#A7A7A9"/><path d="M113.65 156.97c-1.39-8.65-2.07-16.7-2.04-24.14 0-.42.01-.84.02-1.26-.38-.12-.78-.22-1.2-.32-1.42-.31-2.99-.47-4.72-.47H103V57.22c0-4.15-1.31-7.57-3.91-10.16-2.59-2.6-6.01-3.91-10.16-3.91H66.14c-6.27 0-11.12 2.75-14.4 8.17L5.57 129.18c-1.86 2.71-2.8 6.03-2.8 9.87v6.83c0 4.16 1.31 7.58 3.9 10.17 2.6 2.59 6.02 3.9 10.17 3.9H67.4v20.73c0 11.82 5.99 17.8 17.8 17.8s17.8-5.98 17.8-17.8v-20.73h2.71c2.71 0 5.04-.4 7-1.18.39-.16.78-.34 1.14-.53-.07-.42-.14-.85-.2-1.27Zm-7.94 1.77h-3.32c-.33 0-.6.27-.6.61v21.33c0 11.17-5.43 16.59-16.59 16.59s-16.59-5.42-16.59-16.59v-21.33c0-.34-.27-.61-.6-.61H16.84c-3.82 0-6.95-1.19-9.31-3.55-2.36-2.36-3.55-5.49-3.55-9.31v-6.83c0-3.59.87-6.68 2.61-9.22l46.19-77.89c3.09-5.1 7.46-7.58 13.36-7.58h22.79c3.82 0 6.95 1.2 9.31 3.55 2.35 2.36 3.55 5.49 3.55 9.31v74.16c0 .34.27.61.6.61h3.32c1.74 0 3.31.17 4.71.5-.06 7.73.63 16.09 2.09 25.05-1.86.8-4.12 1.2-6.8 1.2Z" fill="#A7A7A9"/><path d="M163.83 71.02c12.47 0 23.42 4.59 32.86 13.76 12.27 11.91 20.57 30.53 24.9 55.84 4.33 25.32 2.75 45.98-4.74 61.97-7.22 15.11-19.07 24.07-35.54 26.89-3.16.54-6.24.81-9.22.81-12.57 0-23.58-4.79-33.03-14.39-12.34-12.32-20.69-31.24-25.06-56.76-4.37-25.52-2.75-45.94 4.86-61.25 7.18-14.54 19-23.22 35.48-26.04 3.26-.56 6.42-.84 9.49-.84m10.1 130.52c.83 0 1.69-.07 2.56-.22 6.26-1.07 10.31-5.27 12.14-12.59 2.39-8.95 1.94-23.03-1.34-42.22-3.29-19.19-7.51-32.41-12.67-39.65-3.55-4.84-7.79-7.26-12.72-7.26-.9 0-1.83.08-2.77.24-6.13 1.05-10.15 4.96-12.07 11.73-2.46 8.55-2.05 22.42 1.24 41.61 3.31 19.33 7.57 32.75 12.78 40.27 3.56 5.4 7.85 8.09 12.86 8.09M163.84 69.8c-3.13 0-6.39.29-9.7.85-16.8 2.87-29.03 11.86-36.36 26.7-7.69 15.47-9.36 36.33-4.97 62 4.39 25.66 12.94 44.98 25.4 57.42 9.64 9.78 21.04 14.74 33.89 14.74 3.04 0 6.21-.28 9.43-.83 16.8-2.87 29.06-12.15 36.43-27.56 7.57-16.16 9.19-37.25 4.84-62.7-4.36-25.45-12.85-44.47-25.25-56.51-9.63-9.36-20.97-14.11-33.7-14.11h-.01Zm10.1 130.52c-4.62 0-8.5-2.47-11.85-7.55-5.1-7.35-9.33-20.74-12.59-39.8-3.24-18.92-3.66-32.74-1.27-41.07 1.8-6.35 5.43-9.9 11.11-10.87.88-.15 1.74-.23 2.57-.23 4.56 0 8.4 2.21 11.74 6.76 5.02 7.05 9.22 20.22 12.45 39.14 3.24 18.93 3.7 32.96 1.37 41.71-1.72 6.89-5.38 10.71-11.17 11.7-.8.14-1.6.21-2.36.21Z" fill="#A7A7A9"/><mask id="c" style="mask-type:luminance" maskUnits="userSpaceOnUse" x="114" y="69" width="118" height="133"><path d="M125.229 147.96s.17 1.38.35 2.01c.96 3.28 2.39 6.29 4.42 8.87 5.04 6.4 13.36 10.24 21.57 10.34 0 .03.01.06.02.08 2.7 10.9 5.86 18.96 9.47 24.18 4.16 6.3 9.3 8.92 15.43 7.87 6.26-1.07 10.31-5.27 12.14-12.59 1.09-4.08-5.53-7.48.54-8.78 3.15-.67 43.48 10.55 41.95-5.66-1.83-19.38-7.31-91.27-29.54-104.48-6.1-3.63-48.41 8.54-54.53 9.59-6.12 1.05-24.87 15.9-26.79 22.67-.98 3.42-9.32 23.01-4.76 29.64-1.47 3.21 4.38 6.43 6.01 8.64 0 0 .44 4.23 3.73 7.61l-.01.01Z" fill="#fff"/></mask><g mask="url(#c)"><path d="M146.679 143.12c-1.66-11.29-2.27-4 .24-5.6 2.82-1.8 5.55-3.32 7.89-4.47l.03-.02c.73-.46 18.56-11.34 40.49-.24.17.08.35.16.52.26 3.91 1.91 6.96-4.41 9.16 1.06 1.81 4.5.7 6.41 9.95 13.47 4.23 3.23 11.47 4.54 13.37 13.98 2.53 12.59-3.75 16.3-13.91 18.49-2 .61-12.11 2.79-14.61 3.25-6.34 1.19-14.36 1.89-24.5 2.01-4.11.05-17.47 2.47-20.48-5.87 0 0-3.86-7.31-8.14-36.33l-.01.01Z" fill="#8B6340"/><path d="M217.529 156.911c.97.37 1.3 1.38.72 2.25-.81-.66-.99-1.24-.72-2.25Zm2.851-2.31c4.54 2.91 3.04 12.52-1.03 15.24 1.84-2.12 2.26-4.93 2.7-7.59.39-2.67.15-5.49-1.67-7.65Z" fill="#DAB28B"/><path d="M133.689 137.45c1.81-2.9 5.71-2.78 6.88.6.11.39.22.77.28 1.16-.27-.3-.49-.61-.71-.92-1.82-2.53-3.96-2.29-6.45-.84Z" fill="#FBA391"/><path d="M207.31 142.811c3.8 9.32-18.04-3.76-20.21-5.11-.02-2.12-.21-4.15-.55-6.05a38.98 38.98 0 0 1-10.91-2.29c-2.21-.79-4.33-1.79-6.36-2.95-7.73-4.44-13.99-11.4-17.8-19.83-10.24 5.62-13.27 15.86-15.56 30.18-2.5 1.6-1.88 1.86-4.29 3.83-3.24-3.83-4.99-8.74-4.99-13.88 0-17.04 10.1-27.36 25.64-31.99 3.42-1.03 7.28-1.64 11.02-1.64 26.08 0 39.36 13.12 39.96 28.58.38 9.79 4.09 21.25 4.06 21.14l-.01.01Z" fill="#8B6340"/><path d="m158.619 167.371 4.74 7.81c.26.44.65.76 1.09.91 2.47.84 11.14 4.31 15.81-7.38.2-.49.24-1.07.06-1.61l-3.55-10.52s-14.9 1.17-18.15 10.78v.01Z" fill="#FAE7DA"/><path d="m158.619 167.37 1.71 2.82c7 1.93 15.05.44 19.36-4.93l-2.93-8.67s-14.9 1.17-18.15 10.78h.01Z" fill="#ECB69E"/><path d="M140.53 132.511c-1.35-.25-2.74-.24-4.08.07-2.06.47-4.06 1.74-4.81 3.72-.37.97-.41 2.03-.33 3.06.27 3.55 1.96 6.96 4.6 9.34 1.03.93 2.22 1.7 3.53 2.15.66.23 1.4.34 2.04.08-1.11-3.63-1.59-7.6-1.59-11.71 0-2.27.22-4.52.63-6.71h.01Z" fill="#FFCFBC"/><path d="M189.27 132.631c-2.39-15.17-14.7-28.3-28.51-28.3-13.81 0-21.67 11.04-24.22 25.51-.4 2.26-.61 4.58-.61 6.91 0 4.23-1.51 9.46-.42 13.2.96 3.28 2.39 6.29 4.42 8.87 5.11 6.49 13.7 10.53 21.9 10.35 8.73-.19 16.52-4.51 21.64-11.56 1.38-1.9 2.55-3.99 3.51-6.22 1.75-4.09 2.73-8.67 2.73-13.5 0-1.78-.15-3.54-.42-5.28l-.02.02Z" fill="#FAE7DA"/><path d="M136.289 133.56c.77-9.41 13.35-21.15 14.35-20.63 10.07 6.08 23.06 17.37 35.75 13.99-3.78-13.18-14.23-22.88-27.2-22.77-13.22.11-23.46 11.43-26.28 25.01.43 2.04 2.13 3.2 3.38 4.4Z" fill="#ECB69E"/><path d="M181.89 99.74c-6.42-5.09-9.77-6.66-18.6-6.66-3.74 0-7.6.61-11.02 1.64-3.93 1.17-6.65 2.2-9.93 4.5-5.74 5.271-12.83 11.641-12.83 19.741 0 5.53 3.53 13.39 6.41 17.79 2.99-12.45 6.4-20.99 14.3-29.45 3.81 8.43 11.33 14.66 19.06 19.1 2.03 1.16 4.14 2.15 6.36 2.95 3.45 1.26 9.83 3.03 13.63 3.27.02.14.61-8.84.61-13.49 0-7.46-3.02-14.26-7.98-19.4l-.01.01Z" fill="#8B6340"/><path d="M148.029 139.57c1.077 0 1.95-1.208 1.95-2.7 0-1.491-.873-2.7-1.95-2.7s-1.95 1.209-1.95 2.7c0 1.492.873 2.7 1.95 2.7Zm16.951-.73c1.496 0 2.71-1.674 2.71-3.74 0-2.065-1.214-3.74-2.71-3.74-1.497 0-2.71 1.675-2.71 3.74 0 2.066 1.213 3.74 2.71 3.74Z" fill="#5B401E"/><path d="M141.49 151.63c2.91 0 5.27-2.78 5.27-6.21 0-3.429-2.36-6.21-5.27-6.21-2.911 0-5.27 2.781-5.27 6.21 0 3.43 2.359 6.21 5.27 6.21Z" fill="#ECB69E"/><path d="M138.869 144.32c.436 0 .79-.42.79-.94 0-.519-.354-.94-.79-.94-.436 0-.79.421-.79.94 0 .52.354.94.79.94Z" fill="#FFF5F2"/><path d="M178.35 148.84c3.479 0 6.3-2.78 6.3-6.21 0-3.429-2.821-6.21-6.3-6.21-3.48 0-6.3 2.781-6.3 6.21 0 3.43 2.82 6.21 6.3 6.21Z" fill="#ECB69E"/><path d="M181.379 141.62a.94.94 0 1 0 0-1.88.94.94 0 0 0 0 1.88Z" fill="#FFF5F2"/><path d="M189.419 117.811c1.99 4.66 1.98 10.26-.05 14.9.65-5.04.67-9.86.05-14.9Z" fill="#7A5437"/><path d="M147.34 122.74a6.17 6.17 0 0 1 4.47-1.76" stroke="#5B401E" stroke-width="1.01" stroke-miterlimit="10" stroke-linecap="round"/><path d="M136.079 110.64c-1.81.78-2.79 2.57-2.96 4.53-.04.51.04 1.13.5 1.36.2.1.44.11.66.1 2.29-.15 4.15-2.55 3.73-4.8-.09-.46-.27-.93-.65-1.22-.38-.29-.97-.32-1.29.04m27.28 3.35c1.13 3.61 4.09 6.38 7.36 8.27.56.32 1.16.64 1.81.67.65.03 1.36-.28 1.59-.88.45-1.14-.89-2.68-.01-3.53.53-.51 1.4-.23 2.07.08.76.36 1.53.71 2.29 1.07.68.32 1.39.64 2.13.62.75-.01 1.54-.47 1.69-1.21.16-.81-.5-1.55-1.17-2.04-2.12-1.56-4.89-2.21-7.48-1.75-.73.13-1.48.35-2.2.2-1.29-.26-2.07-1.54-3.1-2.37a4.979 4.979 0 0 0-3.35-1.08c-.42.02-.85.11-1.18.37-.33.26-.66 1.2-.45 1.57" fill="#DAB28B"/><path d="M203.29 122.581c-.25-3.41-.2-4.43-1.26-6.47-7.19-13.79-20.1-24.95-37.06-24.95-3.88 0-7.62.6-11.18 1.57-11.29 3.09-12.73 5.61-17.41 10.46 23.9-2.27 50.59 2.14 66.91 19.39Z" fill="#754C2D"/><path d="M197.25 136.581c-.75-1.97-2.75-3.25-4.81-3.72-.8-.18-1.62-.25-2.44-.23h-.02c-2.41-.29-3.25 5.25-3.86 10.29-.55 4.59-.97 7.28 1.12 8.24h.03c.13.06.26.1.4.13.06.01.11.03.17.04.02 0 .03 0 .05.01h.19c.46.02.93-.08 1.37-.22 1.31-.45 2.5-1.23 3.53-2.15 2.65-2.37 4.33-5.79 4.6-9.34.08-1.03.04-2.09-.33-3.06v.01Z" fill="#FAF0DA"/><path d="M194.69 137.741c-3.4-.01-5.1 1.74-5.94 4.77-.11.41-.21.82-.37 1.23-.84-3.87 2.28-7.81 6.31-6.01v.01Zm-2.25-4.88c-3.14.22-5.72 1.73-6.73 4.8-.16.41-.29.83-.48 1.26a8.95 8.95 0 0 1 0-1.37c.23-3.58 3.86-5.9 7.21-4.68v-.01Z" fill="#FFCFBC"/><path d="m137.329 99.89.29 2.041s.84-.21 1.92-.22c1.08-.01 21.77-2.7 33.28.36 0 0-13.78-7.4-35.5-2.19l.01.01Z" fill="#872422"/><path d="M184.92 93.8c-1.26-2.3-2.57-4.26-3.8-5.5-5.43-5.49-8.15-4.37-8.07.39.01.41.04.84.1 1.29 4.74 1.28 10.23 6.06 14.76 12.45-.71-3.1-1.77-6.03-2.99-8.63Z" fill="#CF1317"/><path d="M204.28 115.02c.03.77.1.99.02 1.73v.04c-.03.36-.08.72-.14 1.07-.07.27-.18.5-.31.67-.62.82-.77.12-1.9-.82-.21-.23-.44-.46-.66-.69-8.34-8.52-17.13-13-33.69-16.02-10.06-1.84-21.54-2.25-29.8-.94-.77.12-1.5.19-1.75-1.11-.1-.51.1-1.24.36-1.88 1.12-2.71 11.08-11.17 22.49-12.46 5.81-.66 13.5 1.27 16.93 2.7 10.65 4.45 19.43 11.38 24.9 19.69 1.83 2.78 2.65 3.89 3.18 6.25.08.36.36 1.35.37 1.76v.01Z" fill="#E6454D"/><path d="M204.279 115.02c-.02-.41-.29-1.39-.37-1.76-.54-2.37-1.12-3.54-3.18-6.25-.4-.52-.73-1.13-1.15-1.67-2.92-.41-3.32 1.19-8.9-.66-17.6-5.84-36.78-11.59-53.31-4.56.23.01.2-.01.44-.05 8.26-1.31 19.74-.89 29.8.94 16.56 3.01 25.35 7.49 33.69 16.02.22.23.45.46.66.69 1.13.93 1.27 1.64 1.9.82.13-.17.24-.4.31-.67.06-.36.11-.71.14-1.07v-.04c.07-.75 0-.96-.03-1.73v-.01Z" fill="#CF1317"/><path d="M160.923 159.09c3.521-1.007 5.347-5.418 4.079-9.851-1.268-4.434-5.15-7.212-8.671-6.206-3.52 1.007-5.346 5.418-4.078 9.852 1.268 4.433 5.15 7.212 8.67 6.205Z" fill="#C27970"/><path d="M157.25 146.3c1.52-.43 2.85-1.09 3.87-1.83-1.42-.98-3.08-1.36-4.65-.91-1.57.45-2.78 1.65-3.47 3.23 1.26.1 2.73-.06 4.25-.49Z" fill="#FDFAF3"/><path d="M164.57 154.42c.18.08-1.52 3.64-3.8 4.18-2.32.55-4.75-.45-6.43-2.61 0 0 3.91-4.31 10.23-1.57Z" fill="#ECB69E"/><path d="M169.529 148.28c1 4.93-.86 9.27-7.8 10.88-5.28 1.22-10.29-1.81-11.73-6.62-1.75-5.85-1.52-9.29 7.71-10.51 5.37-.71 10.82 1.33 11.82 6.25Z" fill="#C27970"/><path d="M169.529 148.28c.05.23.09.47.12.7-1.56.06-3.19.25-4.87.59-5.91 1.2-10.67 3.89-12.58 6.78a9.665 9.665 0 0 1-2.2-3.81c-1.16-3.9-1.46-6.73 1.21-8.54 2.23 1.76 5.57 2.53 9.04 1.83 2.12-.43 3.98-1.36 5.42-2.58 1.96 1.05 3.4 2.72 3.87 5.03h-.01Z" fill="#C27970"/><path d="M164.87 143.46c-1.24 1.05-2.95 2.1-4.78 2.48-2.99.61-5.92-.27-7.84-1.79 1.16-.78 3-1.13 5.66-1.48 2.46-.33 5.06-.23 6.97.8l-.01-.01Z" fill="#FDFAF3"/><path d="M169.169 149.15c.64 4.23-1.4 7.87-7.44 9.28-3.36.78-6.72 0-8.82-2.24 1.75-2.64 6.14-5.26 11.53-6.36 1.54-.31 3.31-.63 4.73-.68Z" fill="#ECB69E"/></g><path d="M160.23 147.92c-.06-.1-.12-.19-.18-.28v-.01c.24.31.25.36.19.29h-.01Z" fill="#6EBFD2"/><path d="M194.15 132.23c-1.76-12.32-13.2-20.86-25.54-19.1-12.35 1.76-20.94 13.16-19.18 25.48 1.44 10.12 9.43 17.66 19.07 19.06.99.14 1.75.95 1.84 1.95l1.9 20.38 1.87-.17 1.16 11.53 6.02-.86-3.18-31.68c-.1-.99.49-1.92 1.42-2.26 9.82-3.57 16.15-13.6 14.62-24.32v-.01Zm-19.97 19.92c-9.27 1.33-17.85-5.1-19.17-14.34-1.32-9.24 5.12-17.81 14.39-19.14 9.27-1.33 17.85 5.1 19.17 14.35 1.32 9.24-5.12 17.81-14.39 19.13Z" fill="#24AC6E"/><path opacity=".3" fill-rule="evenodd" clip-rule="evenodd" d="M169.399 118.68c-9.27 1.32-15.71 9.89-14.39 19.14 1.32 9.25 9.91 15.67 19.18 14.34 9.27-1.32 15.71-9.89 14.39-19.14-1.32-9.25-9.91-15.67-19.18-14.34Z" fill="#fff"/><path d="M200.06 186.33c-5.49-1.69-9.54-3.78-9.54-3.78-1.63-1.6-4.1-4.92-5.75-6.5-1.64-1.58-2.79-2.78-5.12-1.93.07 1.61.22 2.47-1.88 2.87-2.27.13-4.19.4-6.36 1.03-2.83.82-5.31 1.79-5.44 5.85-.06 1.77-.07 3.46 1.82 9.02 1.35 4.59 5.4 7.85 10.12 8.06 2.56.11 7.31-.77 9.87-.71 1.62-.04 7.54 3.99 10.87 5.8 6.46 3.51 13.5 6.52 22.06 6.72 5-.37 9.55-2.38 11.39-7.23 3.5-9.23-6.41-12.96-10.21-14.22-6.09-2.02-16.18-3.22-21.84-4.97l.01-.01Z" fill="#FAE7DA"/><path d="M177.909 125.91c.4.25.8.51 1.19.77.1.07.2.14.29.21.03.02.27.2.11.08-.18-.14.12.1.15.12l.21.18c.31.27.58.57.85.87.29.33-.11-.17.04.05l.21.3c.13.2.26.4.37.6.13.23.25.46.37.7.03.05.12.25.05.09.06.14.11.28.16.42.18.51.31 1.03.41 1.56.05.29-.02-.22.01.08.02.15.03.3.04.44.01.27.02.53 0 .8 0 .12-.01.24-.02.35-.01.12-.01.12 0-.01l-.03.18c-.05.29-.12.58-.21.87-.25.85.3 1.89 1.19 2.09.89.2 1.83-.27 2.09-1.19.77-2.67.28-5.55-1.05-7.95-1.12-2.02-2.81-3.34-4.72-4.55-.75-.48-1.91-.18-2.33.61-.44.84-.19 1.82.61 2.33h.01Zm-5.469 20.66c-.29.05-.58.11-.87.16l-.36.06c-.3.05.22-.02-.07.01-.47.06-.94.09-1.41.08-.14 0-.27 0-.41-.02-.03 0-.35-.03-.19-.01.16.02-.17-.03-.2-.03a9.832 9.832 0 0 1-1.92-.56c-.26-.1.2.1-.05-.03-.1-.05-.2-.09-.3-.14-.22-.11-.44-.23-.66-.36a18 18 0 0 1-.56-.37c-.08-.05-.19-.15-.05-.03-.11-.09-.21-.18-.32-.27-.35-.31-.68-.65-.97-1.01.11.14.02.03-.03-.05l-.18-.27a6.3 6.3 0 0 1-.4-.72c-.4-.8-1.59-1.09-2.33-.61-.81.52-1.04 1.47-.61 2.33 1.12 2.23 3.13 3.82 5.4 4.76 1.14.47 2.37.75 3.6.8 1.23.05 2.54-.19 3.78-.43.88-.16 1.45-1.27 1.19-2.09-.3-.94-1.15-1.36-2.09-1.19l.01-.01Z" opacity=".4" fill="#fff"/></g></g><defs><clipPath id="a"><path fill="#fff" d="M0 0h320v274H0z"/></clipPath></defs></svg>