<svg viewBox="0 0 120 40" fill="currentColor" xmlns="http://www.w3.org/2000/svg"><path d="M25.226 34.645h-.917v3.451h-.495v-3.45h-.532v-.42h.532v-.27a1.25 1.25 0 0 1 .32-.934c.295-.224.66-.33 1.028-.298v.429a.979.979 0 0 0-.67.187.815.815 0 0 0-.183.615v.27h.917v.42Zm1.844-.279a1.51 1.51 0 0 1 .816-.206v.486h-.137a1.234 1.234 0 0 0-.853.289 1.255 1.255 0 0 0-.321.932v2.164h-.486v-3.87h.486v.69a1.21 1.21 0 0 1 .495-.485Zm2.23 3.553a1.702 1.702 0 0 1-.68-.7c-.17-.32-.256-.68-.247-1.044-.01-.367.076-.731.247-1.054.164-.292.401-.534.688-.7a1.98 1.98 0 0 1 .972-.242c.34-.003.673.08.973.242a1.7 1.7 0 0 1 .678.7c.172.323.257.686.248 1.054.007.364-.078.724-.248 1.044a1.674 1.674 0 0 1-.688.7c-.302.162-.64.245-.981.242a1.947 1.947 0 0 1-.963-.242Zm1.659-.364c.22-.118.402-.3.523-.522.138-.264.208-.56.201-.858a1.78 1.78 0 0 0-.201-.868 1.267 1.267 0 0 0-.514-.522 1.384 1.384 0 0 0-.697-.177 1.384 1.384 0 0 0-.697.177c-.218.119-.397.3-.513.522a1.779 1.779 0 0 0-.193.868c-.009.298.057.593.193.858.114.223.294.406.513.522.21.12.447.18.688.177.244.005.484-.056.697-.177Zm7.877-2.965a1.722 1.722 0 0 1 .421 1.25v2.266h-.486v-2.21a1.453 1.453 0 0 0-.293-.934 1.08 1.08 0 0 0-.816-.326 1.112 1.112 0 0 0-.862.354c-.231.3-.345.675-.321 1.054v2.099h-.477v-2.21a1.406 1.406 0 0 0-.303-.933 1.091 1.091 0 0 0-.825-.327 1.094 1.094 0 0 0-.853.355 1.52 1.52 0 0 0-.321 1.054v2.098h-.495v-3.87h.495v.662c.116-.23.294-.42.513-.55a1.52 1.52 0 0 1 .743-.187c.307-.005.61.079.871.242.254.168.445.418.542.71.086-.29.272-.538.522-.7.253-.17.55-.257.853-.252.396-.032.788.095 1.092.355Zm6.356-1.409v.653h-2.054v1.455h1.641v.662h-1.605v2.155h-.797V33.18h2.815Zm1.623 0v3.143a1.126 1.126 0 0 0 .293.84c.223.198.513.298.807.28a1.11 1.11 0 0 0 .807-.28 1.113 1.113 0 0 0 .294-.84v-3.143h.789v3.125a1.89 1.89 0 0 1-.257 1.026 1.58 1.58 0 0 1-.688.615c-.287.136-.6.206-.917.205a2.125 2.125 0 0 1-.917-.205 1.559 1.559 0 0 1-.679-.615 1.994 1.994 0 0 1-.257-1.026V33.18h.725Zm8.226 4.925h-.798l-2.384-3.731v3.73h-.798v-4.933h.798l2.384 3.675v-3.675h.798v4.934Zm5.247 0h-.789l-2.394-3.731v3.73h-.797v-4.933h.797l2.394 3.675v-3.675h.789v4.934Zm2.228-.271a2.349 2.349 0 0 1-.917-.932 2.57 2.57 0 0 1-.33-1.297 2.541 2.541 0 0 1 .33-1.296 2.35 2.35 0 0 1 .917-.933 2.49 2.49 0 0 1 1.247-.317c.436-.006.865.104 1.247.317.389.213.707.538.917.933.224.393.338.842.33 1.296a2.57 2.57 0 0 1-.33 1.297 2.28 2.28 0 0 1-.917.932 2.488 2.488 0 0 1-1.247.317 2.489 2.489 0 0 1-1.247-.317Zm2.1-.606c.253-.15.46-.37.596-.634.14-.29.212-.61.21-.933a2.109 2.109 0 0 0-.21-.932 1.575 1.575 0 0 0-.596-.635 1.71 1.71 0 0 0-.853-.214 1.81 1.81 0 0 0-.862.214c-.25.151-.454.37-.587.635a2.004 2.004 0 0 0-.211.932c-.005.324.067.644.21.933.134.263.337.483.588.634.262.151.56.229.862.224a1.62 1.62 0 0 0 .853-.224Zm8.776-4.048-1.44 4.925h-.917l-1.017-3.731-1.083 3.73h-.917l-1.375-4.933h.843l1 4.01 1.091-4.01h.917l1.018 3.992 1.01-3.992.87.01Zm5.319 1.25c.25.154.45.377.578.644v-.84h.486v3.973a1.89 1.89 0 0 1-.23.933c-.143.268-.36.488-.623.634a1.89 1.89 0 0 1-.917.224c-.433.014-.86-.11-1.22-.354a1.486 1.486 0 0 1-.596-.933h.477c.084.263.252.49.477.643.257.167.557.251.862.243.23.004.459-.054.66-.168.198-.105.361-.267.468-.466a1.56 1.56 0 0 0 .165-.737v-.933c-.122.273-.324.5-.578.653a1.612 1.612 0 0 1-.917.261c-.32 0-.636-.084-.917-.242a1.704 1.704 0 0 1-.642-.709 2.242 2.242 0 0 1-.238-1.045 2.212 2.212 0 0 1 .238-1.044c.143-.291.366-.534.642-.7.28-.158.596-.242.917-.242.316-.02.63.051.908.205Zm-1.568.364c-.214.125-.388.31-.504.531a1.891 1.891 0 0 0-.184.84 1.82 1.82 0 0 0 .184.83c.115.227.29.417.504.55.222.124.471.188.725.187.251.004.499-.064.715-.196.22-.124.4-.312.513-.541.132-.253.198-.535.193-.82a1.731 1.731 0 0 0-.193-.831 1.259 1.259 0 0 0-.513-.54 1.329 1.329 0 0 0-.789-.16c-.24-.008-.48.044-.697.15h.046Zm4.815-.429a1.51 1.51 0 0 1 .816-.206v.486h-.138a1.234 1.234 0 0 0-.852.289 1.255 1.255 0 0 0-.321.932v2.164h-.486v-3.87h.486v.69a1.21 1.21 0 0 1 .495-.485Zm2.256 3.553a1.702 1.702 0 0 1-.679-.7c-.17-.32-.256-.68-.247-1.044a2.031 2.031 0 0 1 .256-1.054c.158-.294.393-.536.679-.7.28-.151.59-.234.908-.242.339-.003.673.08.972.242.29.161.53.404.688.7.172.323.257.686.248 1.054.004.365-.085.724-.257 1.044a1.674 1.674 0 0 1-.688.7c-.302.162-.64.245-.981.242a1.946 1.946 0 0 1-.9-.242Zm1.66-.364c.222-.116.405-.298.523-.522.142-.262.212-.559.201-.858a1.683 1.683 0 0 0-.201-.868 1.221 1.221 0 0 0-.514-.522 1.384 1.384 0 0 0-.752-.14 1.384 1.384 0 0 0-.697.177c-.218.12-.397.3-.514.523a1.778 1.778 0 0 0-.192.867c-.01.298.057.593.192.858.117.222.296.404.514.522a1.368 1.368 0 0 0 1.412-.037h.028Zm5.511-3.32v3.87H90.9v-.662a1.14 1.14 0 0 1-.514.55 1.586 1.586 0 0 1-.78.196 1.49 1.49 0 0 1-1.118-.429 1.684 1.684 0 0 1-.431-1.24v-2.267h.477v2.202c-.013.339.099.67.312.932a1.108 1.108 0 0 0 .853.336 1.11 1.11 0 0 0 .917-.355 1.5 1.5 0 0 0 .33-1.044v-2.108l.44.019Zm4.182.186c.279.166.505.408.652.7.16.323.239.682.229 1.044.009.363-.07.721-.23 1.045-.146.295-.372.54-.65.709a1.81 1.81 0 0 1-.918.242 1.648 1.648 0 0 1-.917-.26 1.482 1.482 0 0 1-.577-.644v2.677h-.477v-5.7h.477v.85c.125-.269.326-.493.577-.644.275-.176.593-.266.917-.261a1.81 1.81 0 0 1 .917.242Zm-1.742.383a1.26 1.26 0 0 0-.514.54 1.73 1.73 0 0 0-.192.83 1.72 1.72 0 0 0 .192.822c.114.229.293.417.514.54.216.133.464.2.715.196.253.002.503-.063.725-.186a1.39 1.39 0 0 0 .504-.55 1.82 1.82 0 0 0 .184-.83 1.891 1.891 0 0 0-.184-.84 1.334 1.334 0 0 0-.504-.532 1.475 1.475 0 0 0-.725-.186 1.33 1.33 0 0 0-.715.196ZM17.266 14.947v7.368a2.437 2.437 0 0 1-.628 1.91 2.352 2.352 0 0 1-1.839.749 2.312 2.312 0 0 1-.99-.178 2.346 2.346 0 0 1-.827-.582 2.425 2.425 0 0 1-.613-1.898v-6.79c0-2.687-1.21-4.104-3.568-4.104-2.357 0-3.897 1.707-3.897 4.58v6.313a2.426 2.426 0 0 1-.622 1.91 2.345 2.345 0 0 1-1.837.749 2.312 2.312 0 0 1-.99-.178 2.347 2.347 0 0 1-.826-.582 2.426 2.426 0 0 1-.613-1.898V9.751a2.417 2.417 0 0 1 .613-1.895 2.324 2.324 0 0 1 1.817-.754 2.294 2.294 0 0 1 1.584.506c.448.362.75.88.846 1.453h.064a6.423 6.423 0 0 1 2.328-1.689 6.324 6.324 0 0 1 2.817-.493c4.65 0 7.181 2.835 7.181 8.067Zm3.155-12.143a2.67 2.67 0 0 1 .16-1.1c.13-.35.332-.669.592-.934.26-.265.574-.47.919-.602a2.547 2.547 0 0 1 1.08-.162 2.566 2.566 0 0 1 1.997.768c.26.264.462.582.592.932.13.35.186.724.163 1.098a2.715 2.715 0 0 1-.75 2.054c-.259.27-.571.481-.916.62a2.61 2.61 0 0 1-1.085.19 2.593 2.593 0 0 1-1.09-.183 2.63 2.63 0 0 1-.919-.62 2.719 2.719 0 0 1-.743-2.06Zm3.394 6.91v12.601a2.426 2.426 0 0 1-.622 1.91 2.345 2.345 0 0 1-1.837.749 2.313 2.313 0 0 1-.99-.178 2.348 2.348 0 0 1-.826-.582 2.426 2.426 0 0 1-.613-1.898V9.714a2.388 2.388 0 0 1 .617-1.88 2.31 2.31 0 0 1 .827-.57c.313-.126.65-.181.986-.162a2.307 2.307 0 0 1 1.831.72 2.388 2.388 0 0 1 .627 1.892Zm17.873 12.424a8.95 8.95 0 0 1-3.163 2.32 8.81 8.81 0 0 1-3.834.73c-5.503 0-9.281-3.73-9.281-9.15 0-5.418 3.787-9.159 9.28-9.159a9.146 9.146 0 0 1 6.42 2.435 2.392 2.392 0 0 1 .715 1.707 2.187 2.187 0 0 1-.612 1.664 2.088 2.088 0 0 1-1.634.63 2.252 2.252 0 0 1-1.504-.55 5.115 5.115 0 0 0-3.384-1.343c-2.532 0-4.283 1.865-4.283 4.663a4.324 4.324 0 0 0 1.152 3.243 4.173 4.173 0 0 0 3.131 1.328c.67.01 1.335-.123 1.951-.392a4.77 4.77 0 0 0 1.625-1.166c.208-.233.461-.418.744-.543a2.15 2.15 0 0 1 .898-.185 2.15 2.15 0 0 1 1.627.639 2.252 2.252 0 0 1 .648 1.646 2.32 2.32 0 0 1-.496 1.483Zm11.014 3.05c-5.677 0-9.464-3.73-9.464-9.15 0-5.418 3.787-9.158 9.28-9.158 4.935 0 8.75 3.637 8.75 7.806v.299a2.443 2.443 0 0 1-.675 1.86 2.33 2.33 0 0 1-1.82.713H48.236a4.38 4.38 0 0 0 1.634 2.5 4.25 4.25 0 0 0 2.832.84 4.96 4.96 0 0 0 1.983-.36 5.029 5.029 0 0 0 1.686-1.123 2.214 2.214 0 0 1 1.605-.69 1.97 1.97 0 0 1 1.547.574 2.038 2.038 0 0 1 .598 1.561 2.367 2.367 0 0 1-.504 1.456 8.822 8.822 0 0 1-3.144 2.217 8.69 8.69 0 0 1-3.77.655Zm-4.466-11.061h8.391a4.03 4.03 0 0 0-1.528-2.239 3.914 3.914 0 0 0-2.58-.737c-2.11.019-3.889 1.175-4.283 2.976Zm32.86-11.472v19.66a2.437 2.437 0 0 1-.628 1.91 2.323 2.323 0 0 1-1.838.748 2.26 2.26 0 0 1-1.595-.539 2.334 2.334 0 0 1-.8-1.503h-.064a6.717 6.717 0 0 1-2.413 1.741 6.615 6.615 0 0 1-2.915.516c-4.961 0-8.254-3.6-8.254-9.15 0-5.549 3.284-9.158 8.254-9.158a6.577 6.577 0 0 1 2.892.504c.915.384 1.735.97 2.4 1.716h.073V2.655a2.415 2.415 0 0 1 .61-1.892 2.33 2.33 0 0 1 1.811-.757 2.34 2.34 0 0 1 1.838.742 2.419 2.419 0 0 1 .629 1.907Zm-4.888 13.384a4.434 4.434 0 0 0-.244-1.78 4.378 4.378 0 0 0-.93-1.53 4.29 4.29 0 0 0-1.455-1.018 4.228 4.228 0 0 0-1.736-.336c-2.495 0-4.246 1.866-4.246 4.664 0 2.798 1.751 4.607 4.246 4.607a4.229 4.229 0 0 0 1.722-.331 4.289 4.289 0 0 0 1.448-1.004c.41-.433.728-.947.933-1.51a4.432 4.432 0 0 0 .262-1.762Zm24.936-6.324v12.6a2.44 2.44 0 0 1-.108 1.026 2.394 2.394 0 0 1-1.36 1.464c-.317.13-.658.187-1 .169a2.26 2.26 0 0 1-1.593-.54 2.334 2.334 0 0 1-.8-1.503h-.073a6.699 6.699 0 0 1-2.409 1.74c-.92.39-1.915.567-2.91.517-4.962 0-8.254-3.6-8.254-9.15 0-5.549 3.283-9.158 8.254-9.158.995-.05 1.99.126 2.91.516.92.39 1.743.985 2.409 1.74h.073c.065-.587.35-1.126.796-1.504a2.231 2.231 0 0 1 1.598-.529 2.313 2.313 0 0 1 1.833.72c.236.249.414.547.524.874.109.327.147.675.11 1.018Zm-4.898 6.323a4.425 4.425 0 0 0-.24-1.779 4.38 4.38 0 0 0-.927-1.53 4.282 4.282 0 0 0-1.454-1.018 4.221 4.221 0 0 0-1.735-.336c-2.494 0-4.246 1.865-4.246 4.663s1.752 4.608 4.246 4.608a4.22 4.22 0 0 0 1.721-.332 4.282 4.282 0 0 0 1.447-1.004c.409-.433.726-.947.93-1.51a4.424 4.424 0 0 0 .258-1.762Zm23.735-6.323v13.477c0 5.447-3.357 8.749-8.896 8.749-3.283 0-5.924-.933-7.245-2.686a2.332 2.332 0 0 1-.504-1.493 2.195 2.195 0 0 1 .635-1.703 2.115 2.115 0 0 1 1.685-.62 1.98 1.98 0 0 1 1.33.477 5.48 5.48 0 0 0 1.848 1.17c.687.261 1.418.38 2.15.35a3.733 3.733 0 0 0 1.577-.207c.505-.182.966-.47 1.354-.847a3.902 3.902 0 0 0 1.169-2.93v-1.211h-.074a6.34 6.34 0 0 1-2.295 1.66 6.244 6.244 0 0 1-2.776.485c-4.586 0-7.108-2.798-7.108-8.058V9.715a2.4 2.4 0 0 1 .104-1.01 2.346 2.346 0 0 1 1.341-1.44 2.29 2.29 0 0 1 .985-.162c.339-.024.678.028.995.153a2.317 2.317 0 0 1 1.357 1.442c.109.327.145.674.106 1.017v6.025c0 2.658 1.22 4.104 3.504 4.104 2.43 0 3.861-1.707 3.861-4.57V9.678a2.363 2.363 0 0 1 .626-1.892 2.28 2.28 0 0 1 1.831-.72 2.29 2.29 0 0 1 1.835.739 2.367 2.367 0 0 1 .605 1.91Z"/></svg>