<svg viewBox="0 0 40 40" fill="none" xmlns="http://www.w3.org/2000/svg"><path d="M20 0c13.335 0 20 6.665 20 20s-6.665 20-20 20S0 33.335 0 20 6.665 0 20 0Z" fill="#FFD069"/><path d="M7.764 26.93c0-8.097 5.42-16.867 15.866-18.559 0 0 3.128-.558 4.637.033.567.176 1.335.838 1.477 1.638.347 1.382-.955 2.512-1.032 2.576.074.027 1.19.433 1.406 1.433.195.908-.433 1.64-1.551 2.023 1.856 1.67 1.465 5.012-.276 6.588 2.467.28 4.38 1.873 4.38 4.268 0 1.7-4.151 2.379-12.457 2.379-8.305 0-12.45-.68-12.45-2.38Z" fill="#FFE7B4"/></svg>