<svg width="400" height="110" viewBox="0 0 400 110" fill="none" xmlns="http://www.w3.org/2000/svg">
<mask id="mask0_7452_143923" style="mask-type:luminance" maskUnits="userSpaceOnUse" x="0" y="0" width="400" height="110">
<path d="M400 0H0V110H400V0Z" fill="white"/>
</mask>
<g mask="url(#mask0_7452_143923)">
<path d="M226.323 20.9756L216.744 39.416C215.466 41.8764 216.424 44.9069 218.885 46.1849L355.289 117.041C357.749 118.319 360.78 117.361 362.058 114.901L371.637 96.4601C372.915 93.9998 371.957 90.9693 369.496 89.6912L233.092 18.8349C230.632 17.5568 227.601 18.5153 226.323 20.9756Z" fill="#30C07B"/>
<path d="M242.62 82.3101C241.91 92.6201 235.62 98.4301 226.47 99.7701C224.66 100.19 222.64 100.53 220.39 100.79C214.69 101.46 207.53 101.59 198.53 101.08C194.88 100.88 191.53 100.58 188.48 100.2C179.7 99.1201 173.3 97.3801 168.67 95.1401C168.65 95.1401 168.63 95.1301 168.62 95.1201C161.19 92.1101 156.8 85.8101 157.44 76.4801C157.81 71.0301 163.08 65.6201 169.26 61.2601C171.53 59.6601 173.92 58.2001 176.24 56.9301C178.85 55.5001 181.37 54.3201 183.51 53.4401C183.51 53.4401 183.51 53.4401 183.53 53.4301C184.21 53.0701 200.69 44.4901 219.49 55.6801C219.64 55.7601 219.79 55.8501 219.94 55.9401C223.29 57.8701 227.58 60.8301 231.52 64.2901C233.23 65.7901 234.87 67.3801 236.35 69.0401C240.22 73.3501 242.93 78.0301 242.63 82.3201L242.62 82.3101Z" fill="#754C2D"/>
<path d="M233.99 53.37V53.53C234.29 54.12 234.23 54.68 234.21 55.23C234.12 55.58 234.07 55.92 234.02 56.26C234 56.43 233.97 56.58 233.95 56.74C233.92 56.94 233.89 57.12 233.85 57.31C233.32 60.21 232.44 62.81 231.34 64.93C229.51 63.33 227.61 61.84 225.77 60.51C225.88 58.63 225.84 56.81 225.65 55.11C222.3 54.67 219.09 53.75 216.1 52.42C214.18 51.58 212.36 50.57 210.64 49.42C204.05 45.01 198.92 38.45 196.05 30.74C186.62 35.11 179.08 45.12 176.18 57.69C173.86 58.96 171.47 60.42 169.2 62.02C167.82 57.95 167.2 53.55 167.52 48.99C168.55 33.87 179.48 21.78 193.55 18.62C196.65 17.92 199.89 17.65 203.22 17.88C217.74 18.87 229.46 28.99 233.18 42.24C234.09 45.46 234.52 48.87 234.4 52.38C234.4 52.72 234.38 53.06 234.01 53.38L233.99 53.37Z" fill="#8B6340"/>
<path d="M176.47 50.5899C175.29 50.2899 174.05 50.2099 172.84 50.3999C170.99 50.6899 169.13 51.6999 168.35 53.4099C167.97 54.2499 167.87 55.1899 167.87 56.1099C167.9 59.2699 169.18 62.4099 171.39 64.6799C172.25 65.5699 173.26 66.3299 174.4 66.8099C174.97 67.0499 175.63 67.1999 176.21 67.0099C175.44 63.7199 175.26 60.1699 175.51 56.5199C175.65 54.5099 175.98 52.5199 176.47 50.5999V50.5899Z" fill="#FFCFBC"/>
<path d="M170.11 54.55C171.52 52.5 174.47 52.11 175.79 54.48C176.15 55.11 176.33 55.83 176.36 56.54C175.94 55.96 175.58 55.39 175.15 54.92C173.71 53.2 171.95 53.76 170.11 54.54V54.55Z" fill="#FBA391"/>
<path d="M232.78 59.34C232.24 57.54 230.53 56.29 228.74 55.75C227.83 55.47 226.87 55.36 225.91 55.39C226.06 56.91 226.09 58.43 225.98 59.96C225.69 64.13 224.53 68.02 222.71 71.43C222.8 71.52 222.9 71.61 223.01 71.68C223.58 72.03 224.31 71.95 224.96 71.78C226.15 71.46 227.25 70.84 228.23 70.08C230.72 68.13 232.43 65.2 232.88 62.07C233.01 61.16 233.04 60.21 232.78 59.33V59.34Z" fill="#FFCFBC"/>
<path d="M231.67 59.23C229.95 58.2 228.29 57.42 226.62 58.92C226.13 59.32 225.7 59.84 225.2 60.36C225.32 59.65 225.61 58.97 226.05 58.39C227.68 56.22 230.55 57.01 231.67 59.23Z" fill="#FBA391"/>
<path d="M225.93 55.32C224.66 42.09 214.29 30.02 201.78 29.16C189.27 28.3 179.66 38.2 176.49 50.52C176 52.45 175.66 54.43 175.53 56.44C175.28 60.08 175.47 63.64 176.23 66.93C176.9 69.82 178.02 72.5 179.71 74.85C183.95 80.76 191.39 84.61 198.92 85.13C206.83 85.67 214.15 82.27 219.19 76.51C220.55 74.96 221.74 73.23 222.73 71.37C224.55 67.95 225.71 64.07 226 59.9C226.1 58.37 226.07 56.84 225.93 55.33V55.32Z" fill="#FAF0DA"/>
<path d="M178.38 49.2402C180.87 41.2202 194.06 33.4602 194.83 34.1002C202.4 41.3302 211.49 53.6502 223.17 53.1602C222.43 40.9802 215.24 30.5402 203.95 28.1302C192.45 25.6702 181.37 33.5102 176.29 44.7602C176.27 46.6102 177.53 47.9502 178.37 49.2402H178.38Z" fill="#ECB69E"/>
<path d="M223.45 26.51C218.06 21.6 211.04 18.4 203.2 17.87C199.88 17.64 196.63 17.91 193.53 18.61C189.97 19.41 186.61 20.79 183.57 22.63C178.15 26.96 174.54 33.24 174.05 40.43C173.71 45.33 174.87 50.02 177.16 54.1C180.57 43.23 187.53 34.68 196.04 30.74C198.91 38.46 204.04 45.01 210.63 49.42C212.36 50.57 214.18 51.58 216.09 52.42C219.08 53.75 222.55 54.94 225.9 55.38C225.91 55.5 229.06 48.33 229.35 44.21C229.8 37.59 227.53 31.37 223.44 26.51H223.45Z" fill="#8B6340"/>
<path d="M196.27 56.6469C196.361 55.308 195.658 54.1695 194.7 54.1039C193.741 54.0384 192.89 55.0707 192.798 56.4096C192.707 57.7486 193.41 58.8871 194.368 58.9526C195.327 59.0182 196.178 57.9859 196.27 56.6469Z" fill="#5B401E"/>
<path d="M223.219 63.4008C223.915 60.4157 222.059 57.4314 219.074 56.7351C216.089 56.0388 213.105 57.8942 212.409 60.8793C211.712 63.8643 213.568 66.8486 216.553 67.5449C219.538 68.2412 222.522 66.3858 223.219 63.4008Z" fill="#ECB69E"/>
<path d="M215.29 61.4101C214.81 61.4101 214.43 61.0101 214.44 60.5301C214.44 60.0501 214.84 59.6701 215.32 59.6801C215.8 59.6801 216.18 60.0801 216.17 60.5601C216.17 61.0401 215.77 61.4201 215.29 61.4101Z" fill="#FFF5F2"/>
<path d="M188.647 61.0387C189.344 58.0537 187.488 55.0693 184.503 54.3731C181.518 53.6768 178.534 55.5322 177.838 58.5172C177.141 61.5023 178.997 64.4866 181.982 65.1829C184.967 65.8792 187.951 64.0237 188.647 61.0387Z" fill="#ECB69E"/>
<path d="M180.72 59.05C180.24 59.05 179.86 58.65 179.87 58.17C179.87 57.69 180.27 57.31 180.75 57.32C181.23 57.32 181.61 57.72 181.6 58.2C181.6 58.68 181.2 59.06 180.72 59.05Z" fill="#FFF5F2"/>
<path d="M177.22 54.13C173.29 49.13 173.09 43.28 175.28 37.48C174.59 44.53 174.38 47.44 177.22 54.13Z" fill="#7A5437"/>
<path d="M225.79 42.3301C227.76 46.2901 227.92 51.5001 226.2 55.5801C226.33 53.3401 226.46 51.1701 226.38 48.9401C226.32 46.7201 226.06 44.5501 225.79 42.3301Z" fill="#7A5437"/>
<path fill-rule="evenodd" clip-rule="evenodd" d="M196.945 46.5589C195.657 46.2232 194.226 46.4419 193.101 47.1404C192.869 47.2847 192.564 47.2133 192.42 46.9811C192.275 46.7488 192.347 46.4436 192.579 46.2994C193.934 45.4579 195.644 45.1967 197.195 45.6009C197.459 45.6699 197.618 45.9402 197.549 46.2047C197.48 46.4693 197.21 46.6279 196.945 46.5589Z" fill="#5B401E"/>
<path fill-rule="evenodd" clip-rule="evenodd" d="M204.399 57.2318C205.59 56.1614 207.223 55.6062 208.817 55.7263C209.09 55.7469 209.294 55.9845 209.274 56.2571C209.253 56.5297 209.016 56.7341 208.743 56.7135C207.861 56.6471 206.96 56.8308 206.164 57.2235C206.896 57.3325 207.828 57.5498 208.544 58.0013C208.775 58.1471 208.845 58.4528 208.699 58.684C208.553 58.9153 208.247 58.9845 208.016 58.8386C207.457 58.4862 206.656 58.2926 205.948 58.1926C205.603 58.1437 205.295 58.1192 205.075 58.107C204.964 58.1009 204.877 58.0979 204.817 58.0964C204.787 58.0956 204.765 58.0953 204.75 58.0951L204.734 58.095L204.73 58.0949C204.73 58.0949 204.73 58.0949 204.73 58.0949C204.73 58.0949 204.73 58.0949 204.73 57.5999M204.399 57.2318C204.247 57.3689 204.195 57.5858 204.268 57.7772L204.399 57.2318ZM204.268 57.7772C204.341 57.9685 204.525 58.0949 204.73 58.0949L204.268 57.7772Z" fill="#5B401E"/>
<path d="M182.13 33.41C180.48 33.99 179.5 35.52 179.23 37.25C179.16 37.7 179.2 38.25 179.59 38.49C179.76 38.59 179.97 38.61 180.17 38.61C182.21 38.61 184.01 36.6 183.77 34.57C183.72 34.15 183.58 33.72 183.27 33.45C182.96 33.17 182.43 33.11 182.13 33.4" fill="#DAB28B"/>
<path d="M206.13 38.0399C206.92 41.3099 209.38 43.9499 212.16 45.8299C212.64 46.1499 213.15 46.4599 213.72 46.5399C214.29 46.6099 214.94 46.3799 215.19 45.8599C215.66 44.8699 214.56 43.4299 215.39 42.7299C215.89 42.3099 216.65 42.6099 217.23 42.9299C217.89 43.2899 218.54 43.6499 219.2 44.0199C219.78 44.3399 220.39 44.6699 221.06 44.6999C221.72 44.7299 222.46 44.3699 222.63 43.7299C222.82 43.0199 222.28 42.3199 221.72 41.8499C219.93 40.3299 217.51 39.5899 215.18 39.8499C214.52 39.9199 213.85 40.0699 213.21 39.8899C212.08 39.5799 211.47 38.3999 210.61 37.5999C209.82 36.8699 208.77 36.4499 207.7 36.4299C207.33 36.4299 206.94 36.4699 206.63 36.6899C206.33 36.9099 205.97 37.7199 206.13 38.0499" fill="#DAB28B"/>
<path d="M233.82 78.1501C234.68 78.4301 234.96 79.5401 234.32 80.1901C233.63 79.6901 233.44 78.9101 233.82 78.1501Z" fill="#DAB28B"/>
<path d="M235.65 75.6301C236.7 76.3801 237.35 77.6101 237.63 78.8501C238.17 81.3601 237.43 84.0401 236.36 86.3101C235.79 87.4401 234.96 88.5201 233.81 89.1001C234.69 88.2001 235.24 87.1301 235.65 86.0001C236.75 82.6801 237.83 78.7601 235.65 75.6301Z" fill="#DAB28B"/>
<path d="M234.6 49.56C234.4 47.58 234.02 45.65 233.48 43.77C229.62 30.51 217.53 20.37 202.57 19.35C199.15 19.12 195.81 19.42 192.61 20.07C182.47 22.13 181.04 24.28 176.62 28.3C197.84 27.73 221.26 33.26 234.6 49.56Z" fill="#754C2D"/>
<path d="M165.51 70.9499C164.86 72.4099 163.97 73.8499 163.21 75.2299C162.94 75.6899 162.67 76.1599 162.36 76.6299L162.3 76.4899C162.3 76.4899 162.3 76.5099 162.31 76.5099C162.37 76.5299 162.45 76.4699 162.45 76.3799C162.51 76.4299 162.5 76.5299 162.46 76.5899C162.41 76.6799 162.3 76.7299 162.2 76.6899L162.14 76.6699V76.5499C162.25 74.3599 163.6 72.0099 165.53 70.9299L165.51 70.9499Z" fill="#DAB28B"/>
<path d="M166.88 72.8701C166.57 74.0001 165.99 75.4501 165.6 76.5501C165.18 77.6501 164.68 79.1201 164.18 80.1801C163.8 77.6501 164.95 74.5501 166.88 72.8701Z" fill="#DAB28B"/>
<path d="M177.93 25.27L178.06 27.06C178.06 27.06 178.8 26.93 179.74 26.99C180.68 27.05 198.77 25.94 208.57 29.27C208.57 29.27 197.06 22.04 177.93 25.27Z" fill="#872422"/>
<path d="M219.55 22.8101C218.59 20.7401 217.57 18.9601 216.58 17.8201C212.2 12.7401 209.77 13.5501 209.56 17.6801C209.54 18.0401 209.55 18.4101 209.56 18.8101C213.59 20.2001 218.07 24.6701 221.61 30.4801C221.18 27.7501 220.43 25.1501 219.53 22.8201L219.55 22.8101Z" fill="#C81317"/>
<path d="M235.07 42.36C235.05 43.03 235.1 43.22 234.99 43.87V43.9C234.94 44.21 234.88 44.52 234.81 44.82C234.73 45.05 234.63 45.24 234.5 45.38C233.91 46.05 233.82 45.44 232.9 44.56C232.73 44.35 232.55 44.13 232.37 43.92C225.65 36.04 218.29 31.63 204.12 28.04C195.51 25.85 185.58 24.81 178.34 25.46C177.66 25.52 177.03 25.54 176.88 24.39C176.82 23.94 177.04 23.32 177.31 22.78C178.44 20.5 187.58 13.76 197.54 13.32C202.62 13.1 209.17 15.22 212.05 16.67C221.02 21.16 228.22 27.68 232.46 35.21C233.88 37.73 234.52 38.74 234.85 40.82C234.9 41.14 235.08 42.01 235.07 42.36Z" fill="#DF454D"/>
<path d="M235.07 42.3601C235.08 42.0001 234.9 41.1401 234.85 40.8201C234.52 38.7401 234.09 37.6901 232.46 35.2101C232.15 34.7301 231.89 34.1901 231.56 33.7001C229.06 33.1701 228.61 34.5401 223.89 32.6001C208.98 26.4901 192.7 20.3701 177.95 25.4901C178.15 25.5101 178.12 25.4901 178.33 25.4701C185.57 24.8301 195.5 25.8701 204.11 28.0501C218.28 31.6401 225.64 36.0501 232.36 43.9301C232.54 44.1401 232.72 44.3601 232.89 44.5701C233.81 45.4501 233.9 46.0601 234.49 45.3901C234.62 45.2501 234.72 45.0601 234.8 44.8301C234.87 44.5301 234.93 44.2201 234.98 43.9101V43.8801C235.09 43.2401 235.04 43.0501 235.06 42.3701L235.07 42.3601Z" fill="#C81317"/>
<path d="M188.68 66.48C188.81 72 194.48 76.87 200.46 76.76C206.44 76.65 211.18 72.08 211.05 66.57C211.04 66.14 211 65.72 210.93 65.31C206.72 64.59 201.93 64.15 196.85 64.03C194.13 63.97 191.49 64.01 188.98 64.14C188.77 64.88 188.66 65.66 188.68 66.48Z" fill="#C27970"/>
<path d="M192.81 64.86C193.78 66.41 196.05 67.72 200.24 67.91C204.43 68.11 206.93 67.21 207.97 65.56V65.45C204.65 65.02 201.04 64.73 197.26 64.6C195.76 64.55 194.29 64.52 192.86 64.52C192.83 64.63 192.75 64.76 192.81 64.86Z" fill="#FDFAF3"/>
<path d="M191.59 71.94C193.76 74.35 196.72 76.01 199.98 75.98C202.99 75.95 205.58 74.93 207.47 72.91C204.99 71.65 201.38 70.74 197.98 70.77C195.35 70.79 193.13 70.88 191.59 71.94Z" fill="#ECB69E"/>
<path d="M281.81 112.7L283.46 87.36C283.65 84.48 281.36 82.03 278.47 82.03H121.06C118.17 82.03 115.88 84.47 116.07 87.36L117.72 112.7H281.81Z" fill="#30C07B"/>
<mask id="mask1_7452_143923" style="mask-type:luminance" maskUnits="userSpaceOnUse" x="116" y="82" width="168" height="31">
<path d="M281.81 112.7L283.46 87.36C283.65 84.48 281.36 82.03 278.47 82.03H121.06C118.17 82.03 115.88 84.47 116.07 87.36L117.72 112.7H281.81Z" fill="white"/>
</mask>
<g mask="url(#mask1_7452_143923)">
<path d="M199.14 79.1301V115.9C199.14 116.7 200.39 116.71 200.39 115.9V79.1301C200.39 78.3301 199.14 78.3201 199.14 79.1301Z" fill="white"/>
</g>
<path d="M239.22 82.0501C239.47 82.0501 239.72 82.0601 239.97 82.0501C240.78 82.0501 241.43 82.7101 241.42 83.5201C241.4 84.7501 241.67 86.0001 242.23 87.0701C242.68 87.9401 243.41 88.7801 244.39 88.9201C245.36 89.0601 246.46 88.1101 246.14 87.1801C246.83 87.8501 247.83 88.3301 248.75 88.0601C249.68 87.7901 250.25 86.5001 249.59 85.7901C250.24 86.5001 251.1 87.1401 252.06 87.0601C253.02 86.9801 253.85 85.8201 253.3 85.0301C253.85 86.0101 255.43 85.9501 256.21 85.1301C256.99 84.3101 257.09 83.0501 256.91 81.9401C256.29 78.1301 252.58 75.2001 248.72 75.1001C244.86 75.0101 240.83 77.3801 239.5 81.0001C239.41 81.2501 239.23 82.0201 239.23 82.0201L239.22 82.0501Z" fill="#FAF0DA"/>
<path d="M163.79 82.0499H163.77C162.62 82.0899 161.66 82.9599 161.59 84.1099C161.53 85.1499 161.26 86.1799 160.79 87.0799C160.34 87.9499 159.61 88.7899 158.63 88.9299C157.66 89.0699 156.56 88.1199 156.88 87.1899C156.19 87.8599 155.19 88.3399 154.27 88.0699C153.34 87.7999 152.77 86.5099 153.43 85.7999C152.78 86.5099 151.92 87.1499 150.96 87.0699C150 86.9899 149.17 85.8299 149.72 85.0399C149.17 86.0199 147.59 85.9599 146.81 85.1399C146.03 84.3199 145.93 83.0599 146.11 81.9499C146.73 78.1399 150.44 75.2099 154.3 75.1099C158.16 75.0199 162.19 77.3899 163.52 81.0099C163.61 81.2599 163.79 82.0299 163.79 82.0299V82.0499Z" fill="#FAF0DA"/>
<path d="M304.29 55.86C309.27 47.4 319.68 42.48 329.36 44.51C334 45.48 339.4 49.42 337.31 54.8C335.22 60.18 327.75 61.56 322.61 61.4C319.28 61.3 315.99 60.61 312.83 59.61C309.67 58.61 306.61 57.37 304.2 55.1C303.89 54.81 303.23 54.88 303.16 55.38C302.26 61.48 303.75 67.74 307.78 72.48C312.24 77.72 319.01 79.94 325.74 79.74C326.54 79.72 326.55 78.47 325.74 78.49C319.41 78.67 313.12 76.67 308.85 71.82C305 67.44 303.51 61.44 304.35 55.72L303.31 56C305.56 58.12 308.33 59.42 311.22 60.42C314.45 61.54 317.82 62.33 321.24 62.6C326.81 63.03 334.1 62.01 337.54 57.03C339.09 54.79 339.54 51.84 338.32 49.36C337.23 47.16 335.26 45.44 333.05 44.42C328.45 42.3 322.74 42.48 317.94 43.8C311.98 45.43 306.34 49.95 303.21 55.25C302.8 55.94 303.88 56.57 304.29 55.88V55.86Z" fill="#88E6BC"/>
<path d="M304.31 55.84C306.91 50.87 307.76 44.65 306.73 39.15C305.78 34.09 302.87 28.73 298.8 25.51C294.73 22.29 288.47 21.54 285.32 26.39C281.95 31.6 284.74 38.78 287.87 43.41C289.78 46.23 292.15 48.73 294.74 50.94C297.33 53.15 300.22 55.23 303.6 56.12L303.32 55.08C298.91 58.82 293.04 60.74 287.28 59.79C280.91 58.74 275.86 54.46 272.68 48.98C272.28 48.29 271.19 48.91 271.6 49.61C274.99 55.43 280.44 60 287.24 61.04C293.38 61.97 299.51 59.94 304.21 55.96C304.58 55.65 304.36 55.03 303.93 54.92C298.72 53.54 294.16 49.26 290.78 45.22C287.4 41.18 284.1 35.16 285.32 29.63C285.89 27.04 287.8 24.62 290.52 24.19C293.09 23.79 295.72 24.75 297.76 26.28C301.5 29.09 304.13 33.85 305.26 38.33C306.63 43.77 305.82 50.23 303.22 55.2C302.85 55.91 303.93 56.54 304.3 55.83L304.31 55.84Z" fill="#88E6BC"/>
<mask id="mask2_7452_143923" style="mask-type:luminance" maskUnits="userSpaceOnUse" x="216" y="18" width="156" height="100">
<path d="M226.62 21.2777L217.091 39.6205C215.819 42.0711 216.773 45.0895 219.224 46.3625L354.971 116.878C357.422 118.151 360.44 117.196 361.713 114.746L371.242 96.4027C372.515 93.9522 371.56 90.9337 369.109 89.6608L233.362 19.1455C230.911 17.8726 227.893 18.8272 226.62 21.2777Z" fill="white"/>
</mask>
<g mask="url(#mask2_7452_143923)">
<path d="M303.21 55.2202C298.31 64.4102 293.41 73.6002 288.52 82.7902L286.45 86.6802C286.07 87.3902 287.15 88.0202 287.53 87.3102C292.43 78.1202 297.33 68.9302 302.22 59.7402L304.29 55.8502C304.67 55.1402 303.59 54.5102 303.21 55.2202Z" fill="#88E6BC"/>
</g>
<path d="M36.85 88.73C33.6 89.44 33.03 90.01 32.32 93.26C31.61 90.01 31.04 89.44 27.79 88.73C31.04 88.02 31.61 87.45 32.32 84.2C33.03 87.45 33.6 88.02 36.85 88.73Z" fill="#88E6BC"/>
<path fill-rule="evenodd" clip-rule="evenodd" d="M36.85 88.73C36.0639 88.5582 35.4346 88.3947 34.9222 88.1994C33.8285 87.7827 33.2673 87.2215 32.8506 86.1278C32.6553 85.6154 32.4918 84.9861 32.32 84.2C32.1483 84.9861 31.9848 85.6154 31.7895 86.1278C31.3728 87.2215 30.8115 87.7827 29.7179 88.1994C29.2055 88.3947 28.5762 88.5582 27.79 88.73C28.5762 88.9017 29.2055 89.0652 29.7179 89.2605C30.8115 89.6772 31.3728 90.2384 31.7895 91.3321C31.9848 91.8445 32.1483 92.4738 32.32 93.26C32.4918 92.4738 32.6553 91.8445 32.8506 91.3321C33.2673 90.2384 33.8285 89.6772 34.9222 89.2605C35.4346 89.0652 36.0639 88.9017 36.85 88.73ZM33.7139 88.73C33.4241 88.5589 33.1613 88.3604 32.9254 88.1246C32.6896 87.8887 32.4911 87.6259 32.32 87.3361C32.149 87.6259 31.9505 87.8887 31.7146 88.1246C31.4788 88.3604 31.216 88.5589 30.9262 88.73C31.216 88.901 31.4788 89.0995 31.7146 89.3354C31.9505 89.5712 32.149 89.834 32.32 90.1238C32.4911 89.834 32.6896 89.5712 32.9254 89.3354C33.1613 89.0995 33.4241 88.901 33.7139 88.73Z" fill="#88E6BC"/>
<path d="M36.85 88.73C33.6 89.44 33.03 90.01 32.32 93.26C31.61 90.01 31.04 89.44 27.79 88.73C31.04 88.02 31.61 87.45 32.32 84.2C33.03 87.45 33.6 88.02 36.85 88.73Z" fill="#88E6BC"/>
<path fill-rule="evenodd" clip-rule="evenodd" d="M32.32 83.7949C32.5104 83.7949 32.675 83.9275 32.7157 84.1135C33.0727 85.7477 33.3757 86.5879 33.9189 87.131C34.462 87.6742 35.3022 87.9772 36.9364 88.3343C37.1224 88.3749 37.255 88.5396 37.255 88.7299C37.255 88.9203 37.1224 89.085 36.9364 89.1256C35.3022 89.4826 34.462 89.7857 33.9189 90.3288C33.3757 90.872 33.0727 91.7121 32.7157 93.3464C32.675 93.5323 32.5104 93.6649 32.32 93.6649C32.1296 93.6649 31.965 93.5323 31.9243 93.3464C31.5673 91.7121 31.2643 90.872 30.7211 90.3288C30.178 89.7857 29.3378 89.4826 27.7036 89.1256C27.5176 89.085 27.385 88.9203 27.385 88.7299C27.385 88.5396 27.5176 88.3749 27.7036 88.3343C29.3378 87.9772 30.178 87.6742 30.7211 87.131C31.2643 86.5879 31.5673 85.7477 31.9243 84.1135C31.965 83.9275 32.1296 83.7949 32.32 83.7949ZM29.4237 88.7299C30.2211 88.9823 30.8264 89.2886 31.2939 89.756C31.7613 90.2235 32.0677 90.8288 32.32 91.6263C32.5723 90.8288 32.8787 90.2235 33.3461 89.756C33.8136 89.2886 34.4189 88.9823 35.2163 88.7299C34.4189 88.4776 33.8136 88.1713 33.3461 87.7038C32.8787 87.2363 32.5723 86.631 32.32 85.8336C32.0677 86.631 31.7613 87.2363 31.2939 87.7038C30.8264 88.1713 30.2211 88.4776 29.4237 88.7299Z" fill="#88E6BC"/>
<path d="M372.35 53.1699C369.1 53.8799 368.53 54.4499 367.82 57.6999C367.11 54.4499 366.54 53.8799 363.29 53.1699C366.54 52.4599 367.11 51.8899 367.82 48.6399C368.53 51.8899 369.1 52.4599 372.35 53.1699Z" fill="#88E6BC"/>
<path fill-rule="evenodd" clip-rule="evenodd" d="M372.35 53.1699C371.564 52.9982 370.935 52.8346 370.422 52.6393C369.329 52.2226 368.767 51.6614 368.351 50.5678C368.155 50.0553 367.992 49.426 367.82 48.6399C367.648 49.426 367.485 50.0553 367.289 50.5678C366.873 51.6614 366.312 52.2226 365.218 52.6393C364.705 52.8346 364.076 52.9982 363.29 53.1699C364.076 53.3416 364.705 53.5052 365.218 53.7004C366.312 54.1172 366.873 54.6784 367.289 55.772C367.485 56.2844 367.648 56.9138 367.82 57.6999C367.992 56.9138 368.155 56.2844 368.351 55.772C368.767 54.6784 369.329 54.1172 370.422 53.7004C370.935 53.5052 371.564 53.3416 372.35 53.1699ZM369.214 53.1699C368.924 52.9988 368.661 52.8003 368.425 52.5645C368.19 52.3287 367.991 52.0658 367.82 51.776C367.649 52.0658 367.45 52.3287 367.215 52.5645C366.979 52.8003 366.716 52.9988 366.426 53.1699C366.716 53.3409 366.979 53.5394 367.215 53.7753C367.45 54.0111 367.649 54.274 367.82 54.5638C367.991 54.274 368.19 54.0111 368.425 53.7753C368.661 53.5394 368.924 53.3409 369.214 53.1699Z" fill="#88E6BC"/>
<path d="M372.35 53.1699C369.1 53.8799 368.53 54.4499 367.82 57.6999C367.11 54.4499 366.54 53.8799 363.29 53.1699C366.54 52.4599 367.11 51.8899 367.82 48.6399C368.53 51.8899 369.1 52.4599 372.35 53.1699Z" fill="#88E6BC"/>
<path fill-rule="evenodd" clip-rule="evenodd" d="M367.82 48.2351C368.01 48.2351 368.175 48.3677 368.216 48.5537C368.573 50.1879 368.876 51.0281 369.419 51.5712C369.962 52.1144 370.802 52.4174 372.436 52.7744C372.622 52.8151 372.755 52.9797 372.755 53.1701C372.755 53.3605 372.622 53.5251 372.436 53.5658C370.802 53.9228 369.962 54.2258 369.419 54.769C368.876 55.3121 368.573 56.1523 368.216 57.7865C368.175 57.9725 368.01 58.1051 367.82 58.1051C367.63 58.1051 367.465 57.9725 367.424 57.7865C367.067 56.1523 366.764 55.3121 366.221 54.769C365.678 54.2258 364.838 53.9228 363.204 53.5658C363.018 53.5251 362.885 53.3605 362.885 53.1701C362.885 52.9797 363.018 52.8151 363.204 52.7744C364.838 52.4174 365.678 52.1144 366.221 51.5712C366.764 51.0281 367.067 50.1879 367.424 48.5537C367.465 48.3677 367.63 48.2351 367.82 48.2351ZM364.924 53.1701C365.721 53.4224 366.326 53.7288 366.794 54.1962C367.261 54.6637 367.568 55.269 367.82 56.0664C368.072 55.269 368.379 54.6637 368.846 54.1962C369.314 53.7288 369.919 53.4224 370.716 53.1701C369.919 52.9178 369.314 52.6114 368.846 52.144C368.379 51.6765 368.072 51.0712 367.82 50.2738C367.568 51.0712 367.261 51.6765 366.794 52.144C366.326 52.6114 365.721 52.9178 364.924 53.1701Z" fill="#88E6BC"/>
<path d="M153.31 19.27C150.06 19.98 149.49 20.55 148.78 23.8C148.07 20.55 147.5 19.98 144.25 19.27C147.5 18.56 148.07 17.99 148.78 14.74C149.49 17.99 150.06 18.56 153.31 19.27Z" fill="#88E6BC"/>
<path fill-rule="evenodd" clip-rule="evenodd" d="M153.31 19.27C152.524 19.0983 151.895 18.9347 151.382 18.7394C150.288 18.3227 149.727 17.7615 149.311 16.6679C149.115 16.1554 148.952 15.5261 148.78 14.74C148.608 15.5261 148.445 16.1554 148.249 16.6679C147.833 17.7615 147.272 18.3227 146.178 18.7394C145.665 18.9347 145.036 19.0983 144.25 19.27C145.036 19.4417 145.665 19.6053 146.178 19.8005C147.272 20.2173 147.833 20.7785 148.249 21.8721C148.445 22.3845 148.608 23.0139 148.78 23.8C148.952 23.0139 149.115 22.3845 149.311 21.8721C149.727 20.7785 150.288 20.2173 151.382 19.8005C151.895 19.6053 152.524 19.4417 153.31 19.27ZM150.174 19.27C149.884 19.0989 149.621 18.9004 149.385 18.6646C149.15 18.4288 148.951 18.1659 148.78 17.8761C148.609 18.1659 148.41 18.4288 148.175 18.6646C147.939 18.9004 147.676 19.0989 147.386 19.27C147.676 19.441 147.939 19.6395 148.175 19.8754C148.41 20.1112 148.609 20.3741 148.78 20.6639C148.951 20.3741 149.15 20.1112 149.385 19.8754C149.621 19.6395 149.884 19.441 150.174 19.27Z" fill="#88E6BC"/>
<path d="M153.31 19.27C150.06 19.98 149.49 20.55 148.78 23.8C148.07 20.55 147.5 19.98 144.25 19.27C147.5 18.56 148.07 17.99 148.78 14.74C149.49 17.99 150.06 18.56 153.31 19.27Z" fill="#88E6BC"/>
<path fill-rule="evenodd" clip-rule="evenodd" d="M148.78 14.335C148.97 14.335 149.135 14.4675 149.176 14.6535C149.533 16.2878 149.836 17.1279 150.379 17.6711C150.922 18.2142 151.762 18.5173 153.396 18.8743C153.582 18.9149 153.715 19.0796 153.715 19.27C153.715 19.4603 153.582 19.625 153.396 19.6656C151.762 20.0226 150.922 20.3257 150.379 20.8688C149.836 21.412 149.533 22.2522 149.176 23.8864C149.135 24.0724 148.97 24.205 148.78 24.205C148.59 24.205 148.425 24.0724 148.384 23.8864C148.027 22.2522 147.724 21.412 147.181 20.8688C146.638 20.3257 145.798 20.0226 144.164 19.6656C143.978 19.625 143.845 19.4603 143.845 19.27C143.845 19.0796 143.978 18.9149 144.164 18.8743C145.798 18.5173 146.638 18.2142 147.181 17.6711C147.724 17.1279 148.027 16.2878 148.384 14.6535C148.425 14.4675 148.59 14.335 148.78 14.335ZM145.884 19.27C146.681 19.5223 147.286 19.8286 147.754 20.2961C148.221 20.7635 148.528 21.3689 148.78 22.1663C149.032 21.3689 149.339 20.7635 149.806 20.2961C150.274 19.8286 150.879 19.5223 151.676 19.27C150.879 19.0176 150.274 18.7113 149.806 18.2438C149.339 17.7764 149.032 17.171 148.78 16.3736C148.528 17.171 148.221 17.7764 147.754 18.2438C147.286 18.7113 146.681 19.0176 145.884 19.27Z" fill="#88E6BC"/>
<path d="M78 51.5C75.489 52.0486 75.0486 52.489 74.5 55C73.9514 52.489 73.511 52.0486 71 51.5C73.511 50.9514 73.9514 50.511 74.5 48C75.0486 50.511 75.489 50.9514 78 51.5Z" fill="#C4F2DD"/>
<path fill-rule="evenodd" clip-rule="evenodd" d="M74.5 47.595C74.6903 47.595 74.855 47.7276 74.8956 47.9135C75.1719 49.1783 75.4022 49.8013 75.8004 50.1995C76.1986 50.5977 76.8217 50.828 78.0864 51.1043C78.2724 51.1449 78.405 51.3096 78.405 51.5C78.405 51.6903 78.2724 51.855 78.0864 51.8956C76.8217 52.1719 76.1986 52.4022 75.8004 52.8004C75.4022 53.1986 75.1719 53.8217 74.8956 55.0864C74.855 55.2724 74.6903 55.405 74.5 55.405C74.3096 55.405 74.1449 55.2724 74.1043 55.0864C73.828 53.8217 73.5977 53.1986 73.1995 52.8004C72.8013 52.4022 72.1783 52.1719 70.9135 51.8956C70.7276 51.855 70.595 51.6903 70.595 51.5C70.595 51.3096 70.7276 51.1449 70.9135 51.1043C72.1783 50.828 72.8013 50.5977 73.1995 50.1995C73.5977 49.8013 73.828 49.1783 74.1043 47.9135C74.1449 47.7276 74.3096 47.595 74.5 47.595ZM72.5493 51.5C73.0505 51.6821 73.4512 51.9066 73.7723 52.2277C74.0934 52.5488 74.3179 52.9494 74.5 53.4506C74.6821 52.9494 74.9066 52.5488 75.2277 52.2277C75.5488 51.9066 75.9494 51.6821 76.4506 51.5C75.9494 51.3179 75.5488 51.0934 75.2277 50.7723C74.9066 50.4512 74.6821 50.0505 74.5 49.5493C74.3179 50.0505 74.0934 50.4512 73.7723 50.7723C73.4512 51.0934 73.0505 51.3179 72.5493 51.5Z" fill="#C4F2DD"/>
<path d="M114 75.5C111.489 76.0486 111.049 76.489 110.5 79C109.951 76.489 109.511 76.0486 107 75.5C109.511 74.9514 109.951 74.511 110.5 72C111.049 74.511 111.489 74.9514 114 75.5Z" fill="#C4F2DD"/>
<path fill-rule="evenodd" clip-rule="evenodd" d="M110.5 71.595C110.69 71.595 110.855 71.7276 110.896 71.9135C111.172 73.1783 111.402 73.8013 111.8 74.1995C112.199 74.5977 112.822 74.828 114.086 75.1043C114.272 75.1449 114.405 75.3096 114.405 75.5C114.405 75.6903 114.272 75.855 114.086 75.8956C112.822 76.1719 112.199 76.4022 111.8 76.8004C111.402 77.1986 111.172 77.8217 110.896 79.0864C110.855 79.2724 110.69 79.405 110.5 79.405C110.31 79.405 110.145 79.2724 110.104 79.0864C109.828 77.8217 109.598 77.1986 109.2 76.8004C108.801 76.4022 108.178 76.1719 106.914 75.8956C106.728 75.855 106.595 75.6903 106.595 75.5C106.595 75.3096 106.728 75.1449 106.914 75.1043C108.178 74.828 108.801 74.5977 109.2 74.1995C109.598 73.8013 109.828 73.1783 110.104 71.9135C110.145 71.7276 110.31 71.595 110.5 71.595ZM108.549 75.5C109.051 75.6821 109.451 75.9066 109.772 76.2277C110.093 76.5488 110.318 76.9494 110.5 77.4506C110.682 76.9494 110.907 76.5488 111.228 76.2277C111.549 75.9066 111.949 75.6821 112.451 75.5C111.949 75.3179 111.549 75.0934 111.228 74.7723C110.907 74.4512 110.682 74.0505 110.5 73.5493C110.318 74.0505 110.093 74.4512 109.772 74.7723C109.451 75.0934 109.051 75.3179 108.549 75.5Z" fill="#C4F2DD"/>
<path d="M280 3.5C277.489 4.04857 277.049 4.48896 276.5 7C275.951 4.48896 275.511 4.04857 273 3.5C275.511 2.95144 275.951 2.51104 276.5 0C277.049 2.51104 277.489 2.95144 280 3.5Z" fill="#C4F2DD"/>
<path fill-rule="evenodd" clip-rule="evenodd" d="M276.5 -0.405029C276.69 -0.405029 276.855 -0.272448 276.896 -0.0864676C277.172 1.17829 277.402 1.80132 277.8 2.19952C278.199 2.59772 278.822 2.828 280.086 3.1043C280.272 3.14493 280.405 3.3096 280.405 3.49997C280.405 3.69034 280.272 3.85501 280.086 3.89564C278.822 4.17194 278.199 4.40222 277.8 4.80042C277.402 5.19863 277.172 5.82165 276.896 7.08641C276.855 7.27239 276.69 7.40497 276.5 7.40497C276.31 7.40497 276.145 7.27239 276.104 7.08641C275.828 5.82165 275.598 5.19863 275.2 4.80042C274.801 4.40222 274.178 4.17194 272.914 3.89564C272.728 3.85501 272.595 3.69034 272.595 3.49997C272.595 3.3096 272.728 3.14493 272.914 3.1043C274.178 2.828 274.801 2.59772 275.2 2.19952C275.598 1.80132 275.828 1.17829 276.104 -0.0864676C276.145 -0.272448 276.31 -0.405029 276.5 -0.405029ZM274.549 3.49997C275.051 3.68205 275.451 3.90656 275.772 4.22767C276.093 4.54877 276.318 4.94944 276.5 5.4506C276.682 4.94944 276.907 4.54877 277.228 4.22767C277.549 3.90656 277.949 3.68205 278.451 3.49997C277.949 3.31789 277.549 3.09338 277.228 2.77228C276.907 2.45117 276.682 2.0505 276.5 1.54934C276.318 2.0505 276.093 2.45117 275.772 2.77228C275.451 3.09338 275.051 3.31789 274.549 3.49997Z" fill="#C4F2DD"/>
</g>
</svg>
