<svg viewBox="0 0 320 274" fill="none" xmlns="http://www.w3.org/2000/svg">
<g clip-path="url(#clip0_7483_148532)">
<mask id="mask0_7483_148532" style="mask-type:luminance" maskUnits="userSpaceOnUse" x="0" y="0" width="320" height="274">
<path d="M320 0H0V274H320V0Z" fill="white"/>
</mask>
<g mask="url(#mask0_7483_148532)">
<path d="M266.499 73.3501H265.669C265.429 73.3501 265.209 73.4901 265.109 73.7101C260.589 83.7301 256.409 92.5701 252.709 99.9601L235.099 130.41C234.999 130.6 234.999 130.83 235.099 131.02C235.209 131.21 235.409 131.32 235.629 131.32H265.049C265.379 131.32 265.649 131.05 265.649 130.72V108.14C265.649 102.93 265.859 97.1601 266.269 90.9801C266.409 88.4601 266.549 84.8301 266.679 80.2301C266.959 77.2801 267.099 75.2201 267.099 73.9601C267.099 73.6201 266.829 73.3501 266.499 73.3501ZM265.479 80.1501C265.339 84.7801 265.199 88.4001 265.059 90.9001C264.649 97.1001 264.439 102.9 264.439 108.14V130.11H236.679L253.779 100.54C257.399 93.2901 261.469 84.7001 265.859 74.9901C265.809 76.2201 265.679 77.9501 265.479 80.1501Z" fill="#A7A7A9"/>
<path d="M302.75 130.11H300.04V56.5602C300.04 52.4002 298.72 48.9802 296.13 46.3902C293.54 43.8002 290.12 42.4902 285.97 42.4902H263.18C256.91 42.4902 252.06 45.2302 248.78 50.6602L214.06 109.2L213.3 110.48C213.5 110.94 213.69 111.41 213.87 111.89C217.17 120.25 219.74 129.83 221.59 140.63C222.63 146.72 223.33 152.53 223.69 158.08C223.72 158.48 223.74 158.89 223.75 159.29H264.44V180.02C264.44 191.83 270.43 197.82 282.24 197.82C294.05 197.82 300.04 191.83 300.04 180.02V159.29H302.75C312.36 159.29 317.23 154.35 317.23 144.6C317.23 134.85 312.36 130.11 302.75 130.11ZM302.75 158.08H299.43C299.1 158.08 298.83 158.35 298.83 158.68V180.02C298.83 191.18 293.4 196.61 282.24 196.61C271.08 196.61 265.65 191.18 265.65 180.02V158.68C265.65 158.35 265.38 158.08 265.05 158.08H224.88C224.53 152.46 223.83 146.57 222.78 140.43C220.86 129.22 218.14 119.25 214.64 110.59L249.82 51.2802C252.91 46.1802 257.28 43.7002 263.18 43.7002H285.97C289.79 43.7002 292.92 44.8902 295.28 47.2502C297.63 49.6002 298.83 52.7402 298.83 56.5602V130.72C298.83 131.05 299.1 131.32 299.43 131.32H302.75C311.68 131.32 316.02 135.67 316.02 144.6C316.02 153.53 311.68 158.08 302.75 158.08Z" fill="#A7A7A9"/>
<path d="M69.4598 74.01H68.6298C68.3898 74.01 68.1798 74.15 68.0798 74.37C63.5498 84.39 59.3698 93.23 55.6798 100.62L38.0698 131.07C37.9598 131.26 37.9598 131.49 38.0698 131.68C38.1798 131.87 38.3798 131.98 38.5898 131.98H68.0098C68.3398 131.98 68.6198 131.71 68.6198 131.37V108.79C68.6198 103.57 68.8298 97.8 69.2398 91.63C69.3798 89.11 69.5198 85.48 69.6498 80.88C69.9298 77.92 70.0698 75.87 70.0698 74.61C70.0698 74.28 69.7998 74 69.4598 74V74.01ZM68.4398 80.81C68.2998 85.44 68.1598 89.06 68.0298 91.56C67.6198 97.75 67.4098 103.55 67.4098 108.79V130.76H39.6498L56.7498 101.18C60.3698 93.94 64.4398 85.34 68.8398 75.63C68.7898 76.86 68.6598 78.59 68.4498 80.8L68.4398 80.81Z" fill="#A7A7A9"/>
<path d="M113.65 156.97C112.26 148.32 111.58 140.27 111.61 132.83C111.61 132.41 111.62 131.99 111.63 131.57C111.25 131.45 110.85 131.35 110.43 131.25C109.01 130.94 107.44 130.78 105.71 130.78H103V57.2204C103 53.0704 101.69 49.6504 99.0895 47.0604C96.4995 44.4604 93.0795 43.1504 88.9295 43.1504H66.1395C59.8695 43.1504 55.0195 45.9004 51.7395 51.3204L5.56953 129.18C3.70953 131.89 2.76953 135.21 2.76953 139.05V145.88C2.76953 150.04 4.07953 153.46 6.66953 156.05C9.26953 158.64 12.6895 159.95 16.8395 159.95H67.3995V180.68C67.3995 192.5 73.3895 198.48 85.1995 198.48C97.0095 198.48 103 192.5 103 180.68V159.95H105.71C108.42 159.95 110.75 159.55 112.71 158.77C113.1 158.61 113.49 158.43 113.85 158.24C113.78 157.82 113.71 157.39 113.65 156.97ZM105.71 158.74H102.39C102.06 158.74 101.79 159.01 101.79 159.35V180.68C101.79 191.85 96.3595 197.27 85.1995 197.27C74.0395 197.27 68.6095 191.85 68.6095 180.68V159.35C68.6095 159.01 68.3395 158.74 68.0095 158.74H16.8395C13.0195 158.74 9.88953 157.55 7.52953 155.19C5.16953 152.83 3.97953 149.7 3.97953 145.88V139.05C3.97953 135.46 4.84953 132.37 6.58953 129.83L52.7795 51.9404C55.8695 46.8404 60.2395 44.3604 66.1395 44.3604H88.9295C92.7495 44.3604 95.8795 45.5604 98.2395 47.9104C100.59 50.2704 101.79 53.4004 101.79 57.2204V131.38C101.79 131.72 102.06 131.99 102.39 131.99H105.71C107.45 131.99 109.02 132.16 110.42 132.49C110.36 140.22 111.05 148.58 112.51 157.54C110.65 158.34 108.39 158.74 105.71 158.74Z" fill="#A7A7A9"/>
<path d="M163.83 71.0203C176.3 71.0203 187.25 75.6103 196.69 84.7803C208.96 96.6903 217.26 115.31 221.59 140.62C225.92 165.94 224.34 186.6 216.85 202.59C209.63 217.7 197.78 226.66 181.31 229.48C178.15 230.02 175.07 230.29 172.09 230.29C159.52 230.29 148.51 225.5 139.06 215.9C126.72 203.58 118.37 184.66 114 159.14C109.63 133.62 111.25 113.2 118.86 97.8903C126.04 83.3503 137.86 74.6703 154.34 71.8503C157.6 71.2903 160.76 71.0103 163.83 71.0103M173.93 201.53C174.76 201.53 175.62 201.46 176.49 201.31C182.75 200.24 186.8 196.04 188.63 188.72C191.02 179.77 190.57 165.69 187.29 146.5C184 127.31 179.78 114.09 174.62 106.85C171.07 102.01 166.83 99.5903 161.9 99.5903C161 99.5903 160.07 99.6703 159.13 99.8303C153 100.88 148.98 104.79 147.06 111.56C144.6 120.11 145.01 133.98 148.3 153.17C151.61 172.5 155.87 185.92 161.08 193.44C164.64 198.84 168.93 201.53 173.94 201.53M163.84 69.8003C160.71 69.8003 157.45 70.0903 154.14 70.6503C137.34 73.5203 125.11 82.5103 117.78 97.3503C110.09 112.82 108.42 133.68 112.81 159.35C117.2 185.01 125.75 204.33 138.21 216.77C147.85 226.55 159.25 231.51 172.1 231.51C175.14 231.51 178.31 231.23 181.53 230.68C198.33 227.81 210.59 218.53 217.96 203.12C225.53 186.96 227.15 165.87 222.8 140.42C218.44 114.97 209.95 95.9503 197.55 83.9103C187.92 74.5503 176.58 69.8003 163.85 69.8003H163.84ZM173.94 200.32C169.32 200.32 165.44 197.85 162.09 192.77C156.99 185.42 152.76 172.03 149.5 152.97C146.26 134.05 145.84 120.23 148.23 111.9C150.03 105.55 153.66 102 159.34 101.03C160.22 100.88 161.08 100.8 161.91 100.8C166.47 100.8 170.31 103.01 173.65 107.56C178.67 114.61 182.87 127.78 186.1 146.7C189.34 165.63 189.8 179.66 187.47 188.41C185.75 195.3 182.09 199.12 176.3 200.11C175.5 200.25 174.7 200.32 173.94 200.32Z" fill="#A7A7A9"/>
<mask id="mask1_7483_148532" style="mask-type:luminance" maskUnits="userSpaceOnUse" x="114" y="69" width="118" height="133">
<path d="M125.229 147.96C125.229 147.96 125.399 149.34 125.579 149.97C126.539 153.25 127.969 156.26 129.999 158.84C135.039 165.24 143.359 169.08 151.569 169.18C151.569 169.21 151.579 169.24 151.589 169.26C154.289 180.16 157.449 188.22 161.059 193.44C165.219 199.74 170.359 202.36 176.489 201.31C182.749 200.24 186.799 196.04 188.629 188.72C189.719 184.64 183.099 181.24 189.169 179.94C192.319 179.27 232.649 190.49 231.119 174.28C229.289 154.9 223.809 83.0103 201.579 69.8003C195.479 66.1703 153.169 78.3403 147.049 79.3903C140.929 80.4403 122.179 95.2903 120.259 102.06C119.279 105.48 110.939 125.07 115.499 131.7C114.029 134.91 119.879 138.13 121.509 140.34C121.509 140.34 121.949 144.57 125.239 147.95L125.229 147.96Z" fill="white"/>
</mask>
<g mask="url(#mask1_7483_148532)">
<path d="M146.679 143.12C145.019 131.83 144.409 139.12 146.919 137.52C149.739 135.72 152.469 134.2 154.809 133.05C154.809 133.05 154.809 133.05 154.839 133.03C155.569 132.57 173.399 121.69 195.329 132.79C195.499 132.87 195.679 132.95 195.849 133.05C199.759 134.96 202.809 128.64 205.009 134.11C206.819 138.61 205.709 140.52 214.959 147.58C219.189 150.81 226.429 152.12 228.329 161.56C230.859 174.15 224.579 177.86 214.419 180.05C212.419 180.66 202.309 182.84 199.809 183.3C193.469 184.49 185.449 185.19 175.309 185.31C171.199 185.36 157.839 187.78 154.829 179.44C154.829 179.44 150.969 172.13 146.689 143.11L146.679 143.12Z" fill="#8B6340"/>
<path d="M217.529 156.911C218.499 157.281 218.829 158.291 218.249 159.161C217.439 158.501 217.259 157.921 217.529 156.911Z" fill="#DAB28B"/>
<path d="M220.38 154.601C224.92 157.511 223.42 167.121 219.35 169.841C221.19 167.721 221.61 164.911 222.05 162.251C222.44 159.581 222.2 156.761 220.38 154.601Z" fill="#DAB28B"/>
<path d="M133.689 137.45C135.499 134.55 139.399 134.67 140.569 138.05C140.679 138.44 140.789 138.82 140.849 139.21C140.579 138.91 140.359 138.6 140.139 138.29C138.319 135.76 136.179 136 133.689 137.45Z" fill="#FBA391"/>
<path d="M207.31 142.811C211.11 152.131 189.27 139.051 187.1 137.701C187.08 135.581 186.89 133.551 186.55 131.651C182.76 131.411 179.09 130.621 175.64 129.361C173.43 128.571 171.31 127.571 169.28 126.411C161.55 121.971 155.29 115.011 151.48 106.581C141.24 112.201 138.21 122.441 135.92 136.761C133.42 138.361 134.04 138.621 131.63 140.591C128.39 136.761 126.64 131.851 126.64 126.711C126.64 109.671 136.74 99.3506 152.28 94.7206C155.7 93.6906 159.56 93.0806 163.3 93.0806C189.38 93.0806 202.66 106.201 203.26 121.661C203.64 131.451 207.35 142.911 207.32 142.801L207.31 142.811Z" fill="#8B6340"/>
<path d="M158.619 167.371L163.359 175.181C163.619 175.621 164.009 175.941 164.449 176.091C166.919 176.931 175.589 180.401 180.259 168.711C180.459 168.221 180.499 167.641 180.319 167.101L176.769 156.581C176.769 156.581 161.869 157.751 158.619 167.361V167.371Z" fill="#FAE7DA"/>
<path d="M158.619 167.37L160.329 170.19C167.329 172.12 175.379 170.63 179.689 165.26L176.759 156.59C176.759 156.59 161.859 157.76 158.609 167.37H158.619Z" fill="#ECB69E"/>
<path d="M140.53 132.511C139.18 132.261 137.79 132.271 136.45 132.581C134.39 133.051 132.39 134.321 131.64 136.301C131.27 137.271 131.23 138.331 131.31 139.361C131.58 142.911 133.27 146.321 135.91 148.701C136.94 149.631 138.13 150.401 139.44 150.851C140.1 151.081 140.84 151.191 141.48 150.931C140.37 147.301 139.89 143.331 139.89 139.221C139.89 136.951 140.11 134.701 140.52 132.511H140.53Z" fill="#FFCFBC"/>
<path d="M189.27 132.631C186.88 117.461 174.57 104.331 160.76 104.331C146.95 104.331 139.09 115.371 136.54 129.841C136.14 132.101 135.93 134.421 135.93 136.751C135.93 140.981 134.42 146.211 135.51 149.951C136.47 153.231 137.9 156.241 139.93 158.821C145.04 165.311 153.63 169.351 161.83 169.171C170.56 168.981 178.35 164.661 183.47 157.611C184.85 155.711 186.02 153.621 186.98 151.391C188.73 147.301 189.71 142.721 189.71 137.891C189.71 136.111 189.56 134.351 189.29 132.611L189.27 132.631Z" fill="#FAE7DA"/>
<path d="M136.289 133.56C137.059 124.15 149.639 112.41 150.639 112.93C160.709 119.01 173.699 130.3 186.389 126.92C182.609 113.74 172.159 104.04 159.189 104.15C145.969 104.26 135.729 115.58 132.909 129.16C133.339 131.2 135.039 132.36 136.289 133.56Z" fill="#ECB69E"/>
<path d="M181.89 99.7406C175.47 94.6506 172.12 93.0806 163.29 93.0806C159.55 93.0806 155.69 93.6906 152.27 94.7206C148.34 95.8906 145.62 96.9206 142.34 99.2206C136.6 104.491 129.51 110.861 129.51 118.961C129.51 124.491 133.04 132.351 135.92 136.751C138.91 124.301 142.32 115.761 150.22 107.301C154.03 115.731 161.55 121.961 169.28 126.401C171.31 127.561 173.42 128.551 175.64 129.351C179.09 130.611 185.47 132.381 189.27 132.621C189.29 132.761 189.88 123.781 189.88 119.131C189.88 111.671 186.86 104.871 181.9 99.7306L181.89 99.7406Z" fill="#8B6340"/>
<path d="M148.029 139.57C149.106 139.57 149.979 138.362 149.979 136.87C149.979 135.379 149.106 134.17 148.029 134.17C146.952 134.17 146.079 135.379 146.079 136.87C146.079 138.362 146.952 139.57 148.029 139.57Z" fill="#5B401E"/>
<path d="M164.98 138.84C166.476 138.84 167.69 137.166 167.69 135.1C167.69 133.035 166.476 131.36 164.98 131.36C163.483 131.36 162.27 133.035 162.27 135.1C162.27 137.166 163.483 138.84 164.98 138.84Z" fill="#5B401E"/>
<path d="M141.49 151.63C144.4 151.63 146.76 148.85 146.76 145.42C146.76 141.991 144.4 139.21 141.49 139.21C138.579 139.21 136.22 141.991 136.22 145.42C136.22 148.85 138.579 151.63 141.49 151.63Z" fill="#ECB69E"/>
<path d="M138.869 144.32C139.305 144.32 139.659 143.9 139.659 143.38C139.659 142.861 139.305 142.44 138.869 142.44C138.433 142.44 138.079 142.861 138.079 143.38C138.079 143.9 138.433 144.32 138.869 144.32Z" fill="#FFF5F2"/>
<path d="M178.35 148.84C181.829 148.84 184.65 146.06 184.65 142.63C184.65 139.201 181.829 136.42 178.35 136.42C174.87 136.42 172.05 139.201 172.05 142.63C172.05 146.06 174.87 148.84 178.35 148.84Z" fill="#ECB69E"/>
<path d="M181.379 141.62C181.899 141.62 182.319 141.199 182.319 140.68C182.319 140.161 181.899 139.74 181.379 139.74C180.86 139.74 180.439 140.161 180.439 140.68C180.439 141.199 180.86 141.62 181.379 141.62Z" fill="#FFF5F2"/>
<path d="M189.419 117.811C191.409 122.471 191.399 128.071 189.369 132.711C190.019 127.671 190.039 122.851 189.419 117.811Z" fill="#7A5437"/>
<path d="M147.34 122.74C148.51 121.58 150.17 120.93 151.81 120.98" stroke="#5B401E" stroke-width="1.01" stroke-miterlimit="10" stroke-linecap="round"/>
<path d="M136.079 110.64C134.269 111.42 133.289 113.21 133.119 115.17C133.079 115.68 133.159 116.3 133.619 116.53C133.819 116.63 134.059 116.64 134.279 116.63C136.569 116.48 138.429 114.08 138.009 111.83C137.919 111.37 137.739 110.9 137.359 110.61C136.979 110.32 136.389 110.29 136.069 110.65" fill="#DAB28B"/>
<path d="M163.349 114C164.479 117.61 167.439 120.38 170.709 122.27C171.269 122.59 171.869 122.91 172.519 122.94C173.169 122.97 173.879 122.66 174.109 122.06C174.559 120.92 173.219 119.38 174.099 118.53C174.629 118.02 175.499 118.3 176.169 118.61C176.929 118.97 177.699 119.32 178.459 119.68C179.139 120 179.849 120.32 180.589 120.3C181.339 120.29 182.129 119.83 182.279 119.09C182.439 118.28 181.779 117.54 181.109 117.05C178.989 115.49 176.219 114.84 173.629 115.3C172.899 115.43 172.149 115.65 171.429 115.5C170.139 115.24 169.359 113.96 168.329 113.13C167.389 112.38 166.169 111.98 164.979 112.05C164.559 112.07 164.129 112.16 163.799 112.42C163.469 112.68 163.139 113.62 163.349 113.99" fill="#DAB28B"/>
<path d="M203.29 122.581C203.04 119.171 203.09 118.151 202.03 116.111C194.84 102.321 181.93 91.1606 164.97 91.1606C161.09 91.1606 157.35 91.7606 153.79 92.7306C142.5 95.8206 141.06 98.3406 136.38 103.191C160.28 100.921 186.97 105.331 203.29 122.581Z" fill="#754C2D"/>
<path d="M197.25 136.581C196.5 134.611 194.5 133.331 192.44 132.861C191.64 132.681 190.82 132.611 190 132.631H189.98C187.57 132.341 186.73 137.881 186.12 142.921C185.57 147.511 185.15 150.201 187.24 151.161C187.24 151.161 187.24 151.161 187.25 151.161C187.25 151.161 187.26 151.161 187.27 151.161C187.4 151.221 187.53 151.261 187.67 151.291C187.73 151.301 187.78 151.321 187.84 151.331C187.86 151.331 187.87 151.331 187.89 151.341C187.95 151.341 188.02 151.341 188.08 151.341C188.54 151.361 189.01 151.261 189.45 151.121C190.76 150.671 191.95 149.891 192.98 148.971C195.63 146.601 197.31 143.181 197.58 139.631C197.66 138.601 197.62 137.541 197.25 136.571V136.581Z" fill="#FAF0DA"/>
<path d="M194.69 137.741C191.29 137.731 189.59 139.481 188.75 142.511C188.64 142.921 188.54 143.331 188.38 143.741C187.54 139.871 190.66 135.931 194.69 137.731V137.741Z" fill="#FFCFBC"/>
<path d="M192.44 132.861C189.3 133.081 186.72 134.591 185.71 137.661C185.55 138.071 185.42 138.491 185.23 138.921C185.2 138.471 185.19 138.011 185.23 137.551C185.46 133.971 189.09 131.651 192.44 132.871V132.861Z" fill="#FFCFBC"/>
<path d="M137.329 99.8907L137.619 101.931C137.619 101.931 138.459 101.721 139.539 101.711C140.619 101.701 161.309 99.0107 172.819 102.071C172.819 102.071 159.039 94.6707 137.319 99.8807L137.329 99.8907Z" fill="#872422"/>
<path d="M184.92 93.8003C183.66 91.5003 182.35 89.5403 181.12 88.3003C175.69 82.8103 172.97 83.9303 173.05 88.6903C173.06 89.1003 173.09 89.5303 173.15 89.9803C177.89 91.2603 183.38 96.0403 187.91 102.43C187.2 99.3303 186.14 96.4003 184.92 93.8003Z" fill="#CF1317"/>
<path d="M204.28 115.02C204.31 115.79 204.38 116.01 204.3 116.75V116.79C204.27 117.15 204.22 117.51 204.16 117.86C204.09 118.13 203.98 118.36 203.85 118.53C203.23 119.35 203.08 118.65 201.95 117.71C201.74 117.48 201.51 117.25 201.29 117.02C192.95 108.5 184.16 104.02 167.6 101C157.54 99.1604 146.06 98.7504 137.8 100.06C137.03 100.18 136.3 100.25 136.05 98.9504C135.95 98.4404 136.15 97.7104 136.41 97.0704C137.53 94.3604 147.49 85.9004 158.9 84.6104C164.71 83.9504 172.4 85.8804 175.83 87.3104C186.48 91.7604 195.26 98.6904 200.73 107C202.56 109.78 203.38 110.89 203.91 113.25C203.99 113.61 204.27 114.6 204.28 115.01V115.02Z" fill="#E6454D"/>
<path d="M204.279 115.02C204.259 114.61 203.989 113.63 203.909 113.26C203.369 110.89 202.789 109.72 200.729 107.01C200.329 106.49 199.999 105.88 199.579 105.34C196.659 104.93 196.259 106.53 190.679 104.68C173.079 98.8404 153.899 93.0904 137.369 100.12C137.599 100.13 137.569 100.11 137.809 100.07C146.069 98.7604 157.549 99.1804 167.609 101.01C184.169 104.02 192.959 108.5 201.299 117.03C201.519 117.26 201.749 117.49 201.959 117.72C203.089 118.65 203.229 119.36 203.859 118.54C203.989 118.37 204.099 118.14 204.169 117.87C204.229 117.51 204.279 117.16 204.309 116.8V116.76C204.379 116.01 204.309 115.8 204.279 115.03V115.02Z" fill="#CF1317"/>
<path d="M160.923 159.09C164.444 158.083 166.27 153.672 165.002 149.239C163.734 144.805 159.852 142.027 156.331 143.033C152.811 144.04 150.985 148.451 152.253 152.885C153.521 157.318 157.403 160.097 160.923 159.09Z" fill="#C27970"/>
<path d="M157.25 146.3C158.77 145.87 160.1 145.21 161.12 144.47C159.7 143.49 158.04 143.11 156.47 143.56C154.9 144.01 153.69 145.21 153 146.79C154.26 146.89 155.73 146.73 157.25 146.3Z" fill="#FDFAF3"/>
<path d="M164.57 154.42C164.75 154.5 163.05 158.06 160.77 158.6C158.45 159.15 156.02 158.15 154.34 155.99C154.34 155.99 158.25 151.68 164.57 154.42Z" fill="#ECB69E"/>
<path d="M169.529 148.28C170.529 153.21 168.669 157.55 161.729 159.16C156.449 160.38 151.439 157.35 149.999 152.54C148.249 146.69 148.479 143.25 157.709 142.03C163.079 141.32 168.529 143.36 169.529 148.28Z" fill="#C27970"/>
<path d="M169.529 148.28C169.579 148.51 169.619 148.75 169.649 148.98C168.089 149.04 166.459 149.23 164.779 149.57C158.869 150.77 154.109 153.46 152.199 156.35C151.209 155.29 150.439 154 149.999 152.54C148.839 148.64 148.539 145.81 151.209 144C153.439 145.76 156.779 146.53 160.249 145.83C162.369 145.4 164.229 144.47 165.669 143.25C167.629 144.3 169.069 145.97 169.539 148.28H169.529Z" fill="#C27970"/>
<path d="M164.87 143.46C163.63 144.51 161.92 145.56 160.09 145.94C157.1 146.55 154.17 145.67 152.25 144.15C153.41 143.37 155.25 143.02 157.91 142.67C160.37 142.34 162.97 142.44 164.88 143.47L164.87 143.46Z" fill="#FDFAF3"/>
<path d="M169.169 149.15C169.809 153.38 167.769 157.02 161.729 158.43C158.369 159.21 155.009 158.43 152.909 156.19C154.659 153.55 159.049 150.93 164.439 149.83C165.979 149.52 167.749 149.2 169.169 149.15Z" fill="#ECB69E"/>
</g>
<path d="M160.23 147.92C160.17 147.82 160.11 147.73 160.05 147.64C160.05 147.64 160.05 147.64 160.05 147.63C160.29 147.94 160.3 147.99 160.24 147.92H160.23Z" fill="#6EBFD2"/>
<path d="M194.15 132.23C192.39 119.91 180.95 111.37 168.61 113.13C156.26 114.89 147.67 126.29 149.43 138.61C150.87 148.73 158.86 156.27 168.5 157.67C169.49 157.81 170.25 158.62 170.34 159.62L172.24 180L174.11 179.83L175.27 191.36L181.29 190.5L178.11 158.82C178.01 157.83 178.6 156.9 179.53 156.56C189.35 152.99 195.68 142.96 194.15 132.24V132.23ZM174.18 152.15C164.91 153.48 156.33 147.05 155.01 137.81C153.69 128.57 160.13 120 169.4 118.67C178.67 117.34 187.25 123.77 188.57 133.02C189.89 142.26 183.45 150.83 174.18 152.15Z" fill="#24AC6E"/>
<path opacity="0.3" fill-rule="evenodd" clip-rule="evenodd" d="M169.399 118.68C160.129 120 153.689 128.57 155.009 137.82C156.329 147.07 164.919 153.49 174.189 152.16C183.459 150.84 189.899 142.27 188.579 133.02C187.259 123.77 178.669 117.35 169.399 118.68Z" fill="white"/>
<path d="M200.06 186.33C194.57 184.64 190.52 182.55 190.52 182.55C188.89 180.95 186.42 177.63 184.77 176.05C183.13 174.47 181.98 173.27 179.65 174.12C179.72 175.73 179.87 176.59 177.77 176.99C175.5 177.12 173.58 177.39 171.41 178.02C168.58 178.84 166.1 179.81 165.97 183.87C165.91 185.64 165.9 187.33 167.79 192.89C169.14 197.48 173.19 200.74 177.91 200.95C180.47 201.06 185.22 200.18 187.78 200.24C189.4 200.2 195.32 204.23 198.65 206.04C205.11 209.55 212.15 212.56 220.71 212.76C225.71 212.39 230.26 210.38 232.1 205.53C235.6 196.3 225.69 192.57 221.89 191.31C215.8 189.29 205.71 188.09 200.05 186.34L200.06 186.33Z" fill="#FAE7DA"/>
<g opacity="0.4">
<path d="M177.909 125.91C178.309 126.16 178.709 126.42 179.099 126.68C179.199 126.75 179.299 126.82 179.389 126.89C179.419 126.91 179.659 127.09 179.499 126.97C179.319 126.83 179.619 127.07 179.649 127.09C179.719 127.15 179.789 127.21 179.859 127.27C180.169 127.54 180.439 127.84 180.709 128.14C180.999 128.47 180.599 127.97 180.749 128.19C180.819 128.29 180.889 128.39 180.959 128.49C181.089 128.69 181.219 128.89 181.329 129.09C181.459 129.32 181.579 129.55 181.699 129.79C181.729 129.84 181.819 130.04 181.749 129.88C181.809 130.02 181.859 130.16 181.909 130.3C182.089 130.81 182.219 131.33 182.319 131.86C182.369 132.15 182.299 131.64 182.329 131.94C182.349 132.09 182.359 132.24 182.369 132.38C182.379 132.65 182.389 132.91 182.369 133.18C182.369 133.3 182.359 133.42 182.349 133.53C182.339 133.65 182.339 133.65 182.349 133.52L182.319 133.7C182.269 133.99 182.199 134.28 182.109 134.57C181.859 135.42 182.409 136.46 183.299 136.66C184.189 136.86 185.129 136.39 185.389 135.47C186.159 132.8 185.669 129.92 184.339 127.52C183.219 125.5 181.529 124.18 179.619 122.97C178.869 122.49 177.709 122.79 177.289 123.58C176.849 124.42 177.099 125.4 177.899 125.91H177.909Z" fill="white"/>
<path d="M172.44 146.57C172.15 146.62 171.86 146.68 171.57 146.73C171.45 146.75 171.33 146.77 171.21 146.79C170.91 146.84 171.43 146.77 171.14 146.8C170.67 146.86 170.2 146.89 169.73 146.88C169.59 146.88 169.46 146.88 169.32 146.86C169.29 146.86 168.97 146.83 169.13 146.85C169.29 146.87 168.96 146.82 168.93 146.82C168.81 146.8 168.7 146.78 168.58 146.75C168.05 146.63 167.52 146.47 167.01 146.26C166.75 146.16 167.21 146.36 166.96 146.23C166.86 146.18 166.76 146.14 166.66 146.09C166.44 145.98 166.22 145.86 166 145.73C165.81 145.61 165.63 145.49 165.44 145.36C165.36 145.31 165.25 145.21 165.39 145.33C165.28 145.24 165.18 145.15 165.07 145.06C164.72 144.75 164.39 144.41 164.1 144.05C164.21 144.19 164.12 144.08 164.07 144C164.01 143.91 163.95 143.82 163.89 143.73C163.74 143.5 163.61 143.26 163.49 143.01C163.09 142.21 161.9 141.92 161.16 142.4C160.35 142.92 160.12 143.87 160.55 144.73C161.67 146.96 163.68 148.55 165.95 149.49C167.09 149.96 168.32 150.24 169.55 150.29C170.78 150.34 172.09 150.1 173.33 149.86C174.21 149.7 174.78 148.59 174.52 147.77C174.22 146.83 173.37 146.41 172.43 146.58L172.44 146.57Z" fill="white"/>
</g>
</g>
</g>
<defs>
<clipPath id="clip0_7483_148532">
<rect width="320" height="274" fill="white"/>
</clipPath>
</defs>
</svg>
