<svg width="100%" height="100%" viewBox="0 0 120 40" fill="currentColor" xmlns="http://www.w3.org/2000/svg">
<path d="M25.226 34.6453H24.3089V38.0962H23.8137V34.6453H23.2817V34.2256H23.8137V33.9552C23.8009 33.7856 23.8228 33.6152 23.8781 33.4546C23.9333 33.2941 24.0207 33.147 24.1346 33.0225C24.4292 32.7977 24.7949 32.6915 25.1618 32.724V33.153C24.9238 33.1311 24.686 33.1973 24.4923 33.3396C24.4221 33.4241 24.3696 33.5222 24.3381 33.6281C24.3065 33.734 24.2966 33.8453 24.3089 33.9552V34.2256H25.226V34.6453Z" fill="currentColor"/>
<path d="M27.0702 34.3657C27.3179 34.2207 27.6008 34.1496 27.8864 34.1605V34.6455H27.7488C27.439 34.6307 27.135 34.7338 26.8959 34.9346C26.7829 35.0597 26.6961 35.207 26.6409 35.3673C26.5857 35.5277 26.5633 35.6978 26.5749 35.8673V38.0311H26.0889V34.1605H26.5749V34.8507C26.69 34.6434 26.8621 34.4748 27.0702 34.3657Z" fill="currentColor"/>
<path d="M29.2991 37.9189C29.0106 37.758 28.7747 37.5148 28.6204 37.2194C28.4497 36.8991 28.3644 36.539 28.3728 36.1748C28.3632 35.8075 28.4486 35.444 28.6204 35.1208C28.7836 34.829 29.0212 34.5873 29.3082 34.4213C29.607 34.2584 29.9414 34.1749 30.2804 34.1788C30.6192 34.1761 30.9533 34.2595 31.2525 34.4213C31.5409 34.5822 31.7768 34.8254 31.9311 35.1208C32.103 35.444 32.1883 35.8075 32.1787 36.1748C32.1863 36.5389 32.101 36.8988 31.9311 37.2194C31.7757 37.5172 31.5361 37.7608 31.2433 37.9189C30.9409 38.0807 30.6038 38.1641 30.262 38.1614C29.926 38.1653 29.5945 38.0818 29.2991 37.9189ZM30.959 37.5551C31.1798 37.4368 31.3615 37.2552 31.4817 37.0328C31.6202 36.7691 31.6897 36.4737 31.6835 36.1748C31.6908 35.8728 31.6213 35.574 31.4817 35.3074C31.3648 35.0857 31.1862 34.904 30.9682 34.7851C30.7549 34.6655 30.5147 34.6044 30.2712 34.6079C30.0277 34.6044 29.7875 34.6655 29.5742 34.7851C29.3562 34.904 29.1775 35.0857 29.0606 35.3074C28.9242 35.5749 28.8579 35.8736 28.868 36.1748C28.859 36.4728 28.9254 36.7683 29.0606 37.0328C29.1752 37.2563 29.3545 37.4386 29.5742 37.5551C29.7841 37.6748 30.0214 37.7359 30.262 37.7323C30.5056 37.7367 30.746 37.6755 30.959 37.5551Z" fill="currentColor"/>
<path d="M38.8355 34.5895C38.9836 34.7591 39.0971 34.9569 39.1695 35.1714C39.2419 35.3859 39.2718 35.6129 39.2574 35.8393V38.1057H38.7713V35.8952C38.784 35.559 38.6801 35.2289 38.4779 34.9625C38.3718 34.8532 38.2443 34.7677 38.1037 34.7115C37.9632 34.6552 37.8126 34.6296 37.6617 34.6361C37.5015 34.6295 37.3417 34.6577 37.1931 34.7188C37.0444 34.7799 36.9103 34.8725 36.7996 34.9905C36.569 35.2898 36.4547 35.665 36.4786 36.0444V38.143H36.0017V35.9325C36.0158 35.5945 35.9082 35.2629 35.6991 34.9998C35.5916 34.8898 35.4626 34.8039 35.3204 34.7476C35.1782 34.6914 35.0261 34.6661 34.8737 34.6734C34.7149 34.6669 34.5565 34.6952 34.4094 34.7563C34.2622 34.8175 34.1297 34.9101 34.0208 35.0278C33.7862 35.325 33.6714 35.7017 33.6998 36.0817V38.1803H33.2046V34.3097H33.6998V34.9719C33.8159 34.7424 33.9941 34.5514 34.2134 34.4216C34.4416 34.2969 34.6971 34.2327 34.9562 34.235C35.2634 34.2299 35.5657 34.314 35.8275 34.4775C36.0814 34.6449 36.2721 34.8947 36.3686 35.1864C36.4553 34.8973 36.6407 34.6493 36.8913 34.4869C37.1442 34.3175 37.4415 34.2298 37.7442 34.235C38.1396 34.2032 38.5315 34.3304 38.8355 34.5895Z" fill="currentColor"/>
<path d="M45.1919 33.1812V33.834H43.1377V35.289H44.7793V35.9512H43.1743V38.1057H42.3765V33.1812H45.1919Z" fill="currentColor"/>
<path d="M46.8149 33.1812V36.3243C46.8041 36.4772 46.8246 36.6308 46.8751 36.7752C46.9257 36.9197 47.0051 37.052 47.1083 37.1637C47.3305 37.3616 47.6206 37.4622 47.9154 37.4435C48.2102 37.4622 48.5003 37.3616 48.7224 37.1637C48.8257 37.052 48.9051 36.9197 48.9556 36.7752C49.0061 36.6308 49.0266 36.4772 49.0159 36.3243V33.1812H49.8046V36.3056C49.8182 36.6656 49.729 37.022 49.5478 37.3316C49.3839 37.6018 49.1444 37.8161 48.86 37.9471C48.5727 38.083 48.2597 38.153 47.9429 38.1523C47.6261 38.153 47.313 38.083 47.0258 37.9471C46.7441 37.8156 46.5078 37.6012 46.3471 37.3316C46.171 37.0199 46.0822 36.665 46.0904 36.3056V33.1812H46.8149Z" fill="currentColor"/>
<path d="M55.0412 38.1057H54.2433L51.8589 34.375V38.1057H51.061V33.1719H51.8589L54.2433 36.8466V33.1719H55.0412V38.1057Z" fill="currentColor"/>
<path d="M60.2878 38.1057H59.4991L57.1055 34.375V38.1057H56.3076V33.1719H57.1055L59.4991 36.8466V33.1719H60.2878V38.1057Z" fill="currentColor"/>
<path d="M62.5156 37.8353C62.1293 37.619 61.8113 37.2956 61.5986 36.9026C61.3763 36.5084 61.2623 36.0606 61.2684 35.6062C61.2609 35.1516 61.375 34.7035 61.5986 34.3098C61.8113 33.9169 62.1293 33.5935 62.5156 33.3771C62.8975 33.1636 63.3272 33.0544 63.7629 33.06C64.1986 33.0544 64.6283 33.1636 65.0101 33.3771C65.3987 33.5905 65.7175 33.9147 65.9272 34.3098C66.1508 34.7035 66.2649 35.1516 66.2574 35.6062C66.2635 36.0606 66.1495 36.5084 65.9272 36.9026C65.7175 37.2978 65.3987 37.622 65.0101 37.8353C64.6283 38.0488 64.1986 38.1581 63.7629 38.1524C63.3272 38.1581 62.8975 38.0488 62.5156 37.8353ZM64.6158 37.2291C64.8692 37.0789 65.0758 36.8591 65.2119 36.5949C65.3516 36.3045 65.4238 35.9854 65.4228 35.6622C65.4248 35.3388 65.3525 35.0195 65.2119 34.7295C65.0758 34.4653 64.8692 34.2455 64.6158 34.0953C64.3543 33.9505 64.0606 33.8766 63.7629 33.8808C63.4626 33.8794 63.1666 33.9531 62.9008 34.0953C62.6502 34.246 62.4467 34.4659 62.3139 34.7295C62.1695 35.0181 62.0971 35.3384 62.103 35.6622C62.0979 35.9859 62.1703 36.306 62.3139 36.5949C62.4467 36.8584 62.6502 37.0783 62.9008 37.2291C63.1635 37.3804 63.4611 37.4576 63.7629 37.4529C64.0619 37.4587 64.3569 37.3813 64.6158 37.2291Z" fill="currentColor"/>
<path d="M73.3924 33.1812L71.9525 38.1057H71.0354L70.0175 34.375L68.9353 38.1057H68.0182L66.6426 33.1719H67.4863L68.4859 37.1824L69.5773 33.1719H70.4944L71.5123 37.1637L72.5211 33.1719L73.3924 33.1812Z" fill="currentColor"/>
<path d="M78.7112 34.431C78.9604 34.5848 79.161 34.8082 79.289 35.0745V34.2351H79.775V38.2083C79.7801 38.5343 79.701 38.8558 79.5458 39.141C79.4018 39.4087 79.1854 39.6288 78.9222 39.7752C78.6396 39.9264 78.3243 40.0033 78.0051 39.9991C77.5721 40.0129 77.1458 39.889 76.7853 39.6447C76.4752 39.4242 76.2614 39.0898 76.1892 38.712H76.6661C76.7496 38.9748 76.9176 39.2015 77.143 39.3555C77.4002 39.5218 77.7004 39.6062 78.0051 39.598C78.2359 39.6021 78.4636 39.5442 78.6654 39.4301C78.8632 39.3252 79.026 39.1629 79.1331 38.9638C79.2475 38.736 79.3042 38.4827 79.2982 38.227V37.2943C79.1758 37.5669 78.9741 37.7948 78.7204 37.9472C78.447 38.125 78.1277 38.2159 77.8033 38.2083C77.4824 38.2076 77.1668 38.1242 76.8862 37.9658C76.61 37.7968 76.3873 37.5508 76.2443 37.257C76.0817 36.934 75.9998 36.5752 76.0058 36.2124C75.9986 35.8494 76.0806 35.4904 76.2443 35.1678C76.3874 34.8765 76.6104 34.6336 76.8862 34.4683C77.1668 34.3099 77.4824 34.2265 77.8033 34.2258C78.1189 34.2064 78.4335 34.2774 78.7112 34.431ZM77.143 34.7947C76.9293 34.9205 76.7546 35.1047 76.6386 35.3264C76.514 35.5878 76.4512 35.8753 76.4552 36.1658C76.4499 36.4534 76.5128 36.7382 76.6386 36.9959C76.7542 37.2227 76.9286 37.413 77.143 37.5461C77.3651 37.6697 77.6144 37.7339 77.8675 37.7327C78.1192 37.7366 78.367 37.6687 78.5828 37.5368C78.8038 37.4134 78.9829 37.2248 79.0964 36.9959C79.2275 36.7431 79.2937 36.4608 79.289 36.1751C79.2949 35.8863 79.2286 35.6007 79.0964 35.345C78.9829 35.116 78.8038 34.9274 78.5828 34.8041C78.3419 34.6709 78.0668 34.6155 77.7941 34.6455C77.5534 34.6374 77.3143 34.6886 77.0971 34.7947H77.143Z" fill="currentColor"/>
<path d="M81.9578 34.3657C82.2056 34.2207 82.4884 34.1496 82.774 34.1605V34.6455H82.6365C82.3267 34.6307 82.0227 34.7338 81.7836 34.9346C81.6706 35.0597 81.5838 35.207 81.5286 35.3673C81.4734 35.5277 81.451 35.6978 81.4626 35.8673V38.0311H80.9766V34.1605H81.4626V34.8507C81.5777 34.6434 81.7498 34.4748 81.9578 34.3657Z" fill="currentColor"/>
<path d="M84.2138 37.9188C83.9254 37.7579 83.6895 37.5148 83.5352 37.2193C83.3645 36.899 83.2792 36.5389 83.2876 36.1747C83.2762 35.8061 83.3651 35.4414 83.5444 35.1208C83.7016 34.8275 83.9368 34.5851 84.223 34.4213C84.503 34.2696 84.8139 34.1866 85.1309 34.1788C85.4698 34.1761 85.8039 34.2594 86.1031 34.4213C86.3939 34.582 86.6328 34.825 86.7909 35.1208C86.9627 35.444 87.0481 35.8074 87.0385 36.1747C87.0429 36.5396 86.9544 36.8994 86.7817 37.2193C86.6263 37.5171 86.3867 37.7607 86.0939 37.9188C85.7915 38.0807 85.4544 38.164 85.1126 38.1613C84.7983 38.1545 84.4901 38.0714 84.2138 37.9188ZM85.8738 37.5551C86.0962 37.4391 86.2786 37.2569 86.3965 37.0328C86.5391 36.7707 86.6088 36.474 86.5983 36.1747C86.61 35.8723 86.5403 35.5723 86.3965 35.3073C86.2819 35.0839 86.1027 34.9015 85.883 34.785C85.6499 34.6685 85.3895 34.6201 85.1309 34.6451C84.8874 34.6417 84.6472 34.7027 84.434 34.8223C84.2159 34.9412 84.0373 35.1229 83.9204 35.3446C83.784 35.6121 83.7176 35.9108 83.7278 36.212C83.7188 36.5101 83.7851 36.8055 83.9204 37.0701C84.0373 37.2918 84.2159 37.4735 84.434 37.5924C84.6439 37.712 84.8812 37.7731 85.1218 37.7696C85.3781 37.7677 85.629 37.6934 85.8463 37.5551H85.8738Z" fill="currentColor"/>
<path d="M91.3851 34.2347V38.1053H90.899V37.4431C90.7941 37.6805 90.613 37.8745 90.3854 37.9934C90.146 38.1244 89.8778 38.1918 89.6059 38.1893C89.4005 38.1988 89.1954 38.1657 89.003 38.0919C88.8107 38.0182 88.6351 37.9053 88.487 37.7602C88.3368 37.5936 88.2211 37.3979 88.1471 37.1847C88.073 36.9716 88.042 36.7454 88.056 36.5198V34.2534H88.5329V36.4545C88.5205 36.7938 88.6315 37.1259 88.8447 37.3872C88.9552 37.5016 89.0885 37.5907 89.2356 37.6486C89.3826 37.7065 89.5401 37.7318 89.6976 37.7229C89.8668 37.7379 90.0372 37.7138 90.196 37.6524C90.3548 37.5911 90.4979 37.494 90.6147 37.3685C90.852 37.0761 90.9702 36.7022 90.9449 36.3239V34.2161L91.3851 34.2347Z" fill="currentColor"/>
<path d="M95.5675 34.4214C95.8458 34.5866 96.0717 34.8293 96.2187 35.1209C96.3792 35.4444 96.458 35.8034 96.4479 36.1655C96.4568 36.5276 96.3781 36.8863 96.2187 37.2101C96.0723 37.5046 95.8464 37.7505 95.5675 37.919C95.288 38.0801 94.9718 38.1637 94.6504 38.1615C94.3263 38.1669 94.0076 38.0761 93.7334 37.9003C93.4821 37.7491 93.2809 37.525 93.1556 37.2568V39.9336H92.6787V34.2349H93.1556V35.0836C93.2809 34.8154 93.4821 34.5914 93.7334 34.4401C94.0076 34.2643 94.3263 34.1736 94.6504 34.1789C94.9718 34.1767 95.288 34.2603 95.5675 34.4214ZM93.8251 34.8038C93.6041 34.9272 93.425 35.1158 93.3115 35.3448C93.1793 35.6004 93.113 35.8861 93.1189 36.1749C93.1142 36.4606 93.1804 36.7429 93.3115 36.9956C93.425 37.2246 93.6041 37.4132 93.8251 37.5366C94.0409 37.6685 94.2887 37.7364 94.5404 37.7324C94.7935 37.7336 95.0428 37.6695 95.2649 37.5459C95.4793 37.4128 95.6537 37.2225 95.7693 36.9956C95.8951 36.7379 95.958 36.4532 95.9527 36.1655C95.9567 35.875 95.8939 35.5876 95.7693 35.3261C95.6533 35.1045 95.4786 34.9203 95.2649 34.7945C95.0428 34.6709 94.7935 34.6068 94.5404 34.608C94.2887 34.604 94.0409 34.6719 93.8251 34.8038Z" fill="currentColor"/>
<path d="M17.266 14.9473V22.3154C17.3037 22.6611 17.267 23.0109 17.1585 23.3407C17.05 23.6705 16.8722 23.9723 16.6375 24.2252C16.4027 24.4781 16.1167 24.6761 15.7992 24.8053C15.4818 24.9345 15.1405 24.9919 14.799 24.9736C14.4601 24.988 14.1222 24.9275 13.8085 24.7963C13.4948 24.6652 13.2127 24.4665 12.9818 24.2139C12.7508 23.9612 12.5764 23.6607 12.4706 23.333C12.3647 23.0053 12.33 22.6581 12.3687 22.3154V15.5255C12.3687 12.8394 11.1581 11.4218 8.8012 11.4218C6.44427 11.4218 4.90356 13.1286 4.90356 16.0012V22.3154C4.94275 22.6606 4.9074 23.0103 4.79998 23.3401C4.69256 23.6699 4.51567 23.9719 4.28164 24.225C4.04761 24.4781 3.76209 24.6762 3.445 24.8055C3.12791 24.9348 2.78688 24.9922 2.44575 24.9736C2.10686 24.988 1.76894 24.9275 1.45523 24.7963C1.14152 24.6652 0.859484 24.4665 0.628521 24.2139C0.397559 23.9612 0.22315 23.6607 0.117317 23.333C0.0114833 23.0053 -0.0232615 22.6581 0.0154562 22.3154V9.75227C-0.0234293 9.40999 0.0112688 9.06321 0.117163 8.73592C0.223056 8.40863 0.39761 8.10866 0.628745 7.85674C0.85988 7.60482 1.14209 7.40698 1.45582 7.27692C1.76955 7.14686 2.10731 7.08768 2.44575 7.10347C3.01705 7.06758 3.58125 7.24772 4.02986 7.60927C4.47848 7.97082 4.77985 8.48825 4.87605 9.06209H4.94024C5.58134 8.3284 6.37685 7.75114 7.2676 7.37328C8.15835 6.99543 9.1214 6.82669 10.0851 6.87962C14.7348 6.87962 17.266 9.71497 17.266 14.9473Z" fill="currentColor"/>
<path d="M20.4213 2.80377C20.397 2.42993 20.4515 2.05511 20.5812 1.70443C20.7109 1.35374 20.9127 1.03528 21.1732 0.770355C21.4337 0.505431 21.7468 0.300157 22.0916 0.16829C22.4365 0.0364229 22.805 -0.0189943 23.1726 0.00573724C23.5399 -0.0174608 23.9077 0.0390119 24.2519 0.171421C24.596 0.30383 24.9085 0.509145 25.1687 0.773742C25.4289 1.03834 25.6308 1.35618 25.761 1.70616C25.8912 2.05615 25.9467 2.43029 25.9239 2.80377C25.9473 3.18041 25.8927 3.55784 25.7636 3.91165C25.6345 4.26546 25.4337 4.58777 25.1744 4.85768C24.915 5.12759 24.6028 5.33911 24.258 5.47854C23.9132 5.61798 23.5434 5.6822 23.1726 5.66708C22.8011 5.68517 22.43 5.62297 22.0838 5.48458C21.7377 5.34618 21.4243 5.13473 21.1643 4.86418C20.9043 4.59363 20.7037 4.27012 20.5757 3.91497C20.4476 3.55982 20.395 3.1811 20.4213 2.80377ZM23.8146 9.71492V22.3154C23.8538 22.6605 23.8184 23.0102 23.711 23.34C23.6036 23.6698 23.4267 23.9718 23.1927 24.2249C22.9586 24.478 22.6731 24.6762 22.356 24.8055C22.0389 24.9347 21.6979 24.9921 21.3568 24.9735C21.0179 24.9879 20.68 24.9274 20.3663 24.7963C20.0525 24.6651 19.7705 24.4664 19.5395 24.2138C19.3086 23.9612 19.1342 23.6607 19.0284 23.333C18.9225 23.0052 18.8878 22.6581 18.9265 22.3154V9.71492C18.8885 9.37459 18.9241 9.02992 19.0308 8.70506C19.1375 8.3802 19.3128 8.08298 19.5443 7.83422C19.7758 7.58545 20.058 7.39115 20.371 7.26491C20.6841 7.13868 21.0206 7.08356 21.3568 7.10342C21.6952 7.07928 22.0348 7.13121 22.3512 7.25555C22.6677 7.37989 22.9534 7.57356 23.188 7.82283C23.4226 8.0721 23.6004 8.37086 23.7087 8.69786C23.817 9.02486 23.8531 9.3721 23.8146 9.71492Z" fill="currentColor"/>
<path d="M41.6881 22.1381C40.8142 23.1388 39.734 23.931 38.5245 24.4582C37.3149 24.9854 36.0058 25.2346 34.6906 25.1879C29.1881 25.1879 25.4097 21.4572 25.4097 16.0384C25.4097 10.6195 29.1973 6.87947 34.6906 6.87947C37.0583 6.82376 39.3565 7.69522 41.1103 9.31376C41.3367 9.53433 41.5169 9.79931 41.6398 10.0927C41.7628 10.386 41.826 10.7017 41.8256 11.0206C41.8458 11.3264 41.8016 11.633 41.6959 11.9201C41.5903 12.2071 41.4256 12.4679 41.2129 12.6851C41.0003 12.9022 40.7445 13.0708 40.4627 13.1794C40.1809 13.288 39.8795 13.3342 39.5788 13.315C39.0285 13.3226 38.4941 13.1271 38.0747 12.7647C37.1439 11.9149 35.9414 11.4376 34.6906 11.4216C32.1595 11.4216 30.4078 13.287 30.4078 16.085C30.3683 16.6774 30.4503 17.2716 30.6488 17.83C30.8472 18.3884 31.1576 18.8987 31.5604 19.3285C31.9632 19.7583 32.4495 20.0982 32.9884 20.3265C33.5272 20.5549 34.107 20.6668 34.6906 20.6551C35.361 20.6658 36.026 20.5326 36.6423 20.2642C37.2586 19.9958 37.8123 19.5983 38.2673 19.0976C38.4748 18.8651 38.7284 18.6801 39.0114 18.5547C39.2943 18.4293 39.6003 18.3664 39.9089 18.3701C40.2086 18.3571 40.5078 18.4071 40.7877 18.517C41.0676 18.6269 41.3222 18.7943 41.5356 19.0087C41.749 19.2231 41.9167 19.48 42.0281 19.7633C42.1396 20.0466 42.1924 20.3502 42.1833 20.6551C42.1944 21.1932 42.0191 21.7181 41.6881 22.1381Z" fill="currentColor"/>
<path d="M52.7022 25.1881C47.0254 25.1881 43.2378 21.4574 43.2378 16.0385C43.2378 10.6197 47.0254 6.87964 52.5188 6.87964C57.4527 6.87964 61.2678 10.5171 61.2678 14.6862V14.9846C61.2918 15.3257 61.2441 15.6681 61.1277 15.989C61.0113 16.3099 60.8291 16.6019 60.593 16.8454C60.357 17.089 60.0726 17.2786 59.7588 17.4016C59.445 17.5247 59.1091 17.5782 58.7733 17.5588H48.2359C48.4738 18.5616 49.0524 19.4466 49.8696 20.0576C50.6869 20.6685 51.6901 20.9661 52.7022 20.8978C53.3803 20.9147 54.0549 20.792 54.6852 20.5372C55.3156 20.2823 55.8889 19.9006 56.3706 19.4148C56.5794 19.1969 56.829 19.0236 57.1045 18.9051C57.3801 18.7865 57.6762 18.7252 57.9755 18.7246C58.2588 18.703 58.5434 18.7431 58.8103 18.8421C59.0772 18.9412 59.3203 19.0969 59.5234 19.299C59.7264 19.5011 59.8848 19.7449 59.988 20.0142C60.0911 20.2834 60.1366 20.5719 60.1215 20.8605C60.1198 21.3895 59.942 21.9024 59.6171 22.3155C58.7412 23.2795 57.6681 24.0364 56.4733 24.5327C55.2785 25.0291 53.9912 25.2528 52.7022 25.1881ZM48.2359 14.1265H56.6273C56.3889 13.2225 55.8485 12.431 55.0987 11.8881C54.349 11.3452 53.4368 11.0847 52.5188 11.1513C50.4095 11.17 48.6303 12.3265 48.2359 14.1265Z" fill="currentColor"/>
<path d="M81.0963 2.65488V22.3157C81.134 22.6614 81.0973 23.0112 80.9888 23.341C80.8803 23.6708 80.7025 23.9726 80.4678 24.2255C80.233 24.4784 79.947 24.6763 79.6296 24.8056C79.3121 24.9348 78.9708 24.9922 78.6293 24.9739C78.0498 25.0065 77.4798 24.8135 77.0352 24.4341C76.5906 24.0547 76.3047 23.5174 76.2357 22.9313H76.1715C75.5043 23.6868 74.6798 24.2815 73.758 24.672C72.8363 25.0624 71.8405 25.2388 70.8432 25.1884C65.8817 25.1884 62.5894 21.5882 62.5894 16.0388C62.5894 10.4894 65.8725 6.8799 70.8432 6.8799C71.8319 6.82776 72.8196 6.99988 73.7348 7.3838C74.65 7.76772 75.4698 8.35383 76.1348 9.09968H76.2082V2.65488C76.1694 2.31341 76.2039 1.96748 76.3093 1.64088C76.4147 1.31428 76.5884 1.01479 76.8185 0.763035C77.0486 0.511281 77.3297 0.313251 77.6423 0.182573C77.9549 0.0518954 78.2916 -0.00832227 78.6293 0.00607392C78.9703 -0.0137133 79.3115 0.0424184 79.629 0.170548C79.9465 0.298677 80.2327 0.495714 80.4675 0.747921C80.7024 1.00013 80.8804 1.30143 80.989 1.63079C81.0976 1.96015 81.1342 2.30964 81.0963 2.65488ZM76.2082 16.0388C76.249 15.4347 76.1658 14.8285 75.9638 14.2588C75.7618 13.6891 75.4454 13.1685 75.0349 12.7299C74.6243 12.2913 74.1285 11.9443 73.5789 11.7112C73.0294 11.478 72.4382 11.3636 71.8428 11.3754C69.3483 11.3754 67.5967 13.2408 67.5967 16.0388C67.5967 18.8368 69.3483 20.6462 71.8428 20.6462C72.4332 20.6574 73.0196 20.5446 73.5651 20.3148C74.1107 20.085 74.6038 19.7432 75.0135 19.3107C75.4233 18.8783 75.7409 18.3645 75.9464 17.8015C76.152 17.2385 76.2411 16.6384 76.2082 16.0388Z" fill="currentColor"/>
<path d="M101.144 9.71485V22.3153C101.181 22.661 101.145 23.0108 101.036 23.3406C100.928 23.6704 100.75 23.9722 100.515 24.2251C100.28 24.478 99.9944 24.676 99.6769 24.8052C99.3595 24.9344 99.0181 24.9918 98.6767 24.9735C98.0972 25.0061 97.5272 24.8131 97.0826 24.4337C96.638 24.0543 96.3521 23.517 96.2831 22.9309H96.2097C95.5443 23.6862 94.7214 24.2809 93.8012 24.6714C92.8809 25.0619 91.8865 25.2384 90.8905 25.188C85.9291 25.188 82.6367 21.5878 82.6367 16.0384C82.6367 10.489 85.9199 6.87951 90.8905 6.87951C91.8865 6.82911 92.8809 7.00561 93.8012 7.39611C94.7214 7.78661 95.5443 8.38125 96.2097 9.13658H96.2831C96.3479 8.54944 96.6329 8.01037 97.0788 7.63161C97.5247 7.25286 98.097 7.06364 98.6767 7.10335C99.0155 7.07945 99.3553 7.13147 99.6721 7.25575C99.989 7.38002 100.275 7.57352 100.51 7.82259C100.746 8.07165 100.924 8.37021 101.034 8.69717C101.143 9.02414 101.181 9.37154 101.144 9.71485ZM96.2464 16.0384C96.2885 15.4347 96.2065 14.8287 96.0056 14.2591C95.8047 13.6894 95.4892 13.1686 95.0794 12.7299C94.6695 12.2911 94.1742 11.944 93.6251 11.7107C93.076 11.4775 92.4851 11.3631 91.8902 11.375C89.3957 11.375 87.644 13.2404 87.644 16.0384C87.644 18.8364 89.3957 20.6458 91.8902 20.6458C92.4802 20.6571 93.0662 20.5443 93.6113 20.3144C94.1564 20.0845 94.6489 19.7425 95.058 19.3099C95.467 18.8773 95.7837 18.3634 95.9882 17.8004C96.1927 17.2374 96.2806 16.6376 96.2464 16.0384Z" fill="currentColor"/>
<path d="M119.981 9.71488V23.1921C119.981 28.6389 116.624 31.9406 111.085 31.9406C107.802 31.9406 105.161 31.0079 103.84 29.2545C103.505 28.8326 103.326 28.3044 103.336 27.7622C103.315 27.4485 103.361 27.1339 103.47 26.84C103.58 26.5461 103.751 26.2797 103.971 26.0592C104.192 25.8386 104.456 25.6691 104.747 25.5622C105.038 25.4553 105.348 25.4136 105.656 25.4398C106.141 25.4289 106.614 25.598 106.986 25.9155C107.519 26.427 108.147 26.825 108.834 27.086C109.521 27.3471 110.252 27.466 110.984 27.4358C111.518 27.481 112.055 27.4105 112.561 27.2289C113.066 27.0474 113.527 26.7588 113.915 26.3824C114.302 26.006 114.607 25.5503 114.808 25.0454C115.01 24.5404 115.104 23.9978 115.084 23.4532V22.2407H115.01C114.377 22.9623 113.593 23.5298 112.715 23.9012C111.837 24.2725 110.888 24.4382 109.939 24.3859C105.353 24.3859 102.831 21.5879 102.831 16.3276V9.71488C102.793 9.37455 102.829 9.02988 102.935 8.70502C103.042 8.38016 103.217 8.08294 103.449 7.83418C103.68 7.58541 103.963 7.39111 104.276 7.26488C104.589 7.13864 104.925 7.08352 105.261 7.10338C105.6 7.07924 105.939 7.13118 106.256 7.25551C106.572 7.37985 106.858 7.57353 107.093 7.82279C107.327 8.07206 107.505 8.37082 107.613 8.69782C107.722 9.02482 107.758 9.37206 107.719 9.71488V15.74C107.719 18.3981 108.939 19.8438 111.223 19.8438C113.653 19.8438 115.084 18.1369 115.084 15.2736V9.67756C115.045 9.33475 115.081 8.98751 115.189 8.66051C115.298 8.3335 115.475 8.03476 115.71 7.78549C115.945 7.53622 116.23 7.34255 116.547 7.21821C116.863 7.09387 117.203 7.04192 117.541 7.06606C117.882 7.04389 118.223 7.09865 118.54 7.22639C118.857 7.35414 119.143 7.55171 119.376 7.80492C119.609 8.05813 119.784 8.36071 119.889 8.69093C119.993 9.02116 120.025 9.37084 119.981 9.71488Z" fill="currentColor"/>
</svg>
