<svg xmlns="http://www.w3.org/2000/svg" width="24" height="24" viewBox="0 0 24 24"><path fill="#FFF" d="M19.34 3.968c.966 0 1.75.783 1.75 1.75v11.01a1.75 1.75 0 0 1-1.75 1.75H9.306a.25.25 0 0 0-.127.034l-3.522 2.087a1.749 1.749 0 0 1-2.642-1.506V5.718c0-.87.634-1.592 1.466-1.727l.14-.018.1-.004zM4.808 5.466l-.1.008a.25.25 0 0 0-.193.244v13.375a.25.25 0 0 0 .377.216l3.522-2.087c.27-.16.578-.245.892-.245H19.34a.25.25 0 0 0 .25-.25V5.717a.25.25 0 0 0-.25-.25H4.81zM12 10a1 1 0 1 1 0 2 1 1 0 0 1 0-2zm-4 0a1 1 0 1 1 0 2 1 1 0 0 1 0-2zm8 0a1 1 0 1 1 0 2 1 1 0 0 1 0-2z" fill-rule="evenodd"/></svg>