<svg width="25" height="24" viewBox="0 0 25 24" fill="none" xmlns="http://www.w3.org/2000/svg"><path opacity=".01" fill="#252729" d="M.5 0h24v24H.5z"/><path fill-rule="evenodd" clip-rule="evenodd" d="M6.313 8.515a7.003 7.003 0 0 1 13.372.926 4.001 4.001 0 0 1-.172 7.845l-.001-.006a.75.75 0 1 1-.215-1.479 2.5 2.5 0 0 0-.913-4.916l-.26-1.477A5.502 5.502 0 0 0 7.45 10h-.487v.018a3 3 0 1 0-.104 5.977l-.001.006a.75.75 0 1 1-.026 1.496v.002a4.5 4.5 0 0 1-.518-8.984Zm6.08 12.995.132.007.082-.007.103-.022.097-.036.066-.033.075-.05.049-.04 2-1.767.077-.08a.75.75 0 0 0-1.07-1.044l-.754.665V15l-.007-.102A.75.75 0 0 0 11.75 15v4.104l-.753-.666-.089-.067a.75.75 0 0 0-.905 1.191l2 1.768.089.067.1.055.067.026.067.02.067.012Z" fill="currentColor"/></svg>