<svg viewBox="0 0 24 24" fill="currentColor" xmlns="http://www.w3.org/2000/svg"><path fill-rule="evenodd" clip-rule="evenodd" d="M9.816 7.605a4.84 4.84 0 0 1 .875-1.86c.414-.535.973-.96 1.675-1.274.702-.314 1.577-.471 2.627-.471.356 0 .707.021 1.054.064.348.042.665.106.953.191l-.28 3.315a3.558 3.558 0 0 0-.533-.127 3.7 3.7 0 0 0-.61-.051c-.39 0-.703.068-.94.203a1.515 1.515 0 0 0-.559.547c-.231.389-.325.927-.355 1.629h2.96v3.3h-2.96v7.64h-4.16v-7.64H8v-3.3h1.562c.026-1.324.254-2.166.254-2.166Z"/></svg>