<svg viewBox="0 0 24 24" fill="currentColor" xmlns="http://www.w3.org/2000/svg"><path fill-rule="evenodd" clip-rule="evenodd" d="M6.875 4.652A1.026 1.026 0 0 1 7.9 5.677a1.026 1.026 0 0 1-1.025 1.025A1.026 1.026 0 0 1 5.85 5.677a1.026 1.026 0 0 1 1.025-1.025Zm-3.6 1.8h1.15a2.568 2.568 0 0 0 2.448 1.802A2.567 2.567 0 0 0 9.32 6.452h11.506a.774.774 0 0 0 0-1.55H9.324A2.568 2.568 0 0 0 6.877 3.1 2.568 2.568 0 0 0 4.43 4.902H3.275a.775.775 0 0 0 0 1.55Zm9.8 5.75a1.026 1.026 0 1 1-2.052-.002 1.026 1.026 0 0 1 2.052.002Zm7.75-1h-6.408a2.568 2.568 0 0 0-2.367-1.579 2.568 2.568 0 0 0-2.367 1.579H3.275a.775.775 0 0 0 0 1.55h6.27a2.57 2.57 0 0 0 2.508 2.016 2.57 2.57 0 0 0 2.507-2.016h6.265a.774.774 0 0 0 .774-.775.774.774 0 0 0-.774-.775Zm-3.599 8.101a1.028 1.028 0 0 1-1.025-1.025 1.028 1.028 0 0 1 1.024-1.026c.566 0 1.024.46 1.025 1.026a1.028 1.028 0 0 1-1.024 1.025Zm3.6-1.8h-1.152a2.566 2.566 0 0 0-2.447-1.802 2.567 2.567 0 0 0-2.447 1.802H3.275a.776.776 0 0 0 0 1.549h11.5a2.567 2.567 0 0 0 2.447 1.802 2.568 2.568 0 0 0 2.448-1.802h1.155a.774.774 0 1 0 0-1.55Z"/></svg>