<svg viewBox="0 0 24 24" fill="none" xmlns="http://www.w3.org/2000/svg"><g stroke="currentColor" stroke-width="1.5"><path d="M22.75 12c0-3.45-.863-6.174-2.72-8.03-1.856-1.858-4.58-2.72-8.03-2.72-3.45 0-6.174.862-8.03 2.72C2.111 5.825 1.25 8.55 1.25 12c0 3.45.862 6.174 2.72 8.03 1.856 1.857 4.58 2.72 8.03 2.72 3.45 0 6.174-.863 8.03-2.72 1.857-1.856 2.72-4.58 2.72-8.03Z"/><path d="M5.88 15.465c0-4.048 2.711-8.434 7.934-9.28 0 0 1.564-.278 2.319.017.283.088.667.42.738.82.174.69-.477 1.255-.516 1.287.037.014.595.217.703.717.098.454-.217.82-.776 1.011.929.835.733 2.506-.137 3.294 1.233.14 2.19.937 2.19 2.134 0 .85-2.076 1.19-6.229 1.19-4.153 0-6.225-.34-6.225-1.19Z" stroke-linejoin="round"/></g></svg>