<svg width="24" height="24" viewBox="0 0 24 24" fill="none" xmlns="http://www.w3.org/2000/svg"><path fill-rule="evenodd" clip-rule="evenodd" d="M16.131 3.43c1.62 0 3.118.622 4.208 1.75C21.412 6.29 22 7.8 22 9.424c0 1.67-.65 3.193-2.01 4.758l-.222.251c-.784.868-1.658 1.652-3.445 3.121l-.536.44-1.485 1.209-1.165.962a1.78 1.78 0 0 1-1.137.408c-.418 0-.821-.145-1.137-.409l-.39-.324-2.967-2.427-.82-.682c-.998-.842-1.643-1.434-2.203-2.026l-.275-.298-.198-.224C2.65 12.617 2 11.095 2 9.424 2 7.8 2.588 6.29 3.66 5.18c1.093-1.128 2.59-1.75 4.21-1.75 1.22 0 2.343.37 3.325 1.094.163.12.32.25.473.387l.224.213.109.113.11-.113.223-.213.233-.2.24-.187a5.502 5.502 0 0 1 3.325-1.094Zm0 1.5c-.808 0-1.547.217-2.193.633l-.211.146-.212.163c-.08.066-.158.134-.227.198l-.098.093L12 7.402l-1.167-1.215a4.747 4.747 0 0 0-.53-.456A4.003 4.003 0 0 0 7.87 4.93c-1.218 0-2.325.46-3.13 1.293-.797.824-1.24 1.957-1.24 3.201 0 1.198.44 2.313 1.429 3.522l.205.243.19.215c.614.684 1.298 1.32 2.61 2.415l.522.433 2.973 2.433.396.328c.044.037.107.06.175.06.045 0 .088-.01.127-.03l.055-.035 1.173-.968 2.465-2.016c1.624-1.347 2.337-2.02 3.038-2.825 1.14-1.313 1.642-2.497 1.642-3.775 0-1.244-.443-2.377-1.24-3.201-.804-.833-1.911-1.293-3.129-1.293Z" fill="currentColor"/></svg>