<svg viewBox="0 0 24 24" fill="currentColor" xmlns="http://www.w3.org/2000/svg"><g clip-path="url(#a)"><path d="M20.983 8.292c-.043-.956-.197-1.614-.419-2.184a4.392 4.392 0 0 0-1.04-1.596 4.43 4.43 0 0 0-1.594-1.037c-.573-.222-1.227-.377-2.183-.419-.964-.045-1.27-.056-3.713-.056-2.444 0-2.75.01-3.71.053-.957.042-1.614.197-2.184.418a4.392 4.392 0 0 0-1.596 1.041c-.457.45-.812.995-1.038 1.593-.221.573-.376 1.227-.418 2.183-.046.964-.056 1.27-.056 3.714s.01 2.75.052 3.71c.043.956.197 1.613.419 2.183a4.439 4.439 0 0 0 1.04 1.596c.45.458.996.813 1.594 1.038.573.221 1.227.376 2.183.418.96.043 1.266.053 3.71.053s2.75-.01 3.71-.053c.956-.042 1.614-.197 2.183-.418a4.604 4.604 0 0 0 2.634-2.634c.222-.573.376-1.227.419-2.184.042-.96.052-1.265.052-3.71 0-2.443-.003-2.749-.045-3.709Zm-1.621 7.35c-.04.878-.187 1.353-.31 1.67a2.986 2.986 0 0 1-1.709 1.708c-.316.123-.794.271-1.67.31-.95.042-1.234.052-3.636.052s-2.69-.01-3.636-.052c-.879-.039-1.354-.187-1.67-.31a2.77 2.77 0 0 1-1.034-.671 2.799 2.799 0 0 1-.672-1.034c-.123-.317-.27-.795-.309-1.67-.042-.95-.053-1.235-.053-3.636 0-2.402.01-2.69.053-3.636.039-.88.186-1.354.31-1.67.144-.39.372-.746.675-1.034a2.794 2.794 0 0 1 1.033-.672c.317-.123.795-.27 1.67-.31.95-.041 1.235-.052 3.636-.052 2.406 0 2.69.01 3.636.053.88.039 1.354.186 1.67.31.39.143.746.372 1.034.67.3.293.528.644.672 1.035.123.316.27.794.31 1.67.042.95.052 1.234.052 3.636 0 2.401-.01 2.683-.052 3.632Z"/><path d="M12.033 7.378a4.625 4.625 0 0 0 0 9.248 4.625 4.625 0 0 0 0-9.248Zm0 7.623a3 3 0 1 1 .001-6 3 3 0 0 1 0 6Zm5.887-7.806a1.08 1.08 0 1 1-2.16 0 1.08 1.08 0 0 1 2.16 0Z"/></g><defs><clipPath id="a"><path transform="translate(3 3)" d="M0 0h18v18H0z"/></clipPath></defs></svg>