<svg viewBox="0 0 24 24" fill="currentColor" xmlns="http://www.w3.org/2000/svg"><g clip-path="url(#a)"><path d="M20.995 21v-.001H21v-6.602c0-3.23-.695-5.717-4.47-5.717-1.816 0-3.034.996-3.531 1.94h-.053V8.982h-3.58v12.017h3.728v-5.95c0-1.567.297-3.082 2.237-3.082 1.912 0 1.94 1.788 1.94 3.182v5.85h3.724ZM3.297 8.983h3.732V21H3.297V8.983ZM5.162 3A2.162 2.162 0 0 0 3 5.162c0 1.193.968 2.181 2.162 2.181 1.193 0 2.161-.988 2.161-2.181A2.163 2.163 0 0 0 5.161 3Z"/></g><defs><clipPath id="a"><path transform="translate(3 3)" d="M0 0h18v18H0z"/></clipPath></defs></svg>