<svg viewBox="0 0 24 24" fill="none" xmlns="http://www.w3.org/2000/svg"><path fill-rule="evenodd" clip-rule="evenodd" d="m17.902 13.349.04-.073a7.63 7.63 0 0 0 .906-3.128c0-1.85-.75-3.523-1.962-4.736a6.677 6.677 0 0 0-4.737-1.962 6.68 6.68 0 0 0-4.738 1.962 6.678 6.678 0 0 0-1.962 4.736 7.618 7.618 0 0 0 .9 3.137c.067.107.673 1.071 1.487 2.264.861 1.265 1.952 2.784 2.867 3.792.605.674 1.148 1.116 1.446 1.109.454.013 1.425-.994 2.405-2.259.988-1.264 2.015-2.782 2.679-3.794.339-.516.579-.894.676-1.048h-.007ZM12.15 2a8.362 8.362 0 0 1 8.149 8.148v.005a9.048 9.048 0 0 1-1.082 3.761h-.001v.001l-.062.107a64.182 64.182 0 0 1-2.465 3.686c-2.479 3.486-3.536 4.188-4.54 4.191-.316.002-.863-.008-1.921-.994-1.061-.986-2.652-2.951-5.101-6.877v-.001l-.001-.001-.064-.112v-.001A9.012 9.012 0 0 1 4 10.152l-.001-.002v-.002A8.362 8.362 0 0 1 12.147 2h.003Zm-2.2 7.7a2.202 2.202 0 0 0 2.2 2.2 2.202 2.202 0 0 0 2.198-2.2 2.202 2.202 0 0 0-2.199-2.2 2.203 2.203 0 0 0-2.2 2.2Zm-1.45 0a3.65 3.65 0 1 1 7.3-.002 3.65 3.65 0 0 1-7.3.002Z" fill="currentColor"/></svg>