<svg viewBox="0 0 24 24" fill="currentColor" xmlns="http://www.w3.org/2000/svg"><path fill-rule="evenodd" clip-rule="evenodd" d="m4.63 5.942 4.121-1.8a1.672 1.672 0 0 1 1.346 0l4.383 1.914c.061.027.13.027.192 0l3.352-1.464a1.68 1.68 0 0 1 .673-.142c.996 0 1.803.876 1.803 1.957v9.869c0 .803-.452 1.525-1.14 1.82l-4.122 1.767a1.668 1.668 0 0 1-1.325 0L9.52 17.98a.238.238 0 0 0-.19 0l-3.364 1.443a1.68 1.68 0 0 1-.662.136c-.996 0-1.803-.876-1.803-1.957V7.758c0-.799.447-1.518 1.13-1.816Zm8.883 1.5L10.1 5.952v10.472l3.4 1.458V7.58c0-.047.004-.093.012-.138Zm1.587.227v10.45l3.692-1.583a.28.28 0 0 0 .162-.26V6.407c0-.154-.115-.28-.257-.28a.24.24 0 0 0-.096.021l-3.352 1.464c-.05.022-.099.04-.149.057ZM5.207 7.5 8.5 6.058V16.53l-3.102 1.33a.24.24 0 0 1-.095.02c-.142 0-.258-.125-.258-.28V7.758a.28.28 0 0 1 .162-.26Z"/></svg>