<svg viewBox="0 0 24 24" fill="currentColor" xmlns="http://www.w3.org/2000/svg"><path fill-rule="evenodd" clip-rule="evenodd" d="M11.95 2.7a5.75 5.75 0 0 0-3.355 10.42c-3.712.966-6.395 3.494-6.395 6.552 0 .915.886 1.528 1.875 1.528h15.75c.445 0 .88-.125 1.222-.36.402-.279.653-.698.653-1.168 0-3.058-2.682-5.586-6.395-6.552A5.75 5.75 0 0 0 11.95 2.7Zm0 10a4.25 4.25 0 1 0 0-8.5 4.25 4.25 0 0 0 0 8.5Zm0 1.5c-4.603 0-8.25 2.521-8.25 5.471l.008-.015c.012-.007.04-.001.084.009.062.014.156.035.283.035h15.75c.152 0 .289-.04.373-.097l-.003-.115c-.144-2.81-3.587-5.185-7.958-5.285l-.287-.003Z"/></svg>