<svg viewBox="0 0 24 24" fill="currentColor" xmlns="http://www.w3.org/2000/svg"><path fill-rule="evenodd" clip-rule="evenodd" d="M19.49 16.702v-5.07c0-2.043-.49-3.858-1.66-5.176-1.188-1.338-2.874-1.941-4.786-1.95a5.875 5.875 0 0 0-3.312.836 3.09 3.09 0 0 0-2.046-.68A3.094 3.094 0 0 0 5.33 5.676a3.166 3.166 0 0 0-.818 2.405V16.7a3.198 3.198 0 0 0 .816 2.405c.306.336.682.602 1.103.779.398.167.827.25 1.26.241a3.101 3.101 0 0 0 2.387-1.006 3.2 3.2 0 0 0 .828-2.419v-4.332c0-.746.199-1.163.376-1.37.157-.181.4-.324.83-.324.508 0 .66.142.717.208.091.106.261.412.261 1.154V16.7a3.198 3.198 0 0 0 .817 2.405 3.101 3.101 0 0 0 2.363 1.02 3.107 3.107 0 0 0 2.386-1.004 3.178 3.178 0 0 0 .835-2.419Zm-3.213 1.922a1.607 1.607 0 0 0 1.276-.521 1.68 1.68 0 0 0 .437-1.332v-5.138c0-3.65-1.758-5.626-4.987-5.626a4.376 4.376 0 0 0-2.355.538c-.454.25-.864.58-1.21.975l-.007.009h-.045A1.651 1.651 0 0 0 8.5 6.325a1.583 1.583 0 0 0-.802-.162 1.6 1.6 0 0 0-1.261.525 1.686 1.686 0 0 0-.426 1.322v8.76a1.699 1.699 0 0 0 .425 1.325 1.624 1.624 0 0 0 1.262.529 1.619 1.619 0 0 0 1.275-.522 1.699 1.699 0 0 0 .432-1.332v-4.402c0-2.004 1.07-3.194 2.707-3.194 1.636 0 2.477.989 2.477 2.862v4.735a1.698 1.698 0 0 0 .426 1.324 1.62 1.62 0 0 0 1.262.529Z"/></svg>