<svg width="24" height="24" viewBox="0 0 24 24" fill="currentColor" xmlns="http://www.w3.org/2000/svg"><path d="M16 8.25c0-.414-.283-.75-.632-.75H8.632l-.086.007C8.238 7.557 8 7.87 8 8.25c0 .414.283.75.632.75h6.736l.086-.007c.308-.05.546-.363.546-.743Zm-.632 2.95c.35 0 .632.336.632.75 0 .38-.238.694-.546.743l-.086.007H8.632c-.35 0-.632-.336-.632-.75 0-.38.238-.693.546-.743l.086-.007h6.736ZM16 15.65c0-.414-.283-.75-.632-.75H8.632l-.086.007c-.308.05-.546.363-.546.743 0 .414.283.75.632.75h6.736l.086-.007c.308-.05.546-.363.546-.743Z"/><path fill-rule="evenodd" clip-rule="evenodd" d="M19 2.5a1 1 0 0 1 1 1v17a1 1 0 0 1-1 1H5a1 1 0 0 1-1-1V6.878a1.2 1.2 0 0 1 .312-.807l2.95-3.244a1 1 0 0 1 .74-.327H19ZM18.5 4H8.222L5.5 6.992V20h13V4Z"/></svg>