<svg width="24" height="24" viewBox="0 0 24 24" fill="none" xmlns="http://www.w3.org/2000/svg"><path fill-rule="evenodd" clip-rule="evenodd" d="M8.364 12a3.636 3.636 0 1 1 7.272 0 3.636 3.636 0 0 1-7.272 0Zm1.363 0a2.273 2.273 0 1 0 4.546 0 2.273 2.273 0 0 0-4.546 0Z" fill="currentColor"/><path fill-rule="evenodd" clip-rule="evenodd" d="M20.182 9.273h.454A1.364 1.364 0 0 1 22 10.64v2.727c0 .753-.61 1.364-1.364 1.364h-.454a8.49 8.49 0 0 1-.455 1.14l.314.314a1.364 1.364 0 0 1 0 1.928l-1.927 1.927a1.364 1.364 0 0 1-1.928 0l-.313-.314c-.37.18-.75.331-1.141.455v.454c0 .754-.61 1.364-1.364 1.364h-2.727c-.753 0-1.364-.61-1.364-1.364v-.454a8.503 8.503 0 0 1-1.14-.455l-.323.305a1.364 1.364 0 0 1-1.928 0L3.96 18.105a1.364 1.364 0 0 1 0-1.928l.314-.313a8.496 8.496 0 0 1-.455-1.141h-.454c-.753 0-1.364-.61-1.364-1.364v-2.727c0-.753.61-1.364 1.364-1.364h.454a8.5 8.5 0 0 1 .455-1.14l-.314-.314a1.364 1.364 0 0 1 0-1.928L5.886 3.96a1.364 1.364 0 0 1 1.928 0l.313.314c.37-.18.75-.331 1.141-.455v-.454c0-.753.61-1.364 1.364-1.364h2.727c.753 0 1.364.61 1.364 1.364v.454c.39.124.772.276 1.14.455l.323-.31a1.364 1.364 0 0 1 1.928 0l1.927 1.928a1.364 1.364 0 0 1 0 1.927l-.314.314c.18.369.331.75.455 1.14Zm-1.041 4.09h1.495v-2.727h-1.495a7.232 7.232 0 0 0-1.127-2.727l1.063-1.05-1.927-1.927-1.055 1.054a7.231 7.231 0 0 0-2.727-1.127V3.364h-2.727V4.85a7.232 7.232 0 0 0-2.727 1.127L6.859 4.923 4.932 6.85l1.054 1.055a7.232 7.232 0 0 0-1.127 2.727H3.364v2.727H4.85a7.232 7.232 0 0 0 1.127 2.727l-1.054 1.055 1.927 1.927 1.055-1.054c.821.559 1.75.943 2.727 1.127v1.495h2.727v-1.49a7.229 7.229 0 0 0 2.727-1.128l1.055 1.055 1.927-1.928-1.054-1.054a7.228 7.228 0 0 0 1.127-2.727Z" fill="currentColor"/></svg>