<svg viewBox="0 0 24 24" fill="currentColor" xmlns="http://www.w3.org/2000/svg"><path fill-rule="evenodd" clip-rule="evenodd" d="M19.913 16.22a.75.75 0 0 0 .14-.97l-.067-.088a.75.75 0 0 0-.97-.14l-1.815 1.159V5.55l-.007-.102a.75.75 0 0 0-1.493.102v10.646l-1.884-1.178-.098-.052a.75.75 0 0 0-.697 1.324l3.021 1.89a.747.747 0 0 0 .82-.004l2.96-1.89.09-.066Zm-8.97-9.34a.75.75 0 0 1 .14.969l-.067.09a.75.75 0 0 1-.969.139l-1.816-1.16V17.55l-.007.102a.75.75 0 0 1-1.493-.102V6.904L4.848 8.081l-.099.052a.75.75 0 0 1-.697-1.323L7.08 4.916a.745.745 0 0 1 .807.003l2.967 1.894.09.067Z"/></svg>